%TF.GenerationSoftware,KiCad,Pcbnew,(5.1.9-0-10_14)*%
%TF.CreationDate,2021-08-12T09:32:14+02:00*%
%TF.ProjectId,HB-SCI-x-MSP,48422d53-4349-42d7-982d-4d53502e6b69,rev?*%
%TF.SameCoordinates,Original*%
%TF.FileFunction,Legend,Bot*%
%TF.FilePolarity,Positive*%
%FSLAX46Y46*%
G04 Gerber Fmt 4.6, Leading zero omitted, Abs format (unit mm)*
G04 Created by KiCad (PCBNEW (5.1.9-0-10_14)) date 2021-08-12 09:32:14*
%MOMM*%
%LPD*%
G01*
G04 APERTURE LIST*
%ADD10C,0.120000*%
%ADD11C,0.150000*%
G04 APERTURE END LIST*
D10*
%TO.C,JP1*%
X81300000Y-55800000D02*
X84100000Y-55800000D01*
X84100000Y-55800000D02*
X84100000Y-53800000D01*
X84100000Y-53800000D02*
X81300000Y-53800000D01*
X81300000Y-53800000D02*
X81300000Y-55800000D01*
%TO.C,J2*%
X66630000Y-58360000D02*
X66630000Y-57030000D01*
X65300000Y-58360000D02*
X66630000Y-58360000D01*
X64030000Y-58360000D02*
X64030000Y-55700000D01*
X64030000Y-55700000D02*
X51270000Y-55700000D01*
X64030000Y-58360000D02*
X51270000Y-58360000D01*
X51270000Y-58360000D02*
X51270000Y-55700000D01*
D11*
%TO.C,U3*%
X43700000Y-53300000D02*
X63700000Y-53300000D01*
X43700000Y-36300000D02*
X43700000Y-53300000D01*
X63700000Y-36300000D02*
X43700000Y-36300000D01*
X45200000Y-45800000D02*
G75*
G03*
X45200000Y-45800000I-500000J0D01*
G01*
X45200000Y-43300000D02*
G75*
G03*
X45200000Y-43300000I-500000J0D01*
G01*
X45200000Y-48300000D02*
G75*
G03*
X45200000Y-48300000I-500000J0D01*
G01*
X63700000Y-36300000D02*
X63700000Y-36800000D01*
X63700000Y-53300000D02*
X63700000Y-52800000D01*
%TO.C,U1*%
X88456524Y-45610000D02*
X88297425Y-45769099D01*
X83330000Y-40483476D02*
X83100190Y-40713286D01*
X78203476Y-45610000D02*
X78433286Y-45380190D01*
X83330000Y-50736524D02*
X83559810Y-50506714D01*
X88456524Y-45610000D02*
X88226714Y-45380190D01*
X83330000Y-50736524D02*
X83100190Y-50506714D01*
X78203476Y-45610000D02*
X78433286Y-45839810D01*
X83330000Y-40483476D02*
X83559810Y-40713286D01*
X88297425Y-45769099D02*
X89305052Y-46776726D01*
D10*
%TO.C,R8*%
X70161252Y-37090000D02*
X69638748Y-37090000D01*
X70161252Y-38510000D02*
X69638748Y-38510000D01*
%TO.C,R7*%
X71690000Y-48413748D02*
X71690000Y-48936252D01*
X73110000Y-48413748D02*
X73110000Y-48936252D01*
%TO.C,Q1*%
X70120000Y-42840000D02*
X71050000Y-42840000D01*
X73280000Y-42840000D02*
X72350000Y-42840000D01*
X73280000Y-42840000D02*
X73280000Y-45000000D01*
X70120000Y-42840000D02*
X70120000Y-44300000D01*
%TO.C,D2*%
X71380000Y-52550000D02*
X75180000Y-52550000D01*
X75180000Y-52550000D02*
X75180000Y-54350000D01*
X75180000Y-54350000D02*
X71380000Y-54350000D01*
%TO.C,C3*%
X65690000Y-38538748D02*
X65690000Y-39061252D01*
X67110000Y-38538748D02*
X67110000Y-39061252D01*
%TO.C,C2*%
X78517313Y-41511579D02*
X78886779Y-41142113D01*
X77513221Y-40507487D02*
X77882687Y-40138021D01*
%TO.C,C1*%
X89113221Y-49682687D02*
X89482687Y-49313221D01*
X90117313Y-50686779D02*
X90486779Y-50317313D01*
%TO.C,JP1*%
D11*
X86104761Y-53352380D02*
X86104761Y-52352380D01*
X85723809Y-52352380D01*
X85628571Y-52400000D01*
X85580952Y-52447619D01*
X85533333Y-52542857D01*
X85533333Y-52685714D01*
X85580952Y-52780952D01*
X85628571Y-52828571D01*
X85723809Y-52876190D01*
X86104761Y-52876190D01*
X85104761Y-53352380D02*
X85104761Y-52685714D01*
X85104761Y-52876190D02*
X85057142Y-52780952D01*
X85009523Y-52733333D01*
X84914285Y-52685714D01*
X84819047Y-52685714D01*
X84342857Y-53352380D02*
X84438095Y-53304761D01*
X84485714Y-53257142D01*
X84533333Y-53161904D01*
X84533333Y-52876190D01*
X84485714Y-52780952D01*
X84438095Y-52733333D01*
X84342857Y-52685714D01*
X84200000Y-52685714D01*
X84104761Y-52733333D01*
X84057142Y-52780952D01*
X84009523Y-52876190D01*
X84009523Y-53161904D01*
X84057142Y-53257142D01*
X84104761Y-53304761D01*
X84200000Y-53352380D01*
X84342857Y-53352380D01*
X83152380Y-52685714D02*
X83152380Y-53495238D01*
X83200000Y-53590476D01*
X83247619Y-53638095D01*
X83342857Y-53685714D01*
X83485714Y-53685714D01*
X83580952Y-53638095D01*
X83152380Y-53304761D02*
X83247619Y-53352380D01*
X83438095Y-53352380D01*
X83533333Y-53304761D01*
X83580952Y-53257142D01*
X83628571Y-53161904D01*
X83628571Y-52876190D01*
X83580952Y-52780952D01*
X83533333Y-52733333D01*
X83438095Y-52685714D01*
X83247619Y-52685714D01*
X83152380Y-52733333D01*
X81961904Y-52304761D02*
X82819047Y-53590476D01*
X81057142Y-53352380D02*
X81390476Y-52876190D01*
X81628571Y-53352380D02*
X81628571Y-52352380D01*
X81247619Y-52352380D01*
X81152380Y-52400000D01*
X81104761Y-52447619D01*
X81057142Y-52542857D01*
X81057142Y-52685714D01*
X81104761Y-52780952D01*
X81152380Y-52828571D01*
X81247619Y-52876190D01*
X81628571Y-52876190D01*
X80200000Y-52685714D02*
X80200000Y-53352380D01*
X80628571Y-52685714D02*
X80628571Y-53209523D01*
X80580952Y-53304761D01*
X80485714Y-53352380D01*
X80342857Y-53352380D01*
X80247619Y-53304761D01*
X80200000Y-53257142D01*
X79723809Y-52685714D02*
X79723809Y-53352380D01*
X79723809Y-52780952D02*
X79676190Y-52733333D01*
X79580952Y-52685714D01*
X79438095Y-52685714D01*
X79342857Y-52733333D01*
X79295238Y-52828571D01*
X79295238Y-53352380D01*
%TO.C,J2*%
X50198571Y-56053809D02*
X50198571Y-55720476D01*
X50722380Y-55720476D02*
X49722380Y-55720476D01*
X49722380Y-56196666D01*
X49722380Y-56434761D02*
X49722380Y-57006190D01*
X50722380Y-56720476D02*
X49722380Y-56720476D01*
X50722380Y-57339523D02*
X49722380Y-57339523D01*
X49722380Y-57577619D01*
X49770000Y-57720476D01*
X49865238Y-57815714D01*
X49960476Y-57863333D01*
X50150952Y-57910952D01*
X50293809Y-57910952D01*
X50484285Y-57863333D01*
X50579523Y-57815714D01*
X50674761Y-57720476D01*
X50722380Y-57577619D01*
X50722380Y-57339523D01*
X50722380Y-58339523D02*
X49722380Y-58339523D01*
%TO.C,U3*%
X59461904Y-37752380D02*
X59461904Y-38561904D01*
X59414285Y-38657142D01*
X59366666Y-38704761D01*
X59271428Y-38752380D01*
X59080952Y-38752380D01*
X58985714Y-38704761D01*
X58938095Y-38657142D01*
X58890476Y-38561904D01*
X58890476Y-37752380D01*
X58509523Y-37752380D02*
X57890476Y-37752380D01*
X58223809Y-38133333D01*
X58080952Y-38133333D01*
X57985714Y-38180952D01*
X57938095Y-38228571D01*
X57890476Y-38323809D01*
X57890476Y-38561904D01*
X57938095Y-38657142D01*
X57985714Y-38704761D01*
X58080952Y-38752380D01*
X58366666Y-38752380D01*
X58461904Y-38704761D01*
X58509523Y-38657142D01*
%TO.C,U1*%
X88533969Y-41483526D02*
X87961549Y-42055946D01*
X87860534Y-42089618D01*
X87793190Y-42089618D01*
X87692175Y-42055946D01*
X87557488Y-41921259D01*
X87523816Y-41820244D01*
X87523816Y-41752900D01*
X87557488Y-41651885D01*
X88129908Y-41079465D01*
X86715694Y-41079465D02*
X87119755Y-41483526D01*
X86917725Y-41281496D02*
X87624831Y-40574389D01*
X87591160Y-40742748D01*
X87591160Y-40877435D01*
X87624831Y-40978450D01*
%TO.C,R8*%
X70066666Y-36602380D02*
X70400000Y-36126190D01*
X70638095Y-36602380D02*
X70638095Y-35602380D01*
X70257142Y-35602380D01*
X70161904Y-35650000D01*
X70114285Y-35697619D01*
X70066666Y-35792857D01*
X70066666Y-35935714D01*
X70114285Y-36030952D01*
X70161904Y-36078571D01*
X70257142Y-36126190D01*
X70638095Y-36126190D01*
X69495238Y-36030952D02*
X69590476Y-35983333D01*
X69638095Y-35935714D01*
X69685714Y-35840476D01*
X69685714Y-35792857D01*
X69638095Y-35697619D01*
X69590476Y-35650000D01*
X69495238Y-35602380D01*
X69304761Y-35602380D01*
X69209523Y-35650000D01*
X69161904Y-35697619D01*
X69114285Y-35792857D01*
X69114285Y-35840476D01*
X69161904Y-35935714D01*
X69209523Y-35983333D01*
X69304761Y-36030952D01*
X69495238Y-36030952D01*
X69590476Y-36078571D01*
X69638095Y-36126190D01*
X69685714Y-36221428D01*
X69685714Y-36411904D01*
X69638095Y-36507142D01*
X69590476Y-36554761D01*
X69495238Y-36602380D01*
X69304761Y-36602380D01*
X69209523Y-36554761D01*
X69161904Y-36507142D01*
X69114285Y-36411904D01*
X69114285Y-36221428D01*
X69161904Y-36126190D01*
X69209523Y-36078571D01*
X69304761Y-36030952D01*
%TO.C,R7*%
X71202380Y-48508333D02*
X70726190Y-48175000D01*
X71202380Y-47936904D02*
X70202380Y-47936904D01*
X70202380Y-48317857D01*
X70250000Y-48413095D01*
X70297619Y-48460714D01*
X70392857Y-48508333D01*
X70535714Y-48508333D01*
X70630952Y-48460714D01*
X70678571Y-48413095D01*
X70726190Y-48317857D01*
X70726190Y-47936904D01*
X70202380Y-48841666D02*
X70202380Y-49508333D01*
X71202380Y-49079761D01*
%TO.C,Q1*%
X71795238Y-41647619D02*
X71890476Y-41600000D01*
X71985714Y-41504761D01*
X72128571Y-41361904D01*
X72223809Y-41314285D01*
X72319047Y-41314285D01*
X72271428Y-41552380D02*
X72366666Y-41504761D01*
X72461904Y-41409523D01*
X72509523Y-41219047D01*
X72509523Y-40885714D01*
X72461904Y-40695238D01*
X72366666Y-40600000D01*
X72271428Y-40552380D01*
X72080952Y-40552380D01*
X71985714Y-40600000D01*
X71890476Y-40695238D01*
X71842857Y-40885714D01*
X71842857Y-41219047D01*
X71890476Y-41409523D01*
X71985714Y-41504761D01*
X72080952Y-41552380D01*
X72271428Y-41552380D01*
X70890476Y-41552380D02*
X71461904Y-41552380D01*
X71176190Y-41552380D02*
X71176190Y-40552380D01*
X71271428Y-40695238D01*
X71366666Y-40790476D01*
X71461904Y-40838095D01*
%TO.C,D2*%
X73218095Y-52302380D02*
X73218095Y-51302380D01*
X72980000Y-51302380D01*
X72837142Y-51350000D01*
X72741904Y-51445238D01*
X72694285Y-51540476D01*
X72646666Y-51730952D01*
X72646666Y-51873809D01*
X72694285Y-52064285D01*
X72741904Y-52159523D01*
X72837142Y-52254761D01*
X72980000Y-52302380D01*
X73218095Y-52302380D01*
X72265714Y-51397619D02*
X72218095Y-51350000D01*
X72122857Y-51302380D01*
X71884761Y-51302380D01*
X71789523Y-51350000D01*
X71741904Y-51397619D01*
X71694285Y-51492857D01*
X71694285Y-51588095D01*
X71741904Y-51730952D01*
X72313333Y-52302380D01*
X71694285Y-52302380D01*
%TO.C,C3*%
X65107142Y-38633333D02*
X65154761Y-38585714D01*
X65202380Y-38442857D01*
X65202380Y-38347619D01*
X65154761Y-38204761D01*
X65059523Y-38109523D01*
X64964285Y-38061904D01*
X64773809Y-38014285D01*
X64630952Y-38014285D01*
X64440476Y-38061904D01*
X64345238Y-38109523D01*
X64250000Y-38204761D01*
X64202380Y-38347619D01*
X64202380Y-38442857D01*
X64250000Y-38585714D01*
X64297619Y-38633333D01*
X64202380Y-38966666D02*
X64202380Y-39585714D01*
X64583333Y-39252380D01*
X64583333Y-39395238D01*
X64630952Y-39490476D01*
X64678571Y-39538095D01*
X64773809Y-39585714D01*
X65011904Y-39585714D01*
X65107142Y-39538095D01*
X65154761Y-39490476D01*
X65202380Y-39395238D01*
X65202380Y-39109523D01*
X65154761Y-39014285D01*
X65107142Y-38966666D01*
%TO.C,C2*%
X77170389Y-39659487D02*
X77237732Y-39659487D01*
X77372419Y-39592143D01*
X77439763Y-39524800D01*
X77507106Y-39390112D01*
X77507106Y-39255425D01*
X77473435Y-39154410D01*
X77372419Y-38986051D01*
X77271404Y-38885036D01*
X77103045Y-38784021D01*
X77002030Y-38750349D01*
X76867343Y-38750349D01*
X76732656Y-38817693D01*
X76665312Y-38885036D01*
X76597969Y-39019723D01*
X76597969Y-39087067D01*
X76328595Y-39356441D02*
X76261251Y-39356441D01*
X76160236Y-39390112D01*
X75991877Y-39558471D01*
X75958206Y-39659487D01*
X75958206Y-39726830D01*
X75991877Y-39827845D01*
X76059221Y-39895189D01*
X76193908Y-39962532D01*
X77002030Y-39962532D01*
X76564297Y-40400265D01*
%TO.C,C1*%
X91470389Y-51234687D02*
X91537732Y-51234687D01*
X91672419Y-51167343D01*
X91739763Y-51100000D01*
X91807106Y-50965312D01*
X91807106Y-50830625D01*
X91773435Y-50729610D01*
X91672419Y-50561251D01*
X91571404Y-50460236D01*
X91403045Y-50359221D01*
X91302030Y-50325549D01*
X91167343Y-50325549D01*
X91032656Y-50392893D01*
X90965312Y-50460236D01*
X90897969Y-50594923D01*
X90897969Y-50662267D01*
X90864297Y-51975465D02*
X91268358Y-51571404D01*
X91066328Y-51773435D02*
X90359221Y-51066328D01*
X90527580Y-51100000D01*
X90662267Y-51100000D01*
X90763282Y-51066328D01*
%TD*%
M02*
