%TF.GenerationSoftware,KiCad,Pcbnew,(5.1.9-0-10_14)*%
%TF.CreationDate,2021-08-19T07:46:10+02:00*%
%TF.ProjectId,HB-SCI-x-MSP,48422d53-4349-42d7-982d-4d53502e6b69,rev?*%
%TF.SameCoordinates,Original*%
%TF.FileFunction,Copper,L1,Top*%
%TF.FilePolarity,Positive*%
%FSLAX46Y46*%
G04 Gerber Fmt 4.6, Leading zero omitted, Abs format (unit mm)*
G04 Created by KiCad (PCBNEW (5.1.9-0-10_14)) date 2021-08-19 07:46:10*
%MOMM*%
%LPD*%
G01*
G04 APERTURE LIST*
%TA.AperFunction,ComponentPad*%
%ADD10O,1.700000X1.700000*%
%TD*%
%TA.AperFunction,SMDPad,CuDef*%
%ADD11R,2.600000X3.600000*%
%TD*%
%TA.AperFunction,ComponentPad*%
%ADD12O,1.350000X1.350000*%
%TD*%
%TA.AperFunction,SMDPad,CuDef*%
%ADD13O,1.350000X1.350000*%
%TD*%
%TA.AperFunction,ComponentPad*%
%ADD14R,1.700000X1.700000*%
%TD*%
%TA.AperFunction,ComponentPad*%
%ADD15C,1.000000*%
%TD*%
%TA.AperFunction,SMDPad,CuDef*%
%ADD16R,1.450000X0.450000*%
%TD*%
%TA.AperFunction,SMDPad,CuDef*%
%ADD17R,2.000000X1.600000*%
%TD*%
%TA.AperFunction,ComponentPad*%
%ADD18C,1.800000*%
%TD*%
%TA.AperFunction,ComponentPad*%
%ADD19R,1.800000X1.800000*%
%TD*%
%TA.AperFunction,ViaPad*%
%ADD20C,0.800000*%
%TD*%
%TA.AperFunction,Conductor*%
%ADD21C,0.250000*%
%TD*%
%TA.AperFunction,Conductor*%
%ADD22C,0.254000*%
%TD*%
%TA.AperFunction,Conductor*%
%ADD23C,0.100000*%
%TD*%
G04 APERTURE END LIST*
D10*
%TO.P,SW2,8*%
%TO.N,GND*%
X88450000Y-56740000D03*
%TO.P,SW2,7*%
X90970000Y-56740000D03*
%TO.P,SW2,6*%
X93470000Y-56740000D03*
%TO.P,SW2,5*%
X96070000Y-56740000D03*
%TO.P,SW2,1*%
%TO.N,Net-(R3-Pad1)*%
X88470000Y-54200000D03*
%TO.P,SW2,2*%
%TO.N,Net-(R4-Pad1)*%
X90970000Y-54200000D03*
%TO.P,SW2,3*%
%TO.N,Net-(R5-Pad1)*%
X93470000Y-54200000D03*
%TO.P,SW2,4*%
%TO.N,Net-(R6-Pad1)*%
X96070000Y-54200000D03*
%TD*%
D11*
%TO.P,BT1,1*%
%TO.N,+BATT*%
X74250000Y-45900000D03*
%TO.P,BT1,2*%
%TO.N,GND*%
X44950000Y-45900000D03*
%TD*%
D12*
%TO.P,J1,8*%
%TO.N,GND*%
X83740000Y-57000000D03*
D13*
%TO.P,J1,7*%
%TO.N,AVR_RST*%
X81740000Y-57000000D03*
%TO.P,J1,6*%
%TO.N,MOSI*%
X79740000Y-57000000D03*
%TO.P,J1,5*%
%TO.N,MISO*%
X77740000Y-57000000D03*
D12*
%TO.P,J1,4*%
%TO.N,+BATT*%
X75740000Y-57000000D03*
D13*
%TO.P,J1,3*%
%TO.N,SCK*%
X73740000Y-57000000D03*
%TO.P,J1,2*%
%TO.N,TEST*%
X71740000Y-57000000D03*
%TO.P,J1,1*%
%TO.N,MSP_RST*%
X69740000Y-57000000D03*
%TD*%
%TO.P,R9,2*%
%TO.N,+BATT*%
%TA.AperFunction,SMDPad,CuDef*%
G36*
G01*
X80480000Y-53460001D02*
X80480000Y-52559999D01*
G75*
G02*
X80729999Y-52310000I249999J0D01*
G01*
X81380001Y-52310000D01*
G75*
G02*
X81630000Y-52559999I0J-249999D01*
G01*
X81630000Y-53460001D01*
G75*
G02*
X81380001Y-53710000I-249999J0D01*
G01*
X80729999Y-53710000D01*
G75*
G02*
X80480000Y-53460001I0J249999D01*
G01*
G37*
%TD.AperFunction*%
%TO.P,R9,1*%
%TO.N,AVR_RST*%
%TA.AperFunction,SMDPad,CuDef*%
G36*
G01*
X78430000Y-53460001D02*
X78430000Y-52559999D01*
G75*
G02*
X78679999Y-52310000I249999J0D01*
G01*
X79330001Y-52310000D01*
G75*
G02*
X79580000Y-52559999I0J-249999D01*
G01*
X79580000Y-53460001D01*
G75*
G02*
X79330001Y-53710000I-249999J0D01*
G01*
X78679999Y-53710000D01*
G75*
G02*
X78430000Y-53460001I0J249999D01*
G01*
G37*
%TD.AperFunction*%
%TD*%
D10*
%TO.P,J2,6*%
%TO.N,GND*%
X52600000Y-57030000D03*
%TO.P,J2,5*%
X55140000Y-57030000D03*
%TO.P,J2,4*%
%TO.N,+BATT*%
X57680000Y-57030000D03*
%TO.P,J2,3*%
%TO.N,RX*%
X60220000Y-57030000D03*
%TO.P,J2,2*%
%TO.N,TX*%
X62760000Y-57030000D03*
D14*
%TO.P,J2,1*%
%TO.N,DTR*%
X65300000Y-57030000D03*
%TD*%
%TO.P,C5,2*%
%TO.N,AVR_RST*%
%TA.AperFunction,SMDPad,CuDef*%
G36*
G01*
X76160000Y-53550001D02*
X76160000Y-52649999D01*
G75*
G02*
X76409999Y-52400000I249999J0D01*
G01*
X77060001Y-52400000D01*
G75*
G02*
X77310000Y-52649999I0J-249999D01*
G01*
X77310000Y-53550001D01*
G75*
G02*
X77060001Y-53800000I-249999J0D01*
G01*
X76409999Y-53800000D01*
G75*
G02*
X76160000Y-53550001I0J249999D01*
G01*
G37*
%TD.AperFunction*%
%TO.P,C5,1*%
%TO.N,DTR*%
%TA.AperFunction,SMDPad,CuDef*%
G36*
G01*
X74110000Y-53550001D02*
X74110000Y-52649999D01*
G75*
G02*
X74359999Y-52400000I249999J0D01*
G01*
X75010001Y-52400000D01*
G75*
G02*
X75260000Y-52649999I0J-249999D01*
G01*
X75260000Y-53550001D01*
G75*
G02*
X75010001Y-53800000I-249999J0D01*
G01*
X74359999Y-53800000D01*
G75*
G02*
X74110000Y-53550001I0J249999D01*
G01*
G37*
%TD.AperFunction*%
%TD*%
D15*
%TO.P,Y1,2*%
%TO.N,Net-(C6-Pad1)*%
X88200000Y-37600000D03*
%TO.P,Y1,1*%
%TO.N,Net-(C7-Pad1)*%
X88200000Y-39500000D03*
%TD*%
D16*
%TO.P,U2,14*%
%TO.N,GND*%
X85510000Y-38250000D03*
%TO.P,U2,13*%
%TO.N,Net-(C6-Pad1)*%
X85510000Y-38900000D03*
%TO.P,U2,12*%
%TO.N,Net-(C7-Pad1)*%
X85510000Y-39550000D03*
%TO.P,U2,11*%
%TO.N,TEST*%
X85510000Y-40200000D03*
%TO.P,U2,10*%
%TO.N,MSP_RST*%
X85510000Y-40850000D03*
%TO.P,U2,9*%
%TO.N,Net-(R6-Pad2)*%
X85510000Y-41500000D03*
%TO.P,U2,8*%
%TO.N,Net-(R5-Pad2)*%
X85510000Y-42150000D03*
%TO.P,U2,7*%
%TO.N,Net-(R4-Pad2)*%
X79610000Y-42150000D03*
%TO.P,U2,6*%
%TO.N,Net-(R3-Pad2)*%
X79610000Y-41500000D03*
%TO.P,U2,5*%
%TO.N,Net-(U1-Pad24)*%
X79610000Y-40850000D03*
%TO.P,U2,4*%
%TO.N,Net-(U1-Pad25)*%
X79610000Y-40200000D03*
%TO.P,U2,3*%
%TO.N,Net-(U1-Pad26)*%
X79610000Y-39550000D03*
%TO.P,U2,2*%
%TO.N,Net-(U1-Pad27)*%
X79610000Y-38900000D03*
%TO.P,U2,1*%
%TO.N,+BATT*%
X79610000Y-38250000D03*
%TD*%
D17*
%TO.P,SW1,1*%
%TO.N,Net-(SW1-Pad1)*%
X85200000Y-46500000D03*
%TO.P,SW1,2*%
%TO.N,GND*%
X79800000Y-46500000D03*
%TD*%
%TO.P,R6,2*%
%TO.N,Net-(R6-Pad2)*%
%TA.AperFunction,SMDPad,CuDef*%
G36*
G01*
X96550001Y-49950000D02*
X95649999Y-49950000D01*
G75*
G02*
X95400000Y-49700001I0J249999D01*
G01*
X95400000Y-49049999D01*
G75*
G02*
X95649999Y-48800000I249999J0D01*
G01*
X96550001Y-48800000D01*
G75*
G02*
X96800000Y-49049999I0J-249999D01*
G01*
X96800000Y-49700001D01*
G75*
G02*
X96550001Y-49950000I-249999J0D01*
G01*
G37*
%TD.AperFunction*%
%TO.P,R6,1*%
%TO.N,Net-(R6-Pad1)*%
%TA.AperFunction,SMDPad,CuDef*%
G36*
G01*
X96550001Y-52000000D02*
X95649999Y-52000000D01*
G75*
G02*
X95400000Y-51750001I0J249999D01*
G01*
X95400000Y-51099999D01*
G75*
G02*
X95649999Y-50850000I249999J0D01*
G01*
X96550001Y-50850000D01*
G75*
G02*
X96800000Y-51099999I0J-249999D01*
G01*
X96800000Y-51750001D01*
G75*
G02*
X96550001Y-52000000I-249999J0D01*
G01*
G37*
%TD.AperFunction*%
%TD*%
%TO.P,R5,2*%
%TO.N,Net-(R5-Pad2)*%
%TA.AperFunction,SMDPad,CuDef*%
G36*
G01*
X93950001Y-49950000D02*
X93049999Y-49950000D01*
G75*
G02*
X92800000Y-49700001I0J249999D01*
G01*
X92800000Y-49049999D01*
G75*
G02*
X93049999Y-48800000I249999J0D01*
G01*
X93950001Y-48800000D01*
G75*
G02*
X94200000Y-49049999I0J-249999D01*
G01*
X94200000Y-49700001D01*
G75*
G02*
X93950001Y-49950000I-249999J0D01*
G01*
G37*
%TD.AperFunction*%
%TO.P,R5,1*%
%TO.N,Net-(R5-Pad1)*%
%TA.AperFunction,SMDPad,CuDef*%
G36*
G01*
X93950001Y-52000000D02*
X93049999Y-52000000D01*
G75*
G02*
X92800000Y-51750001I0J249999D01*
G01*
X92800000Y-51099999D01*
G75*
G02*
X93049999Y-50850000I249999J0D01*
G01*
X93950001Y-50850000D01*
G75*
G02*
X94200000Y-51099999I0J-249999D01*
G01*
X94200000Y-51750001D01*
G75*
G02*
X93950001Y-52000000I-249999J0D01*
G01*
G37*
%TD.AperFunction*%
%TD*%
%TO.P,R4,2*%
%TO.N,Net-(R4-Pad2)*%
%TA.AperFunction,SMDPad,CuDef*%
G36*
G01*
X91450001Y-49950000D02*
X90549999Y-49950000D01*
G75*
G02*
X90300000Y-49700001I0J249999D01*
G01*
X90300000Y-49049999D01*
G75*
G02*
X90549999Y-48800000I249999J0D01*
G01*
X91450001Y-48800000D01*
G75*
G02*
X91700000Y-49049999I0J-249999D01*
G01*
X91700000Y-49700001D01*
G75*
G02*
X91450001Y-49950000I-249999J0D01*
G01*
G37*
%TD.AperFunction*%
%TO.P,R4,1*%
%TO.N,Net-(R4-Pad1)*%
%TA.AperFunction,SMDPad,CuDef*%
G36*
G01*
X91450001Y-52000000D02*
X90549999Y-52000000D01*
G75*
G02*
X90300000Y-51750001I0J249999D01*
G01*
X90300000Y-51099999D01*
G75*
G02*
X90549999Y-50850000I249999J0D01*
G01*
X91450001Y-50850000D01*
G75*
G02*
X91700000Y-51099999I0J-249999D01*
G01*
X91700000Y-51750001D01*
G75*
G02*
X91450001Y-52000000I-249999J0D01*
G01*
G37*
%TD.AperFunction*%
%TD*%
%TO.P,R3,2*%
%TO.N,Net-(R3-Pad2)*%
%TA.AperFunction,SMDPad,CuDef*%
G36*
G01*
X88950001Y-49950000D02*
X88049999Y-49950000D01*
G75*
G02*
X87800000Y-49700001I0J249999D01*
G01*
X87800000Y-49049999D01*
G75*
G02*
X88049999Y-48800000I249999J0D01*
G01*
X88950001Y-48800000D01*
G75*
G02*
X89200000Y-49049999I0J-249999D01*
G01*
X89200000Y-49700001D01*
G75*
G02*
X88950001Y-49950000I-249999J0D01*
G01*
G37*
%TD.AperFunction*%
%TO.P,R3,1*%
%TO.N,Net-(R3-Pad1)*%
%TA.AperFunction,SMDPad,CuDef*%
G36*
G01*
X88950001Y-52000000D02*
X88049999Y-52000000D01*
G75*
G02*
X87800000Y-51750001I0J249999D01*
G01*
X87800000Y-51099999D01*
G75*
G02*
X88049999Y-50850000I249999J0D01*
G01*
X88950001Y-50850000D01*
G75*
G02*
X89200000Y-51099999I0J-249999D01*
G01*
X89200000Y-51750001D01*
G75*
G02*
X88950001Y-52000000I-249999J0D01*
G01*
G37*
%TD.AperFunction*%
%TD*%
%TO.P,R2,2*%
%TO.N,Net-(R2-Pad2)*%
%TA.AperFunction,SMDPad,CuDef*%
G36*
G01*
X91850000Y-44649999D02*
X91850000Y-45550001D01*
G75*
G02*
X91600001Y-45800000I-249999J0D01*
G01*
X90949999Y-45800000D01*
G75*
G02*
X90700000Y-45550001I0J249999D01*
G01*
X90700000Y-44649999D01*
G75*
G02*
X90949999Y-44400000I249999J0D01*
G01*
X91600001Y-44400000D01*
G75*
G02*
X91850000Y-44649999I0J-249999D01*
G01*
G37*
%TD.AperFunction*%
%TO.P,R2,1*%
%TO.N,Net-(D1-Pad1)*%
%TA.AperFunction,SMDPad,CuDef*%
G36*
G01*
X93900000Y-44649999D02*
X93900000Y-45550001D01*
G75*
G02*
X93650001Y-45800000I-249999J0D01*
G01*
X92999999Y-45800000D01*
G75*
G02*
X92750000Y-45550001I0J249999D01*
G01*
X92750000Y-44649999D01*
G75*
G02*
X92999999Y-44400000I249999J0D01*
G01*
X93650001Y-44400000D01*
G75*
G02*
X93900000Y-44649999I0J-249999D01*
G01*
G37*
%TD.AperFunction*%
%TD*%
%TO.P,R1,2*%
%TO.N,Net-(R1-Pad2)*%
%TA.AperFunction,SMDPad,CuDef*%
G36*
G01*
X91750000Y-41449999D02*
X91750000Y-42350001D01*
G75*
G02*
X91500001Y-42600000I-249999J0D01*
G01*
X90849999Y-42600000D01*
G75*
G02*
X90600000Y-42350001I0J249999D01*
G01*
X90600000Y-41449999D01*
G75*
G02*
X90849999Y-41200000I249999J0D01*
G01*
X91500001Y-41200000D01*
G75*
G02*
X91750000Y-41449999I0J-249999D01*
G01*
G37*
%TD.AperFunction*%
%TO.P,R1,1*%
%TO.N,Net-(D1-Pad3)*%
%TA.AperFunction,SMDPad,CuDef*%
G36*
G01*
X93800000Y-41449999D02*
X93800000Y-42350001D01*
G75*
G02*
X93550001Y-42600000I-249999J0D01*
G01*
X92899999Y-42600000D01*
G75*
G02*
X92650000Y-42350001I0J249999D01*
G01*
X92650000Y-41449999D01*
G75*
G02*
X92899999Y-41200000I249999J0D01*
G01*
X93550001Y-41200000D01*
G75*
G02*
X93800000Y-41449999I0J-249999D01*
G01*
G37*
%TD.AperFunction*%
%TD*%
D18*
%TO.P,D1,3*%
%TO.N,Net-(D1-Pad3)*%
X96660000Y-41910000D03*
%TO.P,D1,2*%
%TO.N,GND*%
X96660000Y-44450000D03*
D19*
%TO.P,D1,1*%
%TO.N,Net-(D1-Pad1)*%
X96660000Y-46990000D03*
%TD*%
%TO.P,C4,2*%
%TO.N,GND*%
%TA.AperFunction,SMDPad,CuDef*%
G36*
G01*
X82750000Y-36850001D02*
X82750000Y-35949999D01*
G75*
G02*
X82999999Y-35700000I249999J0D01*
G01*
X83650001Y-35700000D01*
G75*
G02*
X83900000Y-35949999I0J-249999D01*
G01*
X83900000Y-36850001D01*
G75*
G02*
X83650001Y-37100000I-249999J0D01*
G01*
X82999999Y-37100000D01*
G75*
G02*
X82750000Y-36850001I0J249999D01*
G01*
G37*
%TD.AperFunction*%
%TO.P,C4,1*%
%TO.N,+BATT*%
%TA.AperFunction,SMDPad,CuDef*%
G36*
G01*
X80700000Y-36850001D02*
X80700000Y-35949999D01*
G75*
G02*
X80949999Y-35700000I249999J0D01*
G01*
X81600001Y-35700000D01*
G75*
G02*
X81850000Y-35949999I0J-249999D01*
G01*
X81850000Y-36850001D01*
G75*
G02*
X81600001Y-37100000I-249999J0D01*
G01*
X80949999Y-37100000D01*
G75*
G02*
X80700000Y-36850001I0J249999D01*
G01*
G37*
%TD.AperFunction*%
%TD*%
D20*
%TO.N,+BATT*%
X74635300Y-42957000D03*
%TO.N,GND*%
X83307700Y-46362300D03*
X49000000Y-42000000D03*
X49000000Y-43500000D03*
X49000000Y-45000000D03*
X49000000Y-46500000D03*
X49000000Y-48000000D03*
X49000000Y-49500000D03*
X85500000Y-36500000D03*
X95490000Y-38370000D03*
%TO.N,Net-(D2-Pad2)*%
X71717900Y-41533000D03*
X67098500Y-47995200D03*
%TO.N,Net-(R1-Pad2)*%
X84105500Y-52542600D03*
%TO.N,Net-(R2-Pad2)*%
X83466200Y-49488500D03*
%TO.N,CC1101_PWR*%
X80480700Y-51496600D03*
X76387500Y-50757800D03*
%TO.N,Net-(SW1-Pad1)*%
X84388600Y-44796500D03*
%TO.N,Net-(U1-Pad27)*%
X81382800Y-38911000D03*
%TO.N,Net-(U1-Pad26)*%
X82530900Y-39516300D03*
%TO.N,Net-(U1-Pad25)*%
X83213600Y-40249400D03*
%TO.N,Net-(U1-Pad24)*%
X83258800Y-41709900D03*
%TO.N,SCK*%
X75190300Y-49903300D03*
%TO.N,MISO*%
X77376400Y-50316000D03*
%TO.N,MOSI*%
X78195900Y-49492800D03*
X75114300Y-58339400D03*
%TO.N,AVR_RST*%
X94756900Y-57680200D03*
%TO.N,TEST*%
X61660000Y-50565200D03*
X70636000Y-55888900D03*
%TO.N,MSP_RST*%
X92190000Y-48441400D03*
X69416200Y-55724000D03*
%TO.N,RX*%
X85443700Y-44350000D03*
%TO.N,TX*%
X82587500Y-44733700D03*
%TD*%
D21*
%TO.N,+BATT*%
X74635300Y-42957000D02*
X74250000Y-43342300D01*
X74250000Y-43342300D02*
X74250000Y-45900000D01*
X78559700Y-38250000D02*
X74635300Y-42174400D01*
X74635300Y-42174400D02*
X74635300Y-42957000D01*
X58855300Y-57030000D02*
X58855300Y-56662700D01*
X58855300Y-56662700D02*
X66797500Y-48720500D01*
X66797500Y-48720500D02*
X67399000Y-48720500D01*
X67399000Y-48720500D02*
X70219500Y-45900000D01*
X70219500Y-45900000D02*
X74250000Y-45900000D01*
X81055000Y-53010000D02*
X78609100Y-55455900D01*
X78609100Y-55455900D02*
X77284100Y-55455900D01*
X77284100Y-55455900D02*
X75740000Y-57000000D01*
X79610000Y-38250000D02*
X80660300Y-38250000D01*
X79610000Y-38250000D02*
X78559700Y-38250000D01*
X81275000Y-36400000D02*
X80660300Y-37014700D01*
X80660300Y-37014700D02*
X80660300Y-38250000D01*
X75740000Y-57000000D02*
X75428000Y-57000000D01*
X75428000Y-57000000D02*
X74186100Y-58241900D01*
X74186100Y-58241900D02*
X59699900Y-58241900D01*
X59699900Y-58241900D02*
X58855300Y-57397300D01*
X58855300Y-57397300D02*
X58855300Y-57030000D01*
X57680000Y-57030000D02*
X58855300Y-57030000D01*
%TO.N,GND*%
X96660000Y-44450000D02*
X95293100Y-43083100D01*
X95293100Y-43083100D02*
X92795100Y-43083100D01*
X92795100Y-43083100D02*
X92310300Y-42598300D01*
X92310300Y-42598300D02*
X92310300Y-40535000D01*
X83740000Y-55999700D02*
X83349900Y-55609600D01*
X83349900Y-50655500D02*
X82028600Y-49334200D01*
X82028600Y-49334200D02*
X82028600Y-47625300D01*
X93470000Y-56740000D02*
X92294700Y-56740000D01*
X90970000Y-56700000D02*
X92254700Y-56700000D01*
X92254700Y-56700000D02*
X92294700Y-56740000D01*
X82028600Y-47625300D02*
X83291600Y-46362300D01*
X83291600Y-46362300D02*
X83307700Y-46362300D01*
X83740000Y-57000000D02*
X83740000Y-55999700D01*
X88450000Y-56740000D02*
X87274700Y-56740000D01*
X87274700Y-56740000D02*
X87014700Y-57000000D01*
X87014700Y-57000000D02*
X83740000Y-57000000D01*
X85510000Y-38250000D02*
X84459700Y-38250000D01*
X83325000Y-36400000D02*
X83325000Y-37115300D01*
X83325000Y-37115300D02*
X84459700Y-38250000D01*
X79800000Y-46500000D02*
X79800000Y-47625300D01*
X52600000Y-57030000D02*
X52600000Y-55854700D01*
X44950000Y-45900000D02*
X46575300Y-45900000D01*
X46575300Y-49830000D02*
X52600000Y-55854700D01*
X55140000Y-57030000D02*
X52600000Y-57030000D01*
X93470000Y-56740000D02*
X96090000Y-56740000D01*
%TO.N,Net-(D1-Pad3)*%
X96660000Y-41910000D02*
X93235000Y-41910000D01*
X93235000Y-41910000D02*
X93225000Y-41900000D01*
%TO.N,Net-(D1-Pad1)*%
X93325000Y-45100000D02*
X95215000Y-46990000D01*
X95215000Y-46990000D02*
X95434700Y-46990000D01*
X96660000Y-46990000D02*
X95434700Y-46990000D01*
%TO.N,Net-(D2-Pad2)*%
X67098500Y-47995200D02*
X67098500Y-46152400D01*
X67098500Y-46152400D02*
X71717900Y-41533000D01*
%TO.N,Net-(R1-Pad2)*%
X91175000Y-41900000D02*
X91175000Y-42104200D01*
X91175000Y-42104200D02*
X92715000Y-43644200D01*
X92715000Y-43644200D02*
X93854000Y-43644200D01*
X93854000Y-43644200D02*
X95974400Y-45764600D01*
X95974400Y-45764600D02*
X97732800Y-45764600D01*
X97732800Y-45764600D02*
X97917700Y-45949500D01*
X97917700Y-45949500D02*
X97917700Y-49160700D01*
X97917700Y-49160700D02*
X96573000Y-50505400D01*
X96573000Y-50505400D02*
X95367900Y-50505400D01*
X95367900Y-50505400D02*
X94695400Y-51177900D01*
X94695400Y-51177900D02*
X94695400Y-54636900D01*
X94695400Y-54636900D02*
X93943300Y-55389000D01*
X93943300Y-55389000D02*
X86951900Y-55389000D01*
X86951900Y-55389000D02*
X84105500Y-52542600D01*
%TO.N,Net-(R2-Pad2)*%
X91275000Y-45100000D02*
X91275000Y-45337300D01*
X91275000Y-45337300D02*
X94545500Y-48607800D01*
X94545500Y-48607800D02*
X94545500Y-49922800D01*
X94545500Y-49922800D02*
X94188000Y-50280300D01*
X94188000Y-50280300D02*
X84258000Y-50280300D01*
X84258000Y-50280300D02*
X83466200Y-49488500D01*
%TO.N,Net-(R3-Pad2)*%
X79610000Y-41500000D02*
X78559700Y-41500000D01*
X88500000Y-49375000D02*
X88500000Y-46372000D01*
X88500000Y-46372000D02*
X85728900Y-43600900D01*
X85728900Y-43600900D02*
X83805300Y-43600900D01*
X83805300Y-43600900D02*
X83392700Y-43188300D01*
X83392700Y-43188300D02*
X79156000Y-43188300D01*
X79156000Y-43188300D02*
X78559700Y-42592000D01*
X78559700Y-42592000D02*
X78559700Y-41500000D01*
%TO.N,Net-(R3-Pad1)*%
X88500000Y-51425000D02*
X88470000Y-51455000D01*
X88470000Y-51455000D02*
X88470000Y-54200000D01*
%TO.N,Net-(R4-Pad2)*%
X91000000Y-49375000D02*
X91000000Y-48235100D01*
X91000000Y-48235100D02*
X85915500Y-43150600D01*
X85915500Y-43150600D02*
X83991900Y-43150600D01*
X83991900Y-43150600D02*
X83420000Y-42578700D01*
X83420000Y-42578700D02*
X81089000Y-42578700D01*
X81089000Y-42578700D02*
X80660300Y-42150000D01*
X79610000Y-42150000D02*
X80660300Y-42150000D01*
%TO.N,Net-(R4-Pad1)*%
X91000000Y-51425000D02*
X90970000Y-51455000D01*
X90970000Y-51455000D02*
X90970000Y-54200000D01*
%TO.N,Net-(R5-Pad2)*%
X93500000Y-49375000D02*
X93500000Y-48685700D01*
X93500000Y-48685700D02*
X92482700Y-47668400D01*
X92482700Y-47668400D02*
X92078700Y-47668400D01*
X92078700Y-47668400D02*
X86560300Y-42150000D01*
X85510000Y-42150000D02*
X86560300Y-42150000D01*
%TO.N,Net-(R5-Pad1)*%
X93500000Y-51425000D02*
X93470000Y-51455000D01*
X93470000Y-51455000D02*
X93470000Y-54200000D01*
%TO.N,Net-(R6-Pad2)*%
X96100000Y-49375000D02*
X95949600Y-49375000D01*
X95949600Y-49375000D02*
X92300000Y-45725400D01*
X92300000Y-45725400D02*
X92300000Y-44478700D01*
X92300000Y-44478700D02*
X91371300Y-43550000D01*
X91371300Y-43550000D02*
X89677900Y-43550000D01*
X89677900Y-43550000D02*
X87627900Y-41500000D01*
X87627900Y-41500000D02*
X85510000Y-41500000D01*
%TO.N,Net-(R6-Pad1)*%
X96100000Y-51425000D02*
X96070000Y-51455000D01*
X96070000Y-51455000D02*
X96070000Y-54200000D01*
%TO.N,CC1101_PWR*%
X80480700Y-51496600D02*
X77126300Y-51496600D01*
X77126300Y-51496600D02*
X76387500Y-50757800D01*
%TO.N,Net-(SW1-Pad1)*%
X85200000Y-46500000D02*
X85200000Y-45374700D01*
X85200000Y-45374700D02*
X84966800Y-45374700D01*
X84966800Y-45374700D02*
X84388600Y-44796500D01*
%TO.N,Net-(U1-Pad27)*%
X79610000Y-38900000D02*
X80660300Y-38900000D01*
X81382800Y-38911000D02*
X80671300Y-38911000D01*
X80671300Y-38911000D02*
X80660300Y-38900000D01*
%TO.N,Net-(U1-Pad26)*%
X80660300Y-39550000D02*
X80759900Y-39649600D01*
X80759900Y-39649600D02*
X82397600Y-39649600D01*
X82397600Y-39649600D02*
X82530900Y-39516300D01*
X79610000Y-39550000D02*
X80660300Y-39550000D01*
%TO.N,Net-(U1-Pad25)*%
X80660300Y-40200000D02*
X80709700Y-40249400D01*
X80709700Y-40249400D02*
X83213600Y-40249400D01*
X79610000Y-40200000D02*
X80660300Y-40200000D01*
%TO.N,Net-(U1-Pad24)*%
X79610000Y-40850000D02*
X82398900Y-40850000D01*
X82398900Y-40850000D02*
X83258800Y-41709900D01*
%TO.N,SCK*%
X73740000Y-55999700D02*
X75616900Y-54122800D01*
X75616900Y-54122800D02*
X75616900Y-52286900D01*
X75616900Y-52286900D02*
X75190300Y-51860300D01*
X75190300Y-51860300D02*
X75190300Y-49903300D01*
X73740000Y-57000000D02*
X73740000Y-55999700D01*
%TO.N,MISO*%
X77740000Y-57000000D02*
X79784500Y-54955500D01*
X79784500Y-54955500D02*
X80704600Y-54955500D01*
X80704600Y-54955500D02*
X81993300Y-53666800D01*
X81993300Y-53666800D02*
X81993300Y-51901500D01*
X81993300Y-51901500D02*
X80407800Y-50316000D01*
X80407800Y-50316000D02*
X77376400Y-50316000D01*
%TO.N,MOSI*%
X79740000Y-55999700D02*
X80297300Y-55999700D01*
X80297300Y-55999700D02*
X82443600Y-53853400D01*
X82443600Y-53853400D02*
X82443600Y-51714900D01*
X82443600Y-51714900D02*
X80221500Y-49492800D01*
X80221500Y-49492800D02*
X78195900Y-49492800D01*
X79740000Y-57000000D02*
X79740000Y-55999700D01*
X75114300Y-58339400D02*
X78400600Y-58339400D01*
X78400600Y-58339400D02*
X79740000Y-57000000D01*
%TO.N,AVR_RST*%
X81740000Y-55999700D02*
X82893900Y-54845800D01*
X82893900Y-54845800D02*
X82893900Y-51528300D01*
X82893900Y-51528300D02*
X80131600Y-48766000D01*
X80131600Y-48766000D02*
X77353400Y-48766000D01*
X77353400Y-48766000D02*
X75640600Y-50478800D01*
X75640600Y-50478800D02*
X75640600Y-51036600D01*
X75640600Y-51036600D02*
X76735000Y-52131000D01*
X76735000Y-52131000D02*
X76735000Y-53010000D01*
X94756900Y-57680200D02*
X94401000Y-58036100D01*
X94401000Y-58036100D02*
X82776100Y-58036100D01*
X82776100Y-58036100D02*
X81740000Y-57000000D01*
X76735000Y-53010000D02*
X76735000Y-53100000D01*
X79005000Y-53010000D02*
X76735000Y-53010000D01*
X81740000Y-57000000D02*
X81740000Y-55999700D01*
%TO.N,TEST*%
X84459700Y-40200000D02*
X82300000Y-38040300D01*
X82300000Y-38040300D02*
X82300000Y-35835300D01*
X82300000Y-35835300D02*
X81819200Y-35354500D01*
X81819200Y-35354500D02*
X76870700Y-35354500D01*
X76870700Y-35354500D02*
X61660000Y-50565200D01*
X71740000Y-57000000D02*
X71740000Y-55999700D01*
X85510000Y-40200000D02*
X84459700Y-40200000D01*
X71740000Y-55999700D02*
X70746800Y-55999700D01*
X70746800Y-55999700D02*
X70636000Y-55888900D01*
%TO.N,MSP_RST*%
X92190000Y-48441400D02*
X86448900Y-42700300D01*
X86448900Y-42700300D02*
X84641300Y-42700300D01*
X84641300Y-42700300D02*
X84459700Y-42518700D01*
X84459700Y-42518700D02*
X84459700Y-40850000D01*
X85510000Y-40850000D02*
X84459700Y-40850000D01*
X69740000Y-55999700D02*
X69464300Y-55724000D01*
X69464300Y-55724000D02*
X69416200Y-55724000D01*
X69740000Y-57000000D02*
X69740000Y-55999700D01*
%TO.N,DTR*%
X65300000Y-57030000D02*
X66475300Y-57030000D01*
X66475300Y-57030000D02*
X70405300Y-53100000D01*
X70405300Y-53100000D02*
X74685000Y-53100000D01*
%TO.N,RX*%
X61395300Y-57030000D02*
X61395300Y-56662700D01*
X61395300Y-56662700D02*
X70032700Y-48025300D01*
X70032700Y-48025300D02*
X75759700Y-48025300D01*
X75759700Y-48025300D02*
X75976800Y-47808200D01*
X75976800Y-47808200D02*
X75976800Y-47392300D01*
X75976800Y-47392300D02*
X79379000Y-43990100D01*
X79379000Y-43990100D02*
X83557500Y-43990100D01*
X83557500Y-43990100D02*
X83618600Y-44051200D01*
X83618600Y-44051200D02*
X85144900Y-44051200D01*
X85144900Y-44051200D02*
X85443700Y-44350000D01*
X60220000Y-57030000D02*
X61395300Y-57030000D01*
%TO.N,TX*%
X82587500Y-44733700D02*
X79282700Y-44733700D01*
X79282700Y-44733700D02*
X78446200Y-45570200D01*
X78446200Y-45570200D02*
X78446200Y-45975700D01*
X78446200Y-45975700D02*
X75891900Y-48530000D01*
X75891900Y-48530000D02*
X71627300Y-48530000D01*
X71627300Y-48530000D02*
X63935300Y-56222000D01*
X63935300Y-56222000D02*
X63935300Y-57030000D01*
X62760000Y-57030000D02*
X63935300Y-57030000D01*
%TO.N,Net-(C6-Pad1)*%
X85510000Y-38900000D02*
X86900000Y-38900000D01*
X86900000Y-38900000D02*
X88200000Y-37600000D01*
%TO.N,Net-(C7-Pad1)*%
X85510000Y-39550000D02*
X86560300Y-39550000D01*
X88200000Y-39500000D02*
X86610300Y-39500000D01*
X86610300Y-39500000D02*
X86560300Y-39550000D01*
%TD*%
D22*
%TO.N,GND*%
X61620199Y-49530200D02*
X61558061Y-49530200D01*
X61358102Y-49569974D01*
X61169744Y-49647995D01*
X61000226Y-49761263D01*
X60856063Y-49905426D01*
X60742795Y-50074944D01*
X60664774Y-50263302D01*
X60625000Y-50463261D01*
X60625000Y-50667139D01*
X60664774Y-50867098D01*
X60742795Y-51055456D01*
X60856063Y-51224974D01*
X61000226Y-51369137D01*
X61169744Y-51482405D01*
X61358102Y-51560426D01*
X61558061Y-51600200D01*
X61761939Y-51600200D01*
X61961898Y-51560426D01*
X62150256Y-51482405D01*
X62319774Y-51369137D01*
X62463937Y-51224974D01*
X62577205Y-51055456D01*
X62655226Y-50867098D01*
X62695000Y-50667139D01*
X62695000Y-50605001D01*
X66338501Y-46961501D01*
X66338500Y-47291489D01*
X66294563Y-47335426D01*
X66181295Y-47504944D01*
X66103274Y-47693302D01*
X66063500Y-47893261D01*
X66063500Y-48097139D01*
X66103274Y-48297098D01*
X66115818Y-48327381D01*
X58590690Y-55852509D01*
X58383411Y-55714010D01*
X58113158Y-55602068D01*
X57826260Y-55545000D01*
X57533740Y-55545000D01*
X57246842Y-55602068D01*
X56976589Y-55714010D01*
X56733368Y-55876525D01*
X56526525Y-56083368D01*
X56404805Y-56265534D01*
X56335178Y-56148645D01*
X56140269Y-55932412D01*
X55906920Y-55758359D01*
X55644099Y-55633175D01*
X55496890Y-55588524D01*
X55267000Y-55709845D01*
X55267000Y-56903000D01*
X55287000Y-56903000D01*
X55287000Y-57157000D01*
X55267000Y-57157000D01*
X55267000Y-57177000D01*
X55013000Y-57177000D01*
X55013000Y-57157000D01*
X52727000Y-57157000D01*
X52727000Y-57177000D01*
X52473000Y-57177000D01*
X52473000Y-57157000D01*
X51279186Y-57157000D01*
X51158519Y-57386891D01*
X51255843Y-57661252D01*
X51404822Y-57911355D01*
X51599731Y-58127588D01*
X51833080Y-58301641D01*
X51913615Y-58340001D01*
X43122289Y-58340001D01*
X43007094Y-58328706D01*
X42927344Y-58304628D01*
X42853795Y-58265521D01*
X42789237Y-58212869D01*
X42736139Y-58148684D01*
X42696518Y-58075406D01*
X42671885Y-57995829D01*
X42660001Y-57882759D01*
X42660001Y-56673109D01*
X51158519Y-56673109D01*
X51279186Y-56903000D01*
X52473000Y-56903000D01*
X52473000Y-55709845D01*
X52727000Y-55709845D01*
X52727000Y-56903000D01*
X55013000Y-56903000D01*
X55013000Y-55709845D01*
X54783110Y-55588524D01*
X54635901Y-55633175D01*
X54373080Y-55758359D01*
X54139731Y-55932412D01*
X53944822Y-56148645D01*
X53870000Y-56274255D01*
X53795178Y-56148645D01*
X53600269Y-55932412D01*
X53366920Y-55758359D01*
X53104099Y-55633175D01*
X52956890Y-55588524D01*
X52727000Y-55709845D01*
X52473000Y-55709845D01*
X52243110Y-55588524D01*
X52095901Y-55633175D01*
X51833080Y-55758359D01*
X51599731Y-55932412D01*
X51404822Y-56148645D01*
X51255843Y-56398748D01*
X51158519Y-56673109D01*
X42660001Y-56673109D01*
X42660000Y-47700000D01*
X43011928Y-47700000D01*
X43024188Y-47824482D01*
X43060498Y-47944180D01*
X43119463Y-48054494D01*
X43198815Y-48151185D01*
X43295506Y-48230537D01*
X43405820Y-48289502D01*
X43525518Y-48325812D01*
X43650000Y-48338072D01*
X44664250Y-48335000D01*
X44823000Y-48176250D01*
X44823000Y-46027000D01*
X45077000Y-46027000D01*
X45077000Y-48176250D01*
X45235750Y-48335000D01*
X46250000Y-48338072D01*
X46374482Y-48325812D01*
X46494180Y-48289502D01*
X46604494Y-48230537D01*
X46701185Y-48151185D01*
X46780537Y-48054494D01*
X46839502Y-47944180D01*
X46875812Y-47824482D01*
X46888072Y-47700000D01*
X46885000Y-46185750D01*
X46726250Y-46027000D01*
X45077000Y-46027000D01*
X44823000Y-46027000D01*
X43173750Y-46027000D01*
X43015000Y-46185750D01*
X43011928Y-47700000D01*
X42660000Y-47700000D01*
X42660000Y-44100000D01*
X43011928Y-44100000D01*
X43015000Y-45614250D01*
X43173750Y-45773000D01*
X44823000Y-45773000D01*
X44823000Y-43623750D01*
X45077000Y-43623750D01*
X45077000Y-45773000D01*
X46726250Y-45773000D01*
X46885000Y-45614250D01*
X46888072Y-44100000D01*
X46875812Y-43975518D01*
X46839502Y-43855820D01*
X46780537Y-43745506D01*
X46701185Y-43648815D01*
X46604494Y-43569463D01*
X46494180Y-43510498D01*
X46374482Y-43474188D01*
X46250000Y-43461928D01*
X45235750Y-43465000D01*
X45077000Y-43623750D01*
X44823000Y-43623750D01*
X44664250Y-43465000D01*
X43650000Y-43461928D01*
X43525518Y-43474188D01*
X43405820Y-43510498D01*
X43295506Y-43569463D01*
X43198815Y-43648815D01*
X43119463Y-43745506D01*
X43060498Y-43855820D01*
X43024188Y-43975518D01*
X43011928Y-44100000D01*
X42660000Y-44100000D01*
X42659998Y-36122288D01*
X42671293Y-36007094D01*
X42695371Y-35927343D01*
X42734479Y-35853792D01*
X42787130Y-35789236D01*
X42851315Y-35736138D01*
X42924592Y-35696517D01*
X43004171Y-35671884D01*
X43117239Y-35660000D01*
X75490398Y-35660000D01*
X61620199Y-49530200D01*
%TA.AperFunction,Conductor*%
D23*
G36*
X61620199Y-49530200D02*
G01*
X61558061Y-49530200D01*
X61358102Y-49569974D01*
X61169744Y-49647995D01*
X61000226Y-49761263D01*
X60856063Y-49905426D01*
X60742795Y-50074944D01*
X60664774Y-50263302D01*
X60625000Y-50463261D01*
X60625000Y-50667139D01*
X60664774Y-50867098D01*
X60742795Y-51055456D01*
X60856063Y-51224974D01*
X61000226Y-51369137D01*
X61169744Y-51482405D01*
X61358102Y-51560426D01*
X61558061Y-51600200D01*
X61761939Y-51600200D01*
X61961898Y-51560426D01*
X62150256Y-51482405D01*
X62319774Y-51369137D01*
X62463937Y-51224974D01*
X62577205Y-51055456D01*
X62655226Y-50867098D01*
X62695000Y-50667139D01*
X62695000Y-50605001D01*
X66338501Y-46961501D01*
X66338500Y-47291489D01*
X66294563Y-47335426D01*
X66181295Y-47504944D01*
X66103274Y-47693302D01*
X66063500Y-47893261D01*
X66063500Y-48097139D01*
X66103274Y-48297098D01*
X66115818Y-48327381D01*
X58590690Y-55852509D01*
X58383411Y-55714010D01*
X58113158Y-55602068D01*
X57826260Y-55545000D01*
X57533740Y-55545000D01*
X57246842Y-55602068D01*
X56976589Y-55714010D01*
X56733368Y-55876525D01*
X56526525Y-56083368D01*
X56404805Y-56265534D01*
X56335178Y-56148645D01*
X56140269Y-55932412D01*
X55906920Y-55758359D01*
X55644099Y-55633175D01*
X55496890Y-55588524D01*
X55267000Y-55709845D01*
X55267000Y-56903000D01*
X55287000Y-56903000D01*
X55287000Y-57157000D01*
X55267000Y-57157000D01*
X55267000Y-57177000D01*
X55013000Y-57177000D01*
X55013000Y-57157000D01*
X52727000Y-57157000D01*
X52727000Y-57177000D01*
X52473000Y-57177000D01*
X52473000Y-57157000D01*
X51279186Y-57157000D01*
X51158519Y-57386891D01*
X51255843Y-57661252D01*
X51404822Y-57911355D01*
X51599731Y-58127588D01*
X51833080Y-58301641D01*
X51913615Y-58340001D01*
X43122289Y-58340001D01*
X43007094Y-58328706D01*
X42927344Y-58304628D01*
X42853795Y-58265521D01*
X42789237Y-58212869D01*
X42736139Y-58148684D01*
X42696518Y-58075406D01*
X42671885Y-57995829D01*
X42660001Y-57882759D01*
X42660001Y-56673109D01*
X51158519Y-56673109D01*
X51279186Y-56903000D01*
X52473000Y-56903000D01*
X52473000Y-55709845D01*
X52727000Y-55709845D01*
X52727000Y-56903000D01*
X55013000Y-56903000D01*
X55013000Y-55709845D01*
X54783110Y-55588524D01*
X54635901Y-55633175D01*
X54373080Y-55758359D01*
X54139731Y-55932412D01*
X53944822Y-56148645D01*
X53870000Y-56274255D01*
X53795178Y-56148645D01*
X53600269Y-55932412D01*
X53366920Y-55758359D01*
X53104099Y-55633175D01*
X52956890Y-55588524D01*
X52727000Y-55709845D01*
X52473000Y-55709845D01*
X52243110Y-55588524D01*
X52095901Y-55633175D01*
X51833080Y-55758359D01*
X51599731Y-55932412D01*
X51404822Y-56148645D01*
X51255843Y-56398748D01*
X51158519Y-56673109D01*
X42660001Y-56673109D01*
X42660000Y-47700000D01*
X43011928Y-47700000D01*
X43024188Y-47824482D01*
X43060498Y-47944180D01*
X43119463Y-48054494D01*
X43198815Y-48151185D01*
X43295506Y-48230537D01*
X43405820Y-48289502D01*
X43525518Y-48325812D01*
X43650000Y-48338072D01*
X44664250Y-48335000D01*
X44823000Y-48176250D01*
X44823000Y-46027000D01*
X45077000Y-46027000D01*
X45077000Y-48176250D01*
X45235750Y-48335000D01*
X46250000Y-48338072D01*
X46374482Y-48325812D01*
X46494180Y-48289502D01*
X46604494Y-48230537D01*
X46701185Y-48151185D01*
X46780537Y-48054494D01*
X46839502Y-47944180D01*
X46875812Y-47824482D01*
X46888072Y-47700000D01*
X46885000Y-46185750D01*
X46726250Y-46027000D01*
X45077000Y-46027000D01*
X44823000Y-46027000D01*
X43173750Y-46027000D01*
X43015000Y-46185750D01*
X43011928Y-47700000D01*
X42660000Y-47700000D01*
X42660000Y-44100000D01*
X43011928Y-44100000D01*
X43015000Y-45614250D01*
X43173750Y-45773000D01*
X44823000Y-45773000D01*
X44823000Y-43623750D01*
X45077000Y-43623750D01*
X45077000Y-45773000D01*
X46726250Y-45773000D01*
X46885000Y-45614250D01*
X46888072Y-44100000D01*
X46875812Y-43975518D01*
X46839502Y-43855820D01*
X46780537Y-43745506D01*
X46701185Y-43648815D01*
X46604494Y-43569463D01*
X46494180Y-43510498D01*
X46374482Y-43474188D01*
X46250000Y-43461928D01*
X45235750Y-43465000D01*
X45077000Y-43623750D01*
X44823000Y-43623750D01*
X44664250Y-43465000D01*
X43650000Y-43461928D01*
X43525518Y-43474188D01*
X43405820Y-43510498D01*
X43295506Y-43569463D01*
X43198815Y-43648815D01*
X43119463Y-43745506D01*
X43060498Y-43855820D01*
X43024188Y-43975518D01*
X43011928Y-44100000D01*
X42660000Y-44100000D01*
X42659998Y-36122288D01*
X42671293Y-36007094D01*
X42695371Y-35927343D01*
X42734479Y-35853792D01*
X42787130Y-35789236D01*
X42851315Y-35736138D01*
X42924592Y-35696517D01*
X43004171Y-35671884D01*
X43117239Y-35660000D01*
X75490398Y-35660000D01*
X61620199Y-49530200D01*
G37*
%TD.AperFunction*%
D22*
X98340001Y-57877711D02*
X98328706Y-57992906D01*
X98304628Y-58072656D01*
X98265521Y-58146205D01*
X98212869Y-58210763D01*
X98148684Y-58263861D01*
X98075406Y-58303482D01*
X97995829Y-58328115D01*
X97882759Y-58339999D01*
X95560812Y-58339999D01*
X95560837Y-58339974D01*
X95674105Y-58170456D01*
X95674403Y-58169736D01*
X95713110Y-58181476D01*
X95943000Y-58060155D01*
X95943000Y-56867000D01*
X96197000Y-56867000D01*
X96197000Y-58060155D01*
X96426890Y-58181476D01*
X96574099Y-58136825D01*
X96836920Y-58011641D01*
X97070269Y-57837588D01*
X97265178Y-57621355D01*
X97414157Y-57371252D01*
X97511481Y-57096891D01*
X97390814Y-56867000D01*
X96197000Y-56867000D01*
X95943000Y-56867000D01*
X95923000Y-56867000D01*
X95923000Y-56613000D01*
X95943000Y-56613000D01*
X95943000Y-56593000D01*
X96197000Y-56593000D01*
X96197000Y-56613000D01*
X97390814Y-56613000D01*
X97511481Y-56383109D01*
X97414157Y-56108748D01*
X97265178Y-55858645D01*
X97070269Y-55642412D01*
X96840594Y-55471100D01*
X97016632Y-55353475D01*
X97223475Y-55146632D01*
X97385990Y-54903411D01*
X97497932Y-54633158D01*
X97555000Y-54346260D01*
X97555000Y-54053740D01*
X97497932Y-53766842D01*
X97385990Y-53496589D01*
X97223475Y-53253368D01*
X97016632Y-53046525D01*
X96830000Y-52921822D01*
X96830000Y-52588627D01*
X96889851Y-52570472D01*
X97043387Y-52488405D01*
X97177962Y-52377962D01*
X97288405Y-52243387D01*
X97370472Y-52089851D01*
X97421008Y-51923255D01*
X97438072Y-51750001D01*
X97438072Y-51099999D01*
X97421008Y-50926745D01*
X97375727Y-50777474D01*
X98340000Y-49813202D01*
X98340001Y-57877711D01*
%TA.AperFunction,Conductor*%
D23*
G36*
X98340001Y-57877711D02*
G01*
X98328706Y-57992906D01*
X98304628Y-58072656D01*
X98265521Y-58146205D01*
X98212869Y-58210763D01*
X98148684Y-58263861D01*
X98075406Y-58303482D01*
X97995829Y-58328115D01*
X97882759Y-58339999D01*
X95560812Y-58339999D01*
X95560837Y-58339974D01*
X95674105Y-58170456D01*
X95674403Y-58169736D01*
X95713110Y-58181476D01*
X95943000Y-58060155D01*
X95943000Y-56867000D01*
X96197000Y-56867000D01*
X96197000Y-58060155D01*
X96426890Y-58181476D01*
X96574099Y-58136825D01*
X96836920Y-58011641D01*
X97070269Y-57837588D01*
X97265178Y-57621355D01*
X97414157Y-57371252D01*
X97511481Y-57096891D01*
X97390814Y-56867000D01*
X96197000Y-56867000D01*
X95943000Y-56867000D01*
X95923000Y-56867000D01*
X95923000Y-56613000D01*
X95943000Y-56613000D01*
X95943000Y-56593000D01*
X96197000Y-56593000D01*
X96197000Y-56613000D01*
X97390814Y-56613000D01*
X97511481Y-56383109D01*
X97414157Y-56108748D01*
X97265178Y-55858645D01*
X97070269Y-55642412D01*
X96840594Y-55471100D01*
X97016632Y-55353475D01*
X97223475Y-55146632D01*
X97385990Y-54903411D01*
X97497932Y-54633158D01*
X97555000Y-54346260D01*
X97555000Y-54053740D01*
X97497932Y-53766842D01*
X97385990Y-53496589D01*
X97223475Y-53253368D01*
X97016632Y-53046525D01*
X96830000Y-52921822D01*
X96830000Y-52588627D01*
X96889851Y-52570472D01*
X97043387Y-52488405D01*
X97177962Y-52377962D01*
X97288405Y-52243387D01*
X97370472Y-52089851D01*
X97421008Y-51923255D01*
X97438072Y-51750001D01*
X97438072Y-51099999D01*
X97421008Y-50926745D01*
X97375727Y-50777474D01*
X98340000Y-49813202D01*
X98340001Y-57877711D01*
G37*
%TD.AperFunction*%
D22*
X83803602Y-53537826D02*
X84003561Y-53577600D01*
X84065699Y-53577600D01*
X86388105Y-55900008D01*
X86411899Y-55929001D01*
X86440892Y-55952795D01*
X86440896Y-55952799D01*
X86477034Y-55982456D01*
X86527624Y-56023974D01*
X86659653Y-56094546D01*
X86802914Y-56138003D01*
X86914567Y-56149000D01*
X86914576Y-56149000D01*
X86951899Y-56152676D01*
X86989222Y-56149000D01*
X87091564Y-56149000D01*
X87008519Y-56383109D01*
X87129186Y-56613000D01*
X88323000Y-56613000D01*
X88323000Y-56593000D01*
X88577000Y-56593000D01*
X88577000Y-56613000D01*
X90843000Y-56613000D01*
X90843000Y-56593000D01*
X91097000Y-56593000D01*
X91097000Y-56613000D01*
X93343000Y-56613000D01*
X93343000Y-56593000D01*
X93597000Y-56593000D01*
X93597000Y-56613000D01*
X93617000Y-56613000D01*
X93617000Y-56867000D01*
X93597000Y-56867000D01*
X93597000Y-56887000D01*
X93343000Y-56887000D01*
X93343000Y-56867000D01*
X91097000Y-56867000D01*
X91097000Y-56887000D01*
X90843000Y-56887000D01*
X90843000Y-56867000D01*
X88577000Y-56867000D01*
X88577000Y-56887000D01*
X88323000Y-56887000D01*
X88323000Y-56867000D01*
X87129186Y-56867000D01*
X87008519Y-57096891D01*
X87072090Y-57276100D01*
X84975569Y-57276100D01*
X84885085Y-57127000D01*
X83867000Y-57127000D01*
X83867000Y-57147000D01*
X83613000Y-57147000D01*
X83613000Y-57127000D01*
X83593000Y-57127000D01*
X83593000Y-56873000D01*
X83613000Y-56873000D01*
X83613000Y-55855776D01*
X83867000Y-55855776D01*
X83867000Y-56873000D01*
X84885085Y-56873000D01*
X85007915Y-56670599D01*
X84919289Y-56429570D01*
X84785344Y-56210463D01*
X84611227Y-56021697D01*
X84403629Y-55870527D01*
X84170528Y-55762762D01*
X84069400Y-55732090D01*
X83867000Y-55855776D01*
X83613000Y-55855776D01*
X83410600Y-55732090D01*
X83309472Y-55762762D01*
X83076371Y-55870527D01*
X82868773Y-56021697D01*
X82746681Y-56154060D01*
X82703561Y-56110940D01*
X83404904Y-55409598D01*
X83433901Y-55385801D01*
X83504543Y-55299724D01*
X83528874Y-55270077D01*
X83599446Y-55138047D01*
X83614316Y-55089026D01*
X83642903Y-54994786D01*
X83653900Y-54883133D01*
X83653900Y-54883124D01*
X83657576Y-54845801D01*
X83653900Y-54808478D01*
X83653900Y-53475817D01*
X83803602Y-53537826D01*
%TA.AperFunction,Conductor*%
D23*
G36*
X83803602Y-53537826D02*
G01*
X84003561Y-53577600D01*
X84065699Y-53577600D01*
X86388105Y-55900008D01*
X86411899Y-55929001D01*
X86440892Y-55952795D01*
X86440896Y-55952799D01*
X86477034Y-55982456D01*
X86527624Y-56023974D01*
X86659653Y-56094546D01*
X86802914Y-56138003D01*
X86914567Y-56149000D01*
X86914576Y-56149000D01*
X86951899Y-56152676D01*
X86989222Y-56149000D01*
X87091564Y-56149000D01*
X87008519Y-56383109D01*
X87129186Y-56613000D01*
X88323000Y-56613000D01*
X88323000Y-56593000D01*
X88577000Y-56593000D01*
X88577000Y-56613000D01*
X90843000Y-56613000D01*
X90843000Y-56593000D01*
X91097000Y-56593000D01*
X91097000Y-56613000D01*
X93343000Y-56613000D01*
X93343000Y-56593000D01*
X93597000Y-56593000D01*
X93597000Y-56613000D01*
X93617000Y-56613000D01*
X93617000Y-56867000D01*
X93597000Y-56867000D01*
X93597000Y-56887000D01*
X93343000Y-56887000D01*
X93343000Y-56867000D01*
X91097000Y-56867000D01*
X91097000Y-56887000D01*
X90843000Y-56887000D01*
X90843000Y-56867000D01*
X88577000Y-56867000D01*
X88577000Y-56887000D01*
X88323000Y-56887000D01*
X88323000Y-56867000D01*
X87129186Y-56867000D01*
X87008519Y-57096891D01*
X87072090Y-57276100D01*
X84975569Y-57276100D01*
X84885085Y-57127000D01*
X83867000Y-57127000D01*
X83867000Y-57147000D01*
X83613000Y-57147000D01*
X83613000Y-57127000D01*
X83593000Y-57127000D01*
X83593000Y-56873000D01*
X83613000Y-56873000D01*
X83613000Y-55855776D01*
X83867000Y-55855776D01*
X83867000Y-56873000D01*
X84885085Y-56873000D01*
X85007915Y-56670599D01*
X84919289Y-56429570D01*
X84785344Y-56210463D01*
X84611227Y-56021697D01*
X84403629Y-55870527D01*
X84170528Y-55762762D01*
X84069400Y-55732090D01*
X83867000Y-55855776D01*
X83613000Y-55855776D01*
X83410600Y-55732090D01*
X83309472Y-55762762D01*
X83076371Y-55870527D01*
X82868773Y-56021697D01*
X82746681Y-56154060D01*
X82703561Y-56110940D01*
X83404904Y-55409598D01*
X83433901Y-55385801D01*
X83504543Y-55299724D01*
X83528874Y-55270077D01*
X83599446Y-55138047D01*
X83614316Y-55089026D01*
X83642903Y-54994786D01*
X83653900Y-54883133D01*
X83653900Y-54883124D01*
X83657576Y-54845801D01*
X83653900Y-54808478D01*
X83653900Y-53475817D01*
X83803602Y-53537826D01*
G37*
%TD.AperFunction*%
D22*
X83471395Y-45286756D02*
X83584663Y-45456274D01*
X83604379Y-45475990D01*
X83574188Y-45575518D01*
X83561928Y-45700000D01*
X83561928Y-47300000D01*
X83574188Y-47424482D01*
X83610498Y-47544180D01*
X83669463Y-47654494D01*
X83748815Y-47751185D01*
X83845506Y-47830537D01*
X83955820Y-47889502D01*
X84075518Y-47925812D01*
X84200000Y-47938072D01*
X86200000Y-47938072D01*
X86324482Y-47925812D01*
X86444180Y-47889502D01*
X86554494Y-47830537D01*
X86651185Y-47751185D01*
X86730537Y-47654494D01*
X86789502Y-47544180D01*
X86825812Y-47424482D01*
X86838072Y-47300000D01*
X86838072Y-45784874D01*
X87740001Y-46686803D01*
X87740000Y-48220473D01*
X87710149Y-48229528D01*
X87556613Y-48311595D01*
X87422038Y-48422038D01*
X87311595Y-48556613D01*
X87229528Y-48710149D01*
X87178992Y-48876745D01*
X87161928Y-49049999D01*
X87161928Y-49520300D01*
X84572802Y-49520300D01*
X84501200Y-49448698D01*
X84501200Y-49386561D01*
X84461426Y-49186602D01*
X84383405Y-48998244D01*
X84270137Y-48828726D01*
X84125974Y-48684563D01*
X83956456Y-48571295D01*
X83768098Y-48493274D01*
X83568139Y-48453500D01*
X83364261Y-48453500D01*
X83164302Y-48493274D01*
X82975944Y-48571295D01*
X82806426Y-48684563D01*
X82662263Y-48828726D01*
X82548995Y-48998244D01*
X82470974Y-49186602D01*
X82431200Y-49386561D01*
X82431200Y-49590439D01*
X82470974Y-49790398D01*
X82548995Y-49978756D01*
X82662263Y-50148274D01*
X82806426Y-50292437D01*
X82975944Y-50405705D01*
X83164302Y-50483726D01*
X83364261Y-50523500D01*
X83426398Y-50523500D01*
X83694201Y-50791302D01*
X83717999Y-50820301D01*
X83833724Y-50915274D01*
X83965753Y-50985846D01*
X84109014Y-51029303D01*
X84220667Y-51040300D01*
X84220676Y-51040300D01*
X84257999Y-51043976D01*
X84295322Y-51040300D01*
X87167808Y-51040300D01*
X87161928Y-51099999D01*
X87161928Y-51750001D01*
X87178992Y-51923255D01*
X87229528Y-52089851D01*
X87311595Y-52243387D01*
X87422038Y-52377962D01*
X87556613Y-52488405D01*
X87710000Y-52570393D01*
X87710001Y-52921821D01*
X87523368Y-53046525D01*
X87316525Y-53253368D01*
X87154010Y-53496589D01*
X87042068Y-53766842D01*
X86985000Y-54053740D01*
X86985000Y-54346260D01*
X86985258Y-54347555D01*
X85140500Y-52502799D01*
X85140500Y-52440661D01*
X85100726Y-52240702D01*
X85022705Y-52052344D01*
X84909437Y-51882826D01*
X84765274Y-51738663D01*
X84595756Y-51625395D01*
X84407398Y-51547374D01*
X84207439Y-51507600D01*
X84003561Y-51507600D01*
X83803602Y-51547374D01*
X83653900Y-51609383D01*
X83653900Y-51565622D01*
X83657576Y-51528299D01*
X83653900Y-51490976D01*
X83653900Y-51490967D01*
X83642903Y-51379314D01*
X83599446Y-51236053D01*
X83577343Y-51194702D01*
X83528874Y-51104023D01*
X83457699Y-51017297D01*
X83433901Y-50988299D01*
X83404903Y-50964501D01*
X80695404Y-48255003D01*
X80671601Y-48225999D01*
X80555876Y-48131026D01*
X80423847Y-48060454D01*
X80280586Y-48016997D01*
X80168933Y-48006000D01*
X80168922Y-48006000D01*
X80131600Y-48002324D01*
X80094278Y-48006000D01*
X77490701Y-48006000D01*
X78165046Y-47331656D01*
X78174188Y-47424482D01*
X78210498Y-47544180D01*
X78269463Y-47654494D01*
X78348815Y-47751185D01*
X78445506Y-47830537D01*
X78555820Y-47889502D01*
X78675518Y-47925812D01*
X78800000Y-47938072D01*
X79514250Y-47935000D01*
X79673000Y-47776250D01*
X79673000Y-46627000D01*
X79927000Y-46627000D01*
X79927000Y-47776250D01*
X80085750Y-47935000D01*
X80800000Y-47938072D01*
X80924482Y-47925812D01*
X81044180Y-47889502D01*
X81154494Y-47830537D01*
X81251185Y-47751185D01*
X81330537Y-47654494D01*
X81389502Y-47544180D01*
X81425812Y-47424482D01*
X81438072Y-47300000D01*
X81435000Y-46785750D01*
X81276250Y-46627000D01*
X79927000Y-46627000D01*
X79673000Y-46627000D01*
X79653000Y-46627000D01*
X79653000Y-46373000D01*
X79673000Y-46373000D01*
X79673000Y-46353000D01*
X79927000Y-46353000D01*
X79927000Y-46373000D01*
X81276250Y-46373000D01*
X81435000Y-46214250D01*
X81438072Y-45700000D01*
X81425812Y-45575518D01*
X81400993Y-45493700D01*
X81883789Y-45493700D01*
X81927726Y-45537637D01*
X82097244Y-45650905D01*
X82285602Y-45728926D01*
X82485561Y-45768700D01*
X82689439Y-45768700D01*
X82889398Y-45728926D01*
X83077756Y-45650905D01*
X83247274Y-45537637D01*
X83391437Y-45393474D01*
X83468084Y-45278763D01*
X83471395Y-45286756D01*
%TA.AperFunction,Conductor*%
D23*
G36*
X83471395Y-45286756D02*
G01*
X83584663Y-45456274D01*
X83604379Y-45475990D01*
X83574188Y-45575518D01*
X83561928Y-45700000D01*
X83561928Y-47300000D01*
X83574188Y-47424482D01*
X83610498Y-47544180D01*
X83669463Y-47654494D01*
X83748815Y-47751185D01*
X83845506Y-47830537D01*
X83955820Y-47889502D01*
X84075518Y-47925812D01*
X84200000Y-47938072D01*
X86200000Y-47938072D01*
X86324482Y-47925812D01*
X86444180Y-47889502D01*
X86554494Y-47830537D01*
X86651185Y-47751185D01*
X86730537Y-47654494D01*
X86789502Y-47544180D01*
X86825812Y-47424482D01*
X86838072Y-47300000D01*
X86838072Y-45784874D01*
X87740001Y-46686803D01*
X87740000Y-48220473D01*
X87710149Y-48229528D01*
X87556613Y-48311595D01*
X87422038Y-48422038D01*
X87311595Y-48556613D01*
X87229528Y-48710149D01*
X87178992Y-48876745D01*
X87161928Y-49049999D01*
X87161928Y-49520300D01*
X84572802Y-49520300D01*
X84501200Y-49448698D01*
X84501200Y-49386561D01*
X84461426Y-49186602D01*
X84383405Y-48998244D01*
X84270137Y-48828726D01*
X84125974Y-48684563D01*
X83956456Y-48571295D01*
X83768098Y-48493274D01*
X83568139Y-48453500D01*
X83364261Y-48453500D01*
X83164302Y-48493274D01*
X82975944Y-48571295D01*
X82806426Y-48684563D01*
X82662263Y-48828726D01*
X82548995Y-48998244D01*
X82470974Y-49186602D01*
X82431200Y-49386561D01*
X82431200Y-49590439D01*
X82470974Y-49790398D01*
X82548995Y-49978756D01*
X82662263Y-50148274D01*
X82806426Y-50292437D01*
X82975944Y-50405705D01*
X83164302Y-50483726D01*
X83364261Y-50523500D01*
X83426398Y-50523500D01*
X83694201Y-50791302D01*
X83717999Y-50820301D01*
X83833724Y-50915274D01*
X83965753Y-50985846D01*
X84109014Y-51029303D01*
X84220667Y-51040300D01*
X84220676Y-51040300D01*
X84257999Y-51043976D01*
X84295322Y-51040300D01*
X87167808Y-51040300D01*
X87161928Y-51099999D01*
X87161928Y-51750001D01*
X87178992Y-51923255D01*
X87229528Y-52089851D01*
X87311595Y-52243387D01*
X87422038Y-52377962D01*
X87556613Y-52488405D01*
X87710000Y-52570393D01*
X87710001Y-52921821D01*
X87523368Y-53046525D01*
X87316525Y-53253368D01*
X87154010Y-53496589D01*
X87042068Y-53766842D01*
X86985000Y-54053740D01*
X86985000Y-54346260D01*
X86985258Y-54347555D01*
X85140500Y-52502799D01*
X85140500Y-52440661D01*
X85100726Y-52240702D01*
X85022705Y-52052344D01*
X84909437Y-51882826D01*
X84765274Y-51738663D01*
X84595756Y-51625395D01*
X84407398Y-51547374D01*
X84207439Y-51507600D01*
X84003561Y-51507600D01*
X83803602Y-51547374D01*
X83653900Y-51609383D01*
X83653900Y-51565622D01*
X83657576Y-51528299D01*
X83653900Y-51490976D01*
X83653900Y-51490967D01*
X83642903Y-51379314D01*
X83599446Y-51236053D01*
X83577343Y-51194702D01*
X83528874Y-51104023D01*
X83457699Y-51017297D01*
X83433901Y-50988299D01*
X83404903Y-50964501D01*
X80695404Y-48255003D01*
X80671601Y-48225999D01*
X80555876Y-48131026D01*
X80423847Y-48060454D01*
X80280586Y-48016997D01*
X80168933Y-48006000D01*
X80168922Y-48006000D01*
X80131600Y-48002324D01*
X80094278Y-48006000D01*
X77490701Y-48006000D01*
X78165046Y-47331656D01*
X78174188Y-47424482D01*
X78210498Y-47544180D01*
X78269463Y-47654494D01*
X78348815Y-47751185D01*
X78445506Y-47830537D01*
X78555820Y-47889502D01*
X78675518Y-47925812D01*
X78800000Y-47938072D01*
X79514250Y-47935000D01*
X79673000Y-47776250D01*
X79673000Y-46627000D01*
X79927000Y-46627000D01*
X79927000Y-47776250D01*
X80085750Y-47935000D01*
X80800000Y-47938072D01*
X80924482Y-47925812D01*
X81044180Y-47889502D01*
X81154494Y-47830537D01*
X81251185Y-47751185D01*
X81330537Y-47654494D01*
X81389502Y-47544180D01*
X81425812Y-47424482D01*
X81438072Y-47300000D01*
X81435000Y-46785750D01*
X81276250Y-46627000D01*
X79927000Y-46627000D01*
X79673000Y-46627000D01*
X79653000Y-46627000D01*
X79653000Y-46373000D01*
X79673000Y-46373000D01*
X79673000Y-46353000D01*
X79927000Y-46353000D01*
X79927000Y-46373000D01*
X81276250Y-46373000D01*
X81435000Y-46214250D01*
X81438072Y-45700000D01*
X81425812Y-45575518D01*
X81400993Y-45493700D01*
X81883789Y-45493700D01*
X81927726Y-45537637D01*
X82097244Y-45650905D01*
X82285602Y-45728926D01*
X82485561Y-45768700D01*
X82689439Y-45768700D01*
X82889398Y-45728926D01*
X83077756Y-45650905D01*
X83247274Y-45537637D01*
X83391437Y-45393474D01*
X83468084Y-45278763D01*
X83471395Y-45286756D01*
G37*
%TD.AperFunction*%
D22*
X97992905Y-35671294D02*
X98072656Y-35695372D01*
X98146207Y-35734480D01*
X98210763Y-35787131D01*
X98263861Y-35851316D01*
X98303482Y-35924593D01*
X98328115Y-36004172D01*
X98339999Y-36117240D01*
X98340000Y-45296999D01*
X98296604Y-45253603D01*
X98272801Y-45224599D01*
X98157076Y-45129626D01*
X98061089Y-45078319D01*
X98109158Y-44978225D01*
X98184365Y-44685358D01*
X98200991Y-44383447D01*
X98158397Y-44084093D01*
X98058222Y-43798801D01*
X97978261Y-43649208D01*
X97724080Y-43565525D01*
X96839605Y-44450000D01*
X96853748Y-44464143D01*
X96674143Y-44643748D01*
X96660000Y-44629605D01*
X96645858Y-44643748D01*
X96466253Y-44464143D01*
X96480395Y-44450000D01*
X95595920Y-43565525D01*
X95341739Y-43649208D01*
X95210842Y-43921775D01*
X95209930Y-43925328D01*
X94417804Y-43133202D01*
X94394001Y-43104199D01*
X94278276Y-43009226D01*
X94190715Y-42962423D01*
X94288405Y-42843387D01*
X94370472Y-42689851D01*
X94376494Y-42670000D01*
X95321687Y-42670000D01*
X95467688Y-42888505D01*
X95681495Y-43102312D01*
X95835105Y-43204951D01*
X95775525Y-43385920D01*
X96660000Y-44270395D01*
X97544475Y-43385920D01*
X97484895Y-43204951D01*
X97638505Y-43102312D01*
X97852312Y-42888505D01*
X98020299Y-42637095D01*
X98136011Y-42357743D01*
X98195000Y-42061184D01*
X98195000Y-41758816D01*
X98136011Y-41462257D01*
X98020299Y-41182905D01*
X97852312Y-40931495D01*
X97638505Y-40717688D01*
X97387095Y-40549701D01*
X97107743Y-40433989D01*
X96811184Y-40375000D01*
X96508816Y-40375000D01*
X96212257Y-40433989D01*
X95932905Y-40549701D01*
X95681495Y-40717688D01*
X95467688Y-40931495D01*
X95321687Y-41150000D01*
X94382561Y-41150000D01*
X94370472Y-41110149D01*
X94288405Y-40956613D01*
X94177962Y-40822038D01*
X94043387Y-40711595D01*
X93889851Y-40629528D01*
X93723255Y-40578992D01*
X93550001Y-40561928D01*
X92899999Y-40561928D01*
X92726745Y-40578992D01*
X92560149Y-40629528D01*
X92406613Y-40711595D01*
X92272038Y-40822038D01*
X92200000Y-40909816D01*
X92127962Y-40822038D01*
X91993387Y-40711595D01*
X91839851Y-40629528D01*
X91673255Y-40578992D01*
X91500001Y-40561928D01*
X90849999Y-40561928D01*
X90676745Y-40578992D01*
X90510149Y-40629528D01*
X90356613Y-40711595D01*
X90222038Y-40822038D01*
X90111595Y-40956613D01*
X90029528Y-41110149D01*
X89978992Y-41276745D01*
X89961928Y-41449999D01*
X89961928Y-42350001D01*
X89978992Y-42523255D01*
X90029528Y-42689851D01*
X90083059Y-42790000D01*
X89992702Y-42790000D01*
X88191704Y-40989003D01*
X88167901Y-40959999D01*
X88052176Y-40865026D01*
X87920147Y-40794454D01*
X87776886Y-40750997D01*
X87665233Y-40740000D01*
X87665222Y-40740000D01*
X87627900Y-40736324D01*
X87590578Y-40740000D01*
X86873072Y-40740000D01*
X86873072Y-40625000D01*
X86863223Y-40525000D01*
X86873072Y-40425000D01*
X86873072Y-40260000D01*
X87354868Y-40260000D01*
X87476480Y-40381612D01*
X87662376Y-40505824D01*
X87868933Y-40591383D01*
X88088212Y-40635000D01*
X88311788Y-40635000D01*
X88531067Y-40591383D01*
X88737624Y-40505824D01*
X88923520Y-40381612D01*
X89081612Y-40223520D01*
X89205824Y-40037624D01*
X89291383Y-39831067D01*
X89335000Y-39611788D01*
X89335000Y-39388212D01*
X89291383Y-39168933D01*
X89205824Y-38962376D01*
X89081612Y-38776480D01*
X88923520Y-38618388D01*
X88821170Y-38550000D01*
X88923520Y-38481612D01*
X89081612Y-38323520D01*
X89205824Y-38137624D01*
X89291383Y-37931067D01*
X89335000Y-37711788D01*
X89335000Y-37488212D01*
X89291383Y-37268933D01*
X89205824Y-37062376D01*
X89081612Y-36876480D01*
X88923520Y-36718388D01*
X88737624Y-36594176D01*
X88531067Y-36508617D01*
X88311788Y-36465000D01*
X88088212Y-36465000D01*
X87868933Y-36508617D01*
X87662376Y-36594176D01*
X87476480Y-36718388D01*
X87318388Y-36876480D01*
X87194176Y-37062376D01*
X87108617Y-37268933D01*
X87065000Y-37488212D01*
X87065000Y-37660198D01*
X86852868Y-37872331D01*
X86820715Y-37771873D01*
X86760078Y-37662469D01*
X86679263Y-37566997D01*
X86581375Y-37489126D01*
X86470175Y-37431849D01*
X86349939Y-37397366D01*
X86225285Y-37387002D01*
X85795750Y-37390000D01*
X85637000Y-37548750D01*
X85637000Y-38036928D01*
X85383000Y-38036928D01*
X85383000Y-37548750D01*
X85224250Y-37390000D01*
X84794715Y-37387002D01*
X84670061Y-37397366D01*
X84549825Y-37431849D01*
X84438625Y-37489126D01*
X84340737Y-37566997D01*
X84259922Y-37662469D01*
X84199285Y-37771873D01*
X84161156Y-37891004D01*
X84150000Y-37993250D01*
X84308750Y-38152000D01*
X84421322Y-38152000D01*
X84333815Y-38223815D01*
X84254463Y-38320506D01*
X84195498Y-38430820D01*
X84182247Y-38474503D01*
X84150000Y-38506750D01*
X84157095Y-38571773D01*
X84146928Y-38675000D01*
X84146928Y-38812426D01*
X83060000Y-37725499D01*
X83060000Y-37714250D01*
X83198000Y-37576250D01*
X83198000Y-36527000D01*
X83452000Y-36527000D01*
X83452000Y-37576250D01*
X83610750Y-37735000D01*
X83900000Y-37738072D01*
X84024482Y-37725812D01*
X84144180Y-37689502D01*
X84254494Y-37630537D01*
X84351185Y-37551185D01*
X84430537Y-37454494D01*
X84489502Y-37344180D01*
X84525812Y-37224482D01*
X84538072Y-37100000D01*
X84535000Y-36685750D01*
X84376250Y-36527000D01*
X83452000Y-36527000D01*
X83198000Y-36527000D01*
X83178000Y-36527000D01*
X83178000Y-36273000D01*
X83198000Y-36273000D01*
X83198000Y-36253000D01*
X83452000Y-36253000D01*
X83452000Y-36273000D01*
X84376250Y-36273000D01*
X84535000Y-36114250D01*
X84538072Y-35700000D01*
X84534132Y-35660000D01*
X97877721Y-35660000D01*
X97992905Y-35671294D01*
%TA.AperFunction,Conductor*%
D23*
G36*
X97992905Y-35671294D02*
G01*
X98072656Y-35695372D01*
X98146207Y-35734480D01*
X98210763Y-35787131D01*
X98263861Y-35851316D01*
X98303482Y-35924593D01*
X98328115Y-36004172D01*
X98339999Y-36117240D01*
X98340000Y-45296999D01*
X98296604Y-45253603D01*
X98272801Y-45224599D01*
X98157076Y-45129626D01*
X98061089Y-45078319D01*
X98109158Y-44978225D01*
X98184365Y-44685358D01*
X98200991Y-44383447D01*
X98158397Y-44084093D01*
X98058222Y-43798801D01*
X97978261Y-43649208D01*
X97724080Y-43565525D01*
X96839605Y-44450000D01*
X96853748Y-44464143D01*
X96674143Y-44643748D01*
X96660000Y-44629605D01*
X96645858Y-44643748D01*
X96466253Y-44464143D01*
X96480395Y-44450000D01*
X95595920Y-43565525D01*
X95341739Y-43649208D01*
X95210842Y-43921775D01*
X95209930Y-43925328D01*
X94417804Y-43133202D01*
X94394001Y-43104199D01*
X94278276Y-43009226D01*
X94190715Y-42962423D01*
X94288405Y-42843387D01*
X94370472Y-42689851D01*
X94376494Y-42670000D01*
X95321687Y-42670000D01*
X95467688Y-42888505D01*
X95681495Y-43102312D01*
X95835105Y-43204951D01*
X95775525Y-43385920D01*
X96660000Y-44270395D01*
X97544475Y-43385920D01*
X97484895Y-43204951D01*
X97638505Y-43102312D01*
X97852312Y-42888505D01*
X98020299Y-42637095D01*
X98136011Y-42357743D01*
X98195000Y-42061184D01*
X98195000Y-41758816D01*
X98136011Y-41462257D01*
X98020299Y-41182905D01*
X97852312Y-40931495D01*
X97638505Y-40717688D01*
X97387095Y-40549701D01*
X97107743Y-40433989D01*
X96811184Y-40375000D01*
X96508816Y-40375000D01*
X96212257Y-40433989D01*
X95932905Y-40549701D01*
X95681495Y-40717688D01*
X95467688Y-40931495D01*
X95321687Y-41150000D01*
X94382561Y-41150000D01*
X94370472Y-41110149D01*
X94288405Y-40956613D01*
X94177962Y-40822038D01*
X94043387Y-40711595D01*
X93889851Y-40629528D01*
X93723255Y-40578992D01*
X93550001Y-40561928D01*
X92899999Y-40561928D01*
X92726745Y-40578992D01*
X92560149Y-40629528D01*
X92406613Y-40711595D01*
X92272038Y-40822038D01*
X92200000Y-40909816D01*
X92127962Y-40822038D01*
X91993387Y-40711595D01*
X91839851Y-40629528D01*
X91673255Y-40578992D01*
X91500001Y-40561928D01*
X90849999Y-40561928D01*
X90676745Y-40578992D01*
X90510149Y-40629528D01*
X90356613Y-40711595D01*
X90222038Y-40822038D01*
X90111595Y-40956613D01*
X90029528Y-41110149D01*
X89978992Y-41276745D01*
X89961928Y-41449999D01*
X89961928Y-42350001D01*
X89978992Y-42523255D01*
X90029528Y-42689851D01*
X90083059Y-42790000D01*
X89992702Y-42790000D01*
X88191704Y-40989003D01*
X88167901Y-40959999D01*
X88052176Y-40865026D01*
X87920147Y-40794454D01*
X87776886Y-40750997D01*
X87665233Y-40740000D01*
X87665222Y-40740000D01*
X87627900Y-40736324D01*
X87590578Y-40740000D01*
X86873072Y-40740000D01*
X86873072Y-40625000D01*
X86863223Y-40525000D01*
X86873072Y-40425000D01*
X86873072Y-40260000D01*
X87354868Y-40260000D01*
X87476480Y-40381612D01*
X87662376Y-40505824D01*
X87868933Y-40591383D01*
X88088212Y-40635000D01*
X88311788Y-40635000D01*
X88531067Y-40591383D01*
X88737624Y-40505824D01*
X88923520Y-40381612D01*
X89081612Y-40223520D01*
X89205824Y-40037624D01*
X89291383Y-39831067D01*
X89335000Y-39611788D01*
X89335000Y-39388212D01*
X89291383Y-39168933D01*
X89205824Y-38962376D01*
X89081612Y-38776480D01*
X88923520Y-38618388D01*
X88821170Y-38550000D01*
X88923520Y-38481612D01*
X89081612Y-38323520D01*
X89205824Y-38137624D01*
X89291383Y-37931067D01*
X89335000Y-37711788D01*
X89335000Y-37488212D01*
X89291383Y-37268933D01*
X89205824Y-37062376D01*
X89081612Y-36876480D01*
X88923520Y-36718388D01*
X88737624Y-36594176D01*
X88531067Y-36508617D01*
X88311788Y-36465000D01*
X88088212Y-36465000D01*
X87868933Y-36508617D01*
X87662376Y-36594176D01*
X87476480Y-36718388D01*
X87318388Y-36876480D01*
X87194176Y-37062376D01*
X87108617Y-37268933D01*
X87065000Y-37488212D01*
X87065000Y-37660198D01*
X86852868Y-37872331D01*
X86820715Y-37771873D01*
X86760078Y-37662469D01*
X86679263Y-37566997D01*
X86581375Y-37489126D01*
X86470175Y-37431849D01*
X86349939Y-37397366D01*
X86225285Y-37387002D01*
X85795750Y-37390000D01*
X85637000Y-37548750D01*
X85637000Y-38036928D01*
X85383000Y-38036928D01*
X85383000Y-37548750D01*
X85224250Y-37390000D01*
X84794715Y-37387002D01*
X84670061Y-37397366D01*
X84549825Y-37431849D01*
X84438625Y-37489126D01*
X84340737Y-37566997D01*
X84259922Y-37662469D01*
X84199285Y-37771873D01*
X84161156Y-37891004D01*
X84150000Y-37993250D01*
X84308750Y-38152000D01*
X84421322Y-38152000D01*
X84333815Y-38223815D01*
X84254463Y-38320506D01*
X84195498Y-38430820D01*
X84182247Y-38474503D01*
X84150000Y-38506750D01*
X84157095Y-38571773D01*
X84146928Y-38675000D01*
X84146928Y-38812426D01*
X83060000Y-37725499D01*
X83060000Y-37714250D01*
X83198000Y-37576250D01*
X83198000Y-36527000D01*
X83452000Y-36527000D01*
X83452000Y-37576250D01*
X83610750Y-37735000D01*
X83900000Y-37738072D01*
X84024482Y-37725812D01*
X84144180Y-37689502D01*
X84254494Y-37630537D01*
X84351185Y-37551185D01*
X84430537Y-37454494D01*
X84489502Y-37344180D01*
X84525812Y-37224482D01*
X84538072Y-37100000D01*
X84535000Y-36685750D01*
X84376250Y-36527000D01*
X83452000Y-36527000D01*
X83198000Y-36527000D01*
X83178000Y-36527000D01*
X83178000Y-36273000D01*
X83198000Y-36273000D01*
X83198000Y-36253000D01*
X83452000Y-36253000D01*
X83452000Y-36273000D01*
X84376250Y-36273000D01*
X84535000Y-36114250D01*
X84538072Y-35700000D01*
X84534132Y-35660000D01*
X97877721Y-35660000D01*
X97992905Y-35671294D01*
G37*
%TD.AperFunction*%
%TD*%
M02*
