%TF.GenerationSoftware,KiCad,Pcbnew,(5.1.9-0-10_14)*%
%TF.CreationDate,2021-08-12T09:32:14+02:00*%
%TF.ProjectId,HB-SCI-x-MSP,48422d53-4349-42d7-982d-4d53502e6b69,rev?*%
%TF.SameCoordinates,Original*%
%TF.FileFunction,Copper,L2,Bot*%
%TF.FilePolarity,Positive*%
%FSLAX46Y46*%
G04 Gerber Fmt 4.6, Leading zero omitted, Abs format (unit mm)*
G04 Created by KiCad (PCBNEW (5.1.9-0-10_14)) date 2021-08-12 09:32:14*
%MOMM*%
%LPD*%
G01*
G04 APERTURE LIST*
%TA.AperFunction,ComponentPad*%
%ADD10O,1.700000X1.700000*%
%TD*%
%TA.AperFunction,SMDPad,CuDef*%
%ADD11R,1.000000X1.500000*%
%TD*%
%TA.AperFunction,ComponentPad*%
%ADD12R,1.700000X1.700000*%
%TD*%
%TA.AperFunction,ComponentPad*%
%ADD13C,1.000000*%
%TD*%
%TA.AperFunction,SMDPad,CuDef*%
%ADD14C,1.350000*%
%TD*%
%TA.AperFunction,ConnectorPad*%
%ADD15R,1.800000X1.350000*%
%TD*%
%TA.AperFunction,SMDPad,CuDef*%
%ADD16C,0.100000*%
%TD*%
%TA.AperFunction,SMDPad,CuDef*%
%ADD17R,0.800000X0.900000*%
%TD*%
%TA.AperFunction,SMDPad,CuDef*%
%ADD18R,2.200000X1.500000*%
%TD*%
%TA.AperFunction,ComponentPad*%
%ADD19C,1.800000*%
%TD*%
%TA.AperFunction,ComponentPad*%
%ADD20R,1.800000X1.800000*%
%TD*%
%TA.AperFunction,ViaPad*%
%ADD21C,0.800000*%
%TD*%
%TA.AperFunction,Conductor*%
%ADD22C,0.250000*%
%TD*%
%TA.AperFunction,Conductor*%
%ADD23C,0.254000*%
%TD*%
%TA.AperFunction,Conductor*%
%ADD24C,0.100000*%
%TD*%
G04 APERTURE END LIST*
D10*
%TO.P,SW2,8*%
%TO.N,GND*%
X88450000Y-56740000D03*
%TO.P,SW2,7*%
X90970000Y-56700000D03*
%TO.P,SW2,6*%
X93470000Y-56740000D03*
%TO.P,SW2,5*%
X96070000Y-56800000D03*
%TO.P,SW2,1*%
%TO.N,Net-(R3-Pad1)*%
X88470000Y-54200000D03*
%TO.P,SW2,2*%
%TO.N,Net-(R4-Pad1)*%
X90970000Y-54200000D03*
%TO.P,SW2,3*%
%TO.N,Net-(R5-Pad1)*%
X93470000Y-54200000D03*
%TO.P,SW2,4*%
%TO.N,Net-(R6-Pad1)*%
X96070000Y-54200000D03*
%TD*%
D11*
%TO.P,JP1,1*%
%TO.N,MSP_RST*%
X82050000Y-54800000D03*
%TO.P,JP1,2*%
%TO.N,Net-(JP1-Pad2)*%
X83350000Y-54800000D03*
%TD*%
D10*
%TO.P,J2,6*%
%TO.N,GND*%
X52600000Y-57030000D03*
%TO.P,J2,5*%
X55140000Y-57030000D03*
%TO.P,J2,4*%
%TO.N,+BATT*%
X57680000Y-57030000D03*
%TO.P,J2,3*%
%TO.N,RX*%
X60220000Y-57030000D03*
%TO.P,J2,2*%
%TO.N,TX*%
X62760000Y-57030000D03*
D12*
%TO.P,J2,1*%
%TO.N,DTR*%
X65300000Y-57030000D03*
%TD*%
D13*
%TO.P,Y1,2*%
%TO.N,Net-(U2-Pad13)*%
X88200000Y-37600000D03*
%TO.P,Y1,1*%
%TO.N,Net-(U2-Pad12)*%
X88200000Y-39500000D03*
%TD*%
D14*
%TO.P,U3,8*%
%TO.N,Net-(D2-Pad2)*%
X62700000Y-51800000D03*
D15*
X63700000Y-51800000D03*
D14*
%TO.P,U3,1*%
%TO.N,Net-(C3-Pad1)*%
X62700000Y-37800000D03*
%TO.P,U3,2*%
%TO.N,GND*%
X62700000Y-39800000D03*
%TO.P,U3,3*%
%TO.N,MOSI*%
X62700000Y-41800000D03*
%TO.P,U3,4*%
%TO.N,SCK*%
X62700000Y-43800000D03*
%TO.P,U3,5*%
%TO.N,MISO*%
X62700000Y-45800000D03*
%TO.P,U3,6*%
%TO.N,Net-(U3-Pad6)*%
X62700000Y-47800000D03*
%TO.P,U3,7*%
%TO.N,GDO0*%
X62700000Y-49800000D03*
D15*
%TO.P,U3,1*%
%TO.N,Net-(C3-Pad1)*%
X63700000Y-37800000D03*
%TO.P,U3,2*%
%TO.N,GND*%
X63700000Y-39800000D03*
%TO.P,U3,3*%
%TO.N,MOSI*%
X63700000Y-41800000D03*
%TO.P,U3,4*%
%TO.N,SCK*%
X63700000Y-43800000D03*
%TO.P,U3,5*%
%TO.N,MISO*%
X63700000Y-45800000D03*
%TO.P,U3,6*%
%TO.N,Net-(U3-Pad6)*%
X63700000Y-47800000D03*
%TO.P,U3,7*%
%TO.N,GDO0*%
X63700000Y-49800000D03*
%TD*%
%TA.AperFunction,SMDPad,CuDef*%
D16*
%TO.P,U1,32*%
%TO.N,GDO0*%
G36*
X87943872Y-45344835D02*
G01*
X87554963Y-44955926D01*
X88686334Y-43824555D01*
X89075243Y-44213464D01*
X87943872Y-45344835D01*
G37*
%TD.AperFunction*%
%TA.AperFunction,SMDPad,CuDef*%
%TO.P,U1,31*%
%TO.N,TX*%
G36*
X87378186Y-44779150D02*
G01*
X86989277Y-44390241D01*
X88120648Y-43258870D01*
X88509557Y-43647779D01*
X87378186Y-44779150D01*
G37*
%TD.AperFunction*%
%TA.AperFunction,SMDPad,CuDef*%
%TO.P,U1,30*%
%TO.N,RX*%
G36*
X86812501Y-44213464D02*
G01*
X86423592Y-43824555D01*
X87554963Y-42693184D01*
X87943872Y-43082093D01*
X86812501Y-44213464D01*
G37*
%TD.AperFunction*%
%TA.AperFunction,SMDPad,CuDef*%
%TO.P,U1,29*%
%TO.N,AVR_RST*%
G36*
X86246816Y-43647779D02*
G01*
X85857907Y-43258870D01*
X86989278Y-42127499D01*
X87378187Y-42516408D01*
X86246816Y-43647779D01*
G37*
%TD.AperFunction*%
%TA.AperFunction,SMDPad,CuDef*%
%TO.P,U1,28*%
%TO.N,Net-(JP1-Pad2)*%
G36*
X85681130Y-43082093D02*
G01*
X85292221Y-42693184D01*
X86423592Y-41561813D01*
X86812501Y-41950722D01*
X85681130Y-43082093D01*
G37*
%TD.AperFunction*%
%TA.AperFunction,SMDPad,CuDef*%
%TO.P,U1,27*%
%TO.N,Net-(U1-Pad27)*%
G36*
X85115445Y-42516408D02*
G01*
X84726536Y-42127499D01*
X85857907Y-40996128D01*
X86246816Y-41385037D01*
X85115445Y-42516408D01*
G37*
%TD.AperFunction*%
%TA.AperFunction,SMDPad,CuDef*%
%TO.P,U1,26*%
%TO.N,Net-(U1-Pad26)*%
G36*
X84549759Y-41950723D02*
G01*
X84160850Y-41561814D01*
X85292221Y-40430443D01*
X85681130Y-40819352D01*
X84549759Y-41950723D01*
G37*
%TD.AperFunction*%
%TA.AperFunction,SMDPad,CuDef*%
%TO.P,U1,25*%
%TO.N,Net-(U1-Pad25)*%
G36*
X83984074Y-41385037D02*
G01*
X83595165Y-40996128D01*
X84726536Y-39864757D01*
X85115445Y-40253666D01*
X83984074Y-41385037D01*
G37*
%TD.AperFunction*%
%TA.AperFunction,SMDPad,CuDef*%
%TO.P,U1,24*%
%TO.N,Net-(U1-Pad24)*%
G36*
X83064835Y-40996128D02*
G01*
X82675926Y-41385037D01*
X81544555Y-40253666D01*
X81933464Y-39864757D01*
X83064835Y-40996128D01*
G37*
%TD.AperFunction*%
%TA.AperFunction,SMDPad,CuDef*%
%TO.P,U1,23*%
%TO.N,Net-(SW1-Pad1)*%
G36*
X82499150Y-41561814D02*
G01*
X82110241Y-41950723D01*
X80978870Y-40819352D01*
X81367779Y-40430443D01*
X82499150Y-41561814D01*
G37*
%TD.AperFunction*%
%TA.AperFunction,SMDPad,CuDef*%
%TO.P,U1,22*%
%TO.N,Net-(U1-Pad22)*%
G36*
X81933464Y-42127499D02*
G01*
X81544555Y-42516408D01*
X80413184Y-41385037D01*
X80802093Y-40996128D01*
X81933464Y-42127499D01*
G37*
%TD.AperFunction*%
%TA.AperFunction,SMDPad,CuDef*%
%TO.P,U1,21*%
%TO.N,GND*%
G36*
X81367779Y-42693184D02*
G01*
X80978870Y-43082093D01*
X79847499Y-41950722D01*
X80236408Y-41561813D01*
X81367779Y-42693184D01*
G37*
%TD.AperFunction*%
%TA.AperFunction,SMDPad,CuDef*%
%TO.P,U1,20*%
%TO.N,Net-(C2-Pad1)*%
G36*
X80802093Y-43258870D02*
G01*
X80413184Y-43647779D01*
X79281813Y-42516408D01*
X79670722Y-42127499D01*
X80802093Y-43258870D01*
G37*
%TD.AperFunction*%
%TA.AperFunction,SMDPad,CuDef*%
%TO.P,U1,19*%
%TO.N,Net-(U1-Pad19)*%
G36*
X80236408Y-43824555D02*
G01*
X79847499Y-44213464D01*
X78716128Y-43082093D01*
X79105037Y-42693184D01*
X80236408Y-43824555D01*
G37*
%TD.AperFunction*%
%TA.AperFunction,SMDPad,CuDef*%
%TO.P,U1,18*%
%TO.N,+BATT*%
G36*
X79670723Y-44390241D02*
G01*
X79281814Y-44779150D01*
X78150443Y-43647779D01*
X78539352Y-43258870D01*
X79670723Y-44390241D01*
G37*
%TD.AperFunction*%
%TA.AperFunction,SMDPad,CuDef*%
%TO.P,U1,17*%
%TO.N,SCK*%
G36*
X79105037Y-44955926D02*
G01*
X78716128Y-45344835D01*
X77584757Y-44213464D01*
X77973666Y-43824555D01*
X79105037Y-44955926D01*
G37*
%TD.AperFunction*%
%TA.AperFunction,SMDPad,CuDef*%
%TO.P,U1,16*%
%TO.N,MISO*%
G36*
X77973666Y-47395445D02*
G01*
X77584757Y-47006536D01*
X78716128Y-45875165D01*
X79105037Y-46264074D01*
X77973666Y-47395445D01*
G37*
%TD.AperFunction*%
%TA.AperFunction,SMDPad,CuDef*%
%TO.P,U1,15*%
%TO.N,MOSI*%
G36*
X78539352Y-47961130D02*
G01*
X78150443Y-47572221D01*
X79281814Y-46440850D01*
X79670723Y-46829759D01*
X78539352Y-47961130D01*
G37*
%TD.AperFunction*%
%TA.AperFunction,SMDPad,CuDef*%
%TO.P,U1,14*%
%TO.N,CS*%
G36*
X79105037Y-48526816D02*
G01*
X78716128Y-48137907D01*
X79847499Y-47006536D01*
X80236408Y-47395445D01*
X79105037Y-48526816D01*
G37*
%TD.AperFunction*%
%TA.AperFunction,SMDPad,CuDef*%
%TO.P,U1,13*%
%TO.N,Net-(R2-Pad2)*%
G36*
X79670722Y-49092501D02*
G01*
X79281813Y-48703592D01*
X80413184Y-47572221D01*
X80802093Y-47961130D01*
X79670722Y-49092501D01*
G37*
%TD.AperFunction*%
%TA.AperFunction,SMDPad,CuDef*%
%TO.P,U1,12*%
%TO.N,Net-(R1-Pad2)*%
G36*
X80236408Y-49658187D02*
G01*
X79847499Y-49269278D01*
X80978870Y-48137907D01*
X81367779Y-48526816D01*
X80236408Y-49658187D01*
G37*
%TD.AperFunction*%
%TA.AperFunction,SMDPad,CuDef*%
%TO.P,U1,11*%
%TO.N,Net-(U1-Pad11)*%
G36*
X80802093Y-50223872D02*
G01*
X80413184Y-49834963D01*
X81544555Y-48703592D01*
X81933464Y-49092501D01*
X80802093Y-50223872D01*
G37*
%TD.AperFunction*%
%TA.AperFunction,SMDPad,CuDef*%
%TO.P,U1,10*%
%TO.N,Net-(U1-Pad10)*%
G36*
X81367779Y-50789557D02*
G01*
X80978870Y-50400648D01*
X82110241Y-49269277D01*
X82499150Y-49658186D01*
X81367779Y-50789557D01*
G37*
%TD.AperFunction*%
%TA.AperFunction,SMDPad,CuDef*%
%TO.P,U1,9*%
%TO.N,CC1101_PWR*%
G36*
X81933464Y-51355243D02*
G01*
X81544555Y-50966334D01*
X82675926Y-49834963D01*
X83064835Y-50223872D01*
X81933464Y-51355243D01*
G37*
%TD.AperFunction*%
%TA.AperFunction,SMDPad,CuDef*%
%TO.P,U1,8*%
%TO.N,Net-(U1-Pad8)*%
G36*
X85115445Y-50966334D02*
G01*
X84726536Y-51355243D01*
X83595165Y-50223872D01*
X83984074Y-49834963D01*
X85115445Y-50966334D01*
G37*
%TD.AperFunction*%
%TA.AperFunction,SMDPad,CuDef*%
%TO.P,U1,7*%
%TO.N,Net-(U1-Pad7)*%
G36*
X85681130Y-50400648D02*
G01*
X85292221Y-50789557D01*
X84160850Y-49658186D01*
X84549759Y-49269277D01*
X85681130Y-50400648D01*
G37*
%TD.AperFunction*%
%TA.AperFunction,SMDPad,CuDef*%
%TO.P,U1,6*%
%TO.N,+BATT*%
G36*
X86246816Y-49834963D02*
G01*
X85857907Y-50223872D01*
X84726536Y-49092501D01*
X85115445Y-48703592D01*
X86246816Y-49834963D01*
G37*
%TD.AperFunction*%
%TA.AperFunction,SMDPad,CuDef*%
%TO.P,U1,5*%
%TO.N,GND*%
G36*
X86812501Y-49269278D02*
G01*
X86423592Y-49658187D01*
X85292221Y-48526816D01*
X85681130Y-48137907D01*
X86812501Y-49269278D01*
G37*
%TD.AperFunction*%
%TA.AperFunction,SMDPad,CuDef*%
%TO.P,U1,4*%
%TO.N,+BATT*%
G36*
X87378187Y-48703592D02*
G01*
X86989278Y-49092501D01*
X85857907Y-47961130D01*
X86246816Y-47572221D01*
X87378187Y-48703592D01*
G37*
%TD.AperFunction*%
%TA.AperFunction,SMDPad,CuDef*%
%TO.P,U1,3*%
%TO.N,GND*%
G36*
X87943872Y-48137907D02*
G01*
X87554963Y-48526816D01*
X86423592Y-47395445D01*
X86812501Y-47006536D01*
X87943872Y-48137907D01*
G37*
%TD.AperFunction*%
%TA.AperFunction,SMDPad,CuDef*%
%TO.P,U1,2*%
%TO.N,Net-(U1-Pad2)*%
G36*
X88509557Y-47572221D02*
G01*
X88120648Y-47961130D01*
X86989277Y-46829759D01*
X87378186Y-46440850D01*
X88509557Y-47572221D01*
G37*
%TD.AperFunction*%
%TA.AperFunction,SMDPad,CuDef*%
%TO.P,U1,1*%
%TO.N,Net-(U1-Pad1)*%
G36*
X89075243Y-47006536D02*
G01*
X88686334Y-47395445D01*
X87554963Y-46264074D01*
X87943872Y-45875165D01*
X89075243Y-47006536D01*
G37*
%TD.AperFunction*%
%TD*%
%TO.P,R8,2*%
%TO.N,Net-(C3-Pad1)*%
%TA.AperFunction,SMDPad,CuDef*%
G36*
G01*
X69450000Y-37349999D02*
X69450000Y-38250001D01*
G75*
G02*
X69200001Y-38500000I-249999J0D01*
G01*
X68549999Y-38500000D01*
G75*
G02*
X68300000Y-38250001I0J249999D01*
G01*
X68300000Y-37349999D01*
G75*
G02*
X68549999Y-37100000I249999J0D01*
G01*
X69200001Y-37100000D01*
G75*
G02*
X69450000Y-37349999I0J-249999D01*
G01*
G37*
%TD.AperFunction*%
%TO.P,R8,1*%
%TO.N,Net-(D2-Pad2)*%
%TA.AperFunction,SMDPad,CuDef*%
G36*
G01*
X71500000Y-37349999D02*
X71500000Y-38250001D01*
G75*
G02*
X71250001Y-38500000I-249999J0D01*
G01*
X70599999Y-38500000D01*
G75*
G02*
X70350000Y-38250001I0J249999D01*
G01*
X70350000Y-37349999D01*
G75*
G02*
X70599999Y-37100000I249999J0D01*
G01*
X71250001Y-37100000D01*
G75*
G02*
X71500000Y-37349999I0J-249999D01*
G01*
G37*
%TD.AperFunction*%
%TD*%
%TO.P,R7,2*%
%TO.N,CC1101_PWR*%
%TA.AperFunction,SMDPad,CuDef*%
G36*
G01*
X71949999Y-49125000D02*
X72850001Y-49125000D01*
G75*
G02*
X73100000Y-49374999I0J-249999D01*
G01*
X73100000Y-50025001D01*
G75*
G02*
X72850001Y-50275000I-249999J0D01*
G01*
X71949999Y-50275000D01*
G75*
G02*
X71700000Y-50025001I0J249999D01*
G01*
X71700000Y-49374999D01*
G75*
G02*
X71949999Y-49125000I249999J0D01*
G01*
G37*
%TD.AperFunction*%
%TO.P,R7,1*%
%TO.N,Net-(Q1-Pad1)*%
%TA.AperFunction,SMDPad,CuDef*%
G36*
G01*
X71949999Y-47075000D02*
X72850001Y-47075000D01*
G75*
G02*
X73100000Y-47324999I0J-249999D01*
G01*
X73100000Y-47975001D01*
G75*
G02*
X72850001Y-48225000I-249999J0D01*
G01*
X71949999Y-48225000D01*
G75*
G02*
X71700000Y-47975001I0J249999D01*
G01*
X71700000Y-47324999D01*
G75*
G02*
X71949999Y-47075000I249999J0D01*
G01*
G37*
%TD.AperFunction*%
%TD*%
D17*
%TO.P,Q1,3*%
%TO.N,Net-(C3-Pad1)*%
X71700000Y-42600000D03*
%TO.P,Q1,2*%
%TO.N,+BATT*%
X70750000Y-44600000D03*
%TO.P,Q1,1*%
%TO.N,Net-(Q1-Pad1)*%
X72650000Y-44600000D03*
%TD*%
D18*
%TO.P,D2,2*%
%TO.N,Net-(D2-Pad2)*%
X71030000Y-53450000D03*
%TO.P,D2,1*%
%TO.N,CS*%
X73930000Y-53450000D03*
%TD*%
D19*
%TO.P,D1,3*%
%TO.N,Net-(D1-Pad3)*%
X96660000Y-41910000D03*
%TO.P,D1,2*%
%TO.N,GND*%
X96660000Y-44450000D03*
D20*
%TO.P,D1,1*%
%TO.N,Net-(D1-Pad1)*%
X96660000Y-46990000D03*
%TD*%
%TO.P,C3,2*%
%TO.N,GND*%
%TA.AperFunction,SMDPad,CuDef*%
G36*
G01*
X65949999Y-39250000D02*
X66850001Y-39250000D01*
G75*
G02*
X67100000Y-39499999I0J-249999D01*
G01*
X67100000Y-40150001D01*
G75*
G02*
X66850001Y-40400000I-249999J0D01*
G01*
X65949999Y-40400000D01*
G75*
G02*
X65700000Y-40150001I0J249999D01*
G01*
X65700000Y-39499999D01*
G75*
G02*
X65949999Y-39250000I249999J0D01*
G01*
G37*
%TD.AperFunction*%
%TO.P,C3,1*%
%TO.N,Net-(C3-Pad1)*%
%TA.AperFunction,SMDPad,CuDef*%
G36*
G01*
X65949999Y-37200000D02*
X66850001Y-37200000D01*
G75*
G02*
X67100000Y-37449999I0J-249999D01*
G01*
X67100000Y-38100001D01*
G75*
G02*
X66850001Y-38350000I-249999J0D01*
G01*
X65949999Y-38350000D01*
G75*
G02*
X65700000Y-38100001I0J249999D01*
G01*
X65700000Y-37449999D01*
G75*
G02*
X65949999Y-37200000I249999J0D01*
G01*
G37*
%TD.AperFunction*%
%TD*%
%TO.P,C2,2*%
%TO.N,GND*%
%TA.AperFunction,SMDPad,CuDef*%
G36*
G01*
X78836396Y-40824801D02*
X78199999Y-40188404D01*
G75*
G02*
X78199999Y-39834852I176776J176776D01*
G01*
X78659620Y-39375231D01*
G75*
G02*
X79013172Y-39375231I176776J-176776D01*
G01*
X79649569Y-40011628D01*
G75*
G02*
X79649569Y-40365180I-176776J-176776D01*
G01*
X79189948Y-40824801D01*
G75*
G02*
X78836396Y-40824801I-176776J176776D01*
G01*
G37*
%TD.AperFunction*%
%TO.P,C2,1*%
%TO.N,Net-(C2-Pad1)*%
%TA.AperFunction,SMDPad,CuDef*%
G36*
G01*
X77386828Y-42274369D02*
X76750431Y-41637972D01*
G75*
G02*
X76750431Y-41284420I176776J176776D01*
G01*
X77210052Y-40824799D01*
G75*
G02*
X77563604Y-40824799I176776J-176776D01*
G01*
X78200001Y-41461196D01*
G75*
G02*
X78200001Y-41814748I-176776J-176776D01*
G01*
X77740380Y-42274369D01*
G75*
G02*
X77386828Y-42274369I-176776J176776D01*
G01*
G37*
%TD.AperFunction*%
%TD*%
%TO.P,C1,1*%
%TO.N,+BATT*%
%TA.AperFunction,SMDPad,CuDef*%
G36*
G01*
X88986828Y-51449569D02*
X88350431Y-50813172D01*
G75*
G02*
X88350431Y-50459620I176776J176776D01*
G01*
X88810052Y-49999999D01*
G75*
G02*
X89163604Y-49999999I176776J-176776D01*
G01*
X89800001Y-50636396D01*
G75*
G02*
X89800001Y-50989948I-176776J-176776D01*
G01*
X89340380Y-51449569D01*
G75*
G02*
X88986828Y-51449569I-176776J176776D01*
G01*
G37*
%TD.AperFunction*%
%TO.P,C1,2*%
%TO.N,GND*%
%TA.AperFunction,SMDPad,CuDef*%
G36*
G01*
X90436396Y-50000001D02*
X89799999Y-49363604D01*
G75*
G02*
X89799999Y-49010052I176776J176776D01*
G01*
X90259620Y-48550431D01*
G75*
G02*
X90613172Y-48550431I176776J-176776D01*
G01*
X91249569Y-49186828D01*
G75*
G02*
X91249569Y-49540380I-176776J-176776D01*
G01*
X90789948Y-50000001D01*
G75*
G02*
X90436396Y-50000001I-176776J176776D01*
G01*
G37*
%TD.AperFunction*%
%TD*%
D21*
%TO.N,+BATT*%
X74635300Y-42957000D03*
%TO.N,GND*%
X83307700Y-46362300D03*
X49000000Y-42000000D03*
X49000000Y-43500000D03*
X49000000Y-45000000D03*
X49000000Y-46500000D03*
X49000000Y-48000000D03*
X49000000Y-49500000D03*
X85500000Y-36500000D03*
X93500000Y-38000000D03*
%TO.N,Net-(D2-Pad2)*%
X71717900Y-41533000D03*
X67098500Y-47995200D03*
%TO.N,Net-(R1-Pad2)*%
X84105500Y-52542600D03*
%TO.N,Net-(R2-Pad2)*%
X83466200Y-49488500D03*
%TO.N,CC1101_PWR*%
X80480700Y-51496600D03*
X76387500Y-50757800D03*
%TO.N,Net-(SW1-Pad1)*%
X84388600Y-44796500D03*
%TO.N,Net-(U1-Pad27)*%
X81382800Y-38911000D03*
%TO.N,Net-(U1-Pad26)*%
X82530900Y-39516300D03*
%TO.N,Net-(U1-Pad25)*%
X83213600Y-40249400D03*
%TO.N,Net-(U1-Pad24)*%
X83258800Y-41709900D03*
%TO.N,SCK*%
X75190300Y-49903300D03*
%TO.N,MISO*%
X77376400Y-50316000D03*
%TO.N,MOSI*%
X78195900Y-49492800D03*
X75114300Y-58339400D03*
%TO.N,AVR_RST*%
X94756900Y-57680200D03*
%TO.N,TEST*%
X61660000Y-50565200D03*
X70636000Y-55888900D03*
%TO.N,MSP_RST*%
X92190000Y-48441400D03*
X69416200Y-55724000D03*
%TO.N,RX*%
X85443700Y-44350000D03*
%TO.N,TX*%
X82587500Y-44733700D03*
%TD*%
D22*
%TO.N,+BATT*%
X85486700Y-49463700D02*
X86282400Y-50259400D01*
X87140400Y-49999900D02*
X86541900Y-49999900D01*
X86541900Y-49999900D02*
X86282400Y-50259400D01*
X87140400Y-49999900D02*
X87140400Y-49401400D01*
X87140400Y-49401400D02*
X87413700Y-49128100D01*
X89075200Y-50724800D02*
X87865300Y-50724800D01*
X87865300Y-50724800D02*
X87140400Y-49999900D01*
X85486700Y-49463700D02*
X84691000Y-48668000D01*
X84691000Y-48668000D02*
X83559600Y-48668000D01*
X83559600Y-48668000D02*
X78910600Y-44019000D01*
X86618000Y-48332400D02*
X87413700Y-49128100D01*
X74635300Y-43223200D02*
X72670800Y-43223200D01*
X72670800Y-43223200D02*
X71475300Y-44418700D01*
X71475300Y-44418700D02*
X71475300Y-44600000D01*
X78114800Y-43223200D02*
X74635300Y-43223200D01*
X74635300Y-43223200D02*
X74635300Y-42957000D01*
X70750000Y-44600000D02*
X71475300Y-44600000D01*
X78910600Y-44019000D02*
X78114800Y-43223200D01*
%TO.N,GND*%
X78924800Y-40100000D02*
X78924800Y-40639200D01*
X78924800Y-40639200D02*
X80607600Y-42322000D01*
X62700000Y-39800000D02*
X61693400Y-38793400D01*
X75598500Y-36773700D02*
X78924800Y-40100000D01*
X80607600Y-42322000D02*
X81739700Y-43454100D01*
X81739700Y-43454100D02*
X81739700Y-44955800D01*
X83146200Y-46362300D02*
X83307700Y-46362300D01*
X85256700Y-48078100D02*
X85256700Y-48102300D01*
X86388000Y-46971000D02*
X86363800Y-46971000D01*
X83307700Y-46362300D02*
X83540900Y-46362300D01*
X83540900Y-46362300D02*
X85256700Y-48078100D01*
X86052400Y-48898000D02*
X85256700Y-48102300D01*
X87183700Y-47766700D02*
X86388000Y-46971000D01*
X55140000Y-57030000D02*
X55140000Y-47360000D01*
X55140000Y-47360000D02*
X62700000Y-39800000D01*
X96660000Y-44450000D02*
X95149700Y-44450000D01*
X88450000Y-56740000D02*
X89625300Y-56740000D01*
X90970000Y-56700000D02*
X90970000Y-56112300D01*
X64925300Y-39800000D02*
X64950300Y-39825000D01*
X64950300Y-39825000D02*
X66400000Y-39825000D01*
X63700000Y-39800000D02*
X62700000Y-39800000D01*
X64312700Y-39800000D02*
X63700000Y-39800000D01*
X64312700Y-39800000D02*
X64925300Y-39800000D01*
X90722700Y-51750100D02*
X89786600Y-52686200D01*
X89786600Y-55500000D02*
X91000000Y-57000000D01*
X89786600Y-52686200D02*
X89786600Y-55500000D01*
X90524800Y-49275200D02*
X90722700Y-49473100D01*
X90524800Y-49074900D02*
X90524800Y-49275200D01*
X90722700Y-49473100D02*
X90722700Y-51750100D01*
X90524784Y-49275216D02*
X90524784Y-47475216D01*
%TO.N,Net-(C2-Pad1)*%
X77475200Y-41549600D02*
X78704000Y-41549600D01*
X78704000Y-41549600D02*
X80042000Y-42887600D01*
%TO.N,Net-(C3-Pad1)*%
X71700000Y-42600000D02*
X70974700Y-42600000D01*
X70974700Y-42600000D02*
X70974700Y-39899700D01*
X70974700Y-39899700D02*
X68875000Y-37800000D01*
X68875000Y-37800000D02*
X66425000Y-37800000D01*
X66425000Y-37800000D02*
X66400000Y-37775000D01*
X63700000Y-37800000D02*
X64925300Y-37800000D01*
X66400000Y-37775000D02*
X64950300Y-37775000D01*
X64950300Y-37775000D02*
X64925300Y-37800000D01*
X63700000Y-37800000D02*
X62700000Y-37800000D01*
%TO.N,Net-(D2-Pad2)*%
X70925000Y-37800000D02*
X71717900Y-38592900D01*
X71717900Y-38592900D02*
X71717900Y-41533000D01*
X67098500Y-50223000D02*
X65521500Y-51800000D01*
X65521500Y-51800000D02*
X64925300Y-51800000D01*
X67098500Y-47995200D02*
X67098500Y-50223000D01*
X71030000Y-52374700D02*
X69250200Y-52374700D01*
X69250200Y-52374700D02*
X67098500Y-50223000D01*
X63700000Y-51800000D02*
X64925300Y-51800000D01*
X71030000Y-53450000D02*
X71030000Y-52374700D01*
X63087600Y-51800000D02*
X62700000Y-51800000D01*
X63700000Y-51800000D02*
X63087600Y-51800000D01*
%TO.N,CS*%
X75355300Y-53450000D02*
X75447400Y-53450000D01*
X75447400Y-53450000D02*
X78938500Y-49958900D01*
X78938500Y-49958900D02*
X78938500Y-48820300D01*
X78938500Y-48820300D02*
X78680600Y-48562400D01*
X79476300Y-47766700D02*
X78680600Y-48562400D01*
X73930000Y-53450000D02*
X75355300Y-53450000D01*
%TO.N,Net-(Q1-Pad1)*%
X72650000Y-44600000D02*
X72650000Y-47400000D01*
X72650000Y-47400000D02*
X72400000Y-47650000D01*
%TO.N,Net-(R1-Pad2)*%
X84105500Y-52542600D02*
X80441600Y-52542600D01*
X80441600Y-52542600D02*
X79717900Y-51818900D01*
X79717900Y-51818900D02*
X79717900Y-49787700D01*
X79717900Y-49787700D02*
X80607600Y-48898000D01*
%TO.N,Net-(R2-Pad2)*%
X80837700Y-47536700D02*
X81514400Y-47536700D01*
X81514400Y-47536700D02*
X83466200Y-49488500D01*
X80042000Y-48332400D02*
X80837700Y-47536700D01*
%TO.N,CC1101_PWR*%
X76387500Y-50757800D02*
X73457800Y-50757800D01*
X73457800Y-50757800D02*
X72400000Y-49700000D01*
X81509100Y-51390700D02*
X81509000Y-51390700D01*
X81509000Y-51390700D02*
X80586600Y-51390700D01*
X80586600Y-51390700D02*
X80480700Y-51496600D01*
X82304700Y-50595100D02*
X81509100Y-51390700D01*
%TO.N,Net-(SW1-Pad1)*%
X84388600Y-44796500D02*
X82366100Y-42774000D01*
X82366100Y-42774000D02*
X82366100Y-41817700D01*
X82366100Y-41817700D02*
X81739000Y-41190600D01*
%TO.N,GDO0*%
X64925300Y-49800000D02*
X64925300Y-49133500D01*
X64925300Y-49133500D02*
X66803600Y-47255200D01*
X66803600Y-47255200D02*
X67448300Y-47255200D01*
X67448300Y-47255200D02*
X72455400Y-52262300D01*
X72455400Y-52262300D02*
X72455400Y-54313200D01*
X72455400Y-54313200D02*
X72667600Y-54525400D01*
X72667600Y-54525400D02*
X78212400Y-54525400D01*
X78212400Y-54525400D02*
X79469900Y-53267900D01*
X79469900Y-53267900D02*
X86054600Y-53267900D01*
X86054600Y-53267900D02*
X86297900Y-53024600D01*
X86297900Y-53024600D02*
X88290900Y-53024600D01*
X88290900Y-53024600D02*
X90220400Y-51095100D01*
X90220400Y-51095100D02*
X90220400Y-50420400D01*
X90220400Y-50420400D02*
X89400700Y-49600700D01*
X89400700Y-49600700D02*
X89400700Y-45670300D01*
X89400700Y-45670300D02*
X88315100Y-44584700D01*
X63700000Y-49800000D02*
X64925300Y-49800000D01*
X62700000Y-49800000D02*
X63700000Y-49800000D01*
%TO.N,Net-(U1-Pad27)*%
X85486700Y-41756300D02*
X86282400Y-40960600D01*
X86282400Y-40960600D02*
X86282400Y-40268600D01*
X86282400Y-40268600D02*
X84787400Y-38773600D01*
X84787400Y-38773600D02*
X81520200Y-38773600D01*
X81520200Y-38773600D02*
X81382800Y-38911000D01*
%TO.N,Net-(U1-Pad26)*%
X85716800Y-40394800D02*
X84838300Y-39516300D01*
X84838300Y-39516300D02*
X82530900Y-39516300D01*
X84921000Y-41190600D02*
X85716800Y-40394800D01*
%TO.N,Net-(U1-Pad25)*%
X84355300Y-40624900D02*
X83589100Y-40624900D01*
X83589100Y-40624900D02*
X83213600Y-40249400D01*
%TO.N,Net-(U1-Pad24)*%
X83100400Y-41420500D02*
X83100300Y-41420600D01*
X83100300Y-41420600D02*
X83100300Y-41551400D01*
X83100300Y-41551400D02*
X83258800Y-41709900D01*
X82304700Y-40624900D02*
X83100400Y-41420500D01*
%TO.N,SCK*%
X75190300Y-48575800D02*
X70401300Y-48575800D01*
X70401300Y-48575800D02*
X65625500Y-43800000D01*
X65625500Y-43800000D02*
X63700000Y-43800000D01*
X77549300Y-43789000D02*
X77259600Y-44078700D01*
X77259600Y-44078700D02*
X77259600Y-44476500D01*
X77259600Y-44476500D02*
X75230400Y-46505700D01*
X75230400Y-46505700D02*
X75230400Y-48535700D01*
X75230400Y-48535700D02*
X75190300Y-48575800D01*
X75190300Y-48575800D02*
X75190300Y-49903300D01*
X78344900Y-44584700D02*
X77549300Y-43789000D01*
X63700000Y-43800000D02*
X62700000Y-43800000D01*
%TO.N,MISO*%
X78344900Y-46635300D02*
X77376400Y-47603800D01*
X77376400Y-47603800D02*
X77376400Y-50316000D01*
X63700000Y-45800000D02*
X66883000Y-45800000D01*
X66883000Y-45800000D02*
X72615100Y-51532100D01*
X72615100Y-51532100D02*
X76639000Y-51532100D01*
X76639000Y-51532100D02*
X77376400Y-50794700D01*
X77376400Y-50794700D02*
X77376400Y-50316000D01*
X62700000Y-45800000D02*
X63700000Y-45800000D01*
%TO.N,MOSI*%
X78910600Y-47201000D02*
X78114800Y-47996800D01*
X78114800Y-47996800D02*
X78195900Y-48077900D01*
X78195900Y-48077900D02*
X78195900Y-49492800D01*
X62700000Y-41800000D02*
X60914800Y-43585200D01*
X60914800Y-43585200D02*
X60914800Y-52172500D01*
X60914800Y-52172500D02*
X63944800Y-55202500D01*
X63944800Y-55202500D02*
X65680900Y-55202500D01*
X65680900Y-55202500D02*
X68817800Y-58339400D01*
X68817800Y-58339400D02*
X75114300Y-58339400D01*
X62700000Y-41800000D02*
X63700000Y-41800000D01*
%TO.N,Net-(U3-Pad6)*%
X63700000Y-47800000D02*
X62700000Y-47800000D01*
%TO.N,AVR_RST*%
X87413700Y-42091900D02*
X94841700Y-42091900D01*
X94841700Y-42091900D02*
X95929800Y-43180000D01*
X95929800Y-43180000D02*
X97152100Y-43180000D01*
X97152100Y-43180000D02*
X97885400Y-43913300D01*
X97885400Y-43913300D02*
X97885400Y-48450900D01*
X97885400Y-48450900D02*
X94756900Y-51579400D01*
X94756900Y-51579400D02*
X94756900Y-57680200D01*
X86618000Y-42887600D02*
X87413700Y-42091900D01*
%TO.N,TEST*%
X70636000Y-55888900D02*
X69364100Y-54617000D01*
X69364100Y-54617000D02*
X64054500Y-54617000D01*
X64054500Y-54617000D02*
X61660000Y-52222500D01*
X61660000Y-52222500D02*
X61660000Y-50565200D01*
%TO.N,MSP_RST*%
X82050000Y-54800000D02*
X82050000Y-53724700D01*
X82050000Y-53724700D02*
X83986800Y-53724700D01*
X83986800Y-53724700D02*
X85735000Y-55472900D01*
X85735000Y-55472900D02*
X85735000Y-55722800D01*
X85735000Y-55722800D02*
X87970400Y-57958200D01*
X87970400Y-57958200D02*
X91443700Y-57958200D01*
X91443700Y-57958200D02*
X92190000Y-57211900D01*
X92190000Y-57211900D02*
X92190000Y-48441400D01*
X81224700Y-54800000D02*
X80399400Y-55625300D01*
X80399400Y-55625300D02*
X72125100Y-55625300D01*
X72125100Y-55625300D02*
X71136100Y-56614300D01*
X71136100Y-56614300D02*
X70306500Y-56614300D01*
X70306500Y-56614300D02*
X69416200Y-55724000D01*
X82050000Y-54800000D02*
X81224700Y-54800000D01*
%TO.N,RX*%
X86388000Y-44249000D02*
X85544700Y-44249000D01*
X85544700Y-44249000D02*
X85443700Y-44350000D01*
X87183700Y-43453300D02*
X86388000Y-44249000D01*
%TO.N,TX*%
X87749400Y-44019000D02*
X86217000Y-45551400D01*
X86217000Y-45551400D02*
X83405200Y-45551400D01*
X83405200Y-45551400D02*
X82587500Y-44733700D01*
%TO.N,Net-(JP1-Pad2)*%
X83350000Y-54800000D02*
X84175300Y-54800000D01*
X86052400Y-42322000D02*
X87689800Y-40684600D01*
X87689800Y-40684600D02*
X97196300Y-40684600D01*
X97196300Y-40684600D02*
X98345700Y-41834000D01*
X98345700Y-41834000D02*
X98345700Y-56197300D01*
X98345700Y-56197300D02*
X96109700Y-58433300D01*
X96109700Y-58433300D02*
X87808600Y-58433300D01*
X87808600Y-58433300D02*
X84175300Y-54800000D01*
%TD*%
D23*
%TO.N,GND*%
X97992905Y-35671294D02*
X98072656Y-35695372D01*
X98146207Y-35734480D01*
X98210763Y-35787131D01*
X98263861Y-35851316D01*
X98303482Y-35924593D01*
X98328115Y-36004172D01*
X98339999Y-36117240D01*
X98339999Y-40753498D01*
X97760104Y-40173603D01*
X97736301Y-40144599D01*
X97620576Y-40049626D01*
X97488547Y-39979054D01*
X97345286Y-39935597D01*
X97233633Y-39924600D01*
X97233622Y-39924600D01*
X97196300Y-39920924D01*
X97158978Y-39924600D01*
X89252640Y-39924600D01*
X89291383Y-39831067D01*
X89335000Y-39611788D01*
X89335000Y-39388212D01*
X89291383Y-39168933D01*
X89205824Y-38962376D01*
X89081612Y-38776480D01*
X88923520Y-38618388D01*
X88821170Y-38550000D01*
X88923520Y-38481612D01*
X89081612Y-38323520D01*
X89205824Y-38137624D01*
X89291383Y-37931067D01*
X89335000Y-37711788D01*
X89335000Y-37488212D01*
X89291383Y-37268933D01*
X89205824Y-37062376D01*
X89081612Y-36876480D01*
X88923520Y-36718388D01*
X88737624Y-36594176D01*
X88531067Y-36508617D01*
X88311788Y-36465000D01*
X88088212Y-36465000D01*
X87868933Y-36508617D01*
X87662376Y-36594176D01*
X87476480Y-36718388D01*
X87318388Y-36876480D01*
X87194176Y-37062376D01*
X87108617Y-37268933D01*
X87065000Y-37488212D01*
X87065000Y-37711788D01*
X87108617Y-37931067D01*
X87194176Y-38137624D01*
X87318388Y-38323520D01*
X87476480Y-38481612D01*
X87578830Y-38550000D01*
X87476480Y-38618388D01*
X87318388Y-38776480D01*
X87194176Y-38962376D01*
X87108617Y-39168933D01*
X87065000Y-39388212D01*
X87065000Y-39611788D01*
X87108617Y-39831067D01*
X87194176Y-40037624D01*
X87224624Y-40083192D01*
X87149799Y-40144599D01*
X87126001Y-40173597D01*
X87044724Y-40254874D01*
X87042400Y-40231276D01*
X87042400Y-40231267D01*
X87031403Y-40119614D01*
X86987946Y-39976353D01*
X86917374Y-39844324D01*
X86822401Y-39728599D01*
X86793403Y-39704801D01*
X85351204Y-38262603D01*
X85327401Y-38233599D01*
X85211676Y-38138626D01*
X85079647Y-38068054D01*
X84936386Y-38024597D01*
X84824733Y-38013600D01*
X84824722Y-38013600D01*
X84787400Y-38009924D01*
X84750078Y-38013600D01*
X81902696Y-38013600D01*
X81873056Y-37993795D01*
X81684698Y-37915774D01*
X81484739Y-37876000D01*
X81280861Y-37876000D01*
X81080902Y-37915774D01*
X80892544Y-37993795D01*
X80723026Y-38107063D01*
X80578863Y-38251226D01*
X80465595Y-38420744D01*
X80387574Y-38609102D01*
X80347800Y-38809061D01*
X80347800Y-39012939D01*
X80387574Y-39212898D01*
X80465595Y-39401256D01*
X80578863Y-39570774D01*
X80723026Y-39714937D01*
X80892544Y-39828205D01*
X81026666Y-39883760D01*
X81014018Y-39899172D01*
X81013762Y-39899651D01*
X81013285Y-39899906D01*
X80916594Y-39979258D01*
X80527685Y-40368167D01*
X80448333Y-40464858D01*
X80448078Y-40465335D01*
X80447599Y-40465591D01*
X80359605Y-40537806D01*
X80415847Y-40432584D01*
X80452157Y-40312886D01*
X80464417Y-40188404D01*
X80452157Y-40063923D01*
X80415847Y-39944225D01*
X80356883Y-39833911D01*
X80277530Y-39737219D01*
X79982439Y-39446473D01*
X79757933Y-39446473D01*
X79104389Y-40100016D01*
X79118532Y-40114159D01*
X78938927Y-40293764D01*
X78924784Y-40279621D01*
X78910642Y-40293764D01*
X78731037Y-40114159D01*
X78745179Y-40100016D01*
X78003247Y-39358084D01*
X77778741Y-39358084D01*
X77572038Y-39560443D01*
X77492685Y-39657134D01*
X77433721Y-39767448D01*
X77397411Y-39887146D01*
X77385151Y-40011628D01*
X77395267Y-40114335D01*
X77386828Y-40113504D01*
X77213574Y-40130568D01*
X77046978Y-40181104D01*
X76893442Y-40263171D01*
X76758867Y-40373614D01*
X76299246Y-40833235D01*
X76188803Y-40967810D01*
X76106736Y-41121346D01*
X76056200Y-41287942D01*
X76039136Y-41461196D01*
X76056200Y-41634450D01*
X76106736Y-41801046D01*
X76188803Y-41954582D01*
X76299246Y-42089157D01*
X76673289Y-42463200D01*
X75550137Y-42463200D01*
X75439237Y-42297226D01*
X75295074Y-42153063D01*
X75125556Y-42039795D01*
X74937198Y-41961774D01*
X74737239Y-41922000D01*
X74533361Y-41922000D01*
X74333402Y-41961774D01*
X74145044Y-42039795D01*
X73975526Y-42153063D01*
X73831363Y-42297226D01*
X73720463Y-42463200D01*
X72738072Y-42463200D01*
X72738072Y-42150000D01*
X72725812Y-42025518D01*
X72689502Y-41905820D01*
X72686261Y-41899756D01*
X72713126Y-41834898D01*
X72752900Y-41634939D01*
X72752900Y-41431061D01*
X72713126Y-41231102D01*
X72635105Y-41042744D01*
X72521837Y-40873226D01*
X72477900Y-40829289D01*
X72477900Y-38953973D01*
X78182852Y-38953973D01*
X78182852Y-39178479D01*
X78924784Y-39920411D01*
X79578327Y-39266867D01*
X79578327Y-39042361D01*
X79287581Y-38747270D01*
X79190889Y-38667917D01*
X79080575Y-38608953D01*
X78960877Y-38572643D01*
X78836396Y-38560383D01*
X78711914Y-38572643D01*
X78592216Y-38608953D01*
X78481902Y-38667917D01*
X78385211Y-38747270D01*
X78182852Y-38953973D01*
X72477900Y-38953973D01*
X72477900Y-38630223D01*
X72481576Y-38592900D01*
X72477900Y-38555577D01*
X72477900Y-38555567D01*
X72466903Y-38443914D01*
X72423446Y-38300653D01*
X72408801Y-38273255D01*
X72352874Y-38168623D01*
X72281699Y-38081897D01*
X72257901Y-38052899D01*
X72228904Y-38029102D01*
X72138072Y-37938270D01*
X72138072Y-37349999D01*
X72121008Y-37176745D01*
X72070472Y-37010149D01*
X71988405Y-36856613D01*
X71877962Y-36722038D01*
X71743387Y-36611595D01*
X71589851Y-36529528D01*
X71423255Y-36478992D01*
X71250001Y-36461928D01*
X70599999Y-36461928D01*
X70426745Y-36478992D01*
X70260149Y-36529528D01*
X70106613Y-36611595D01*
X69972038Y-36722038D01*
X69900000Y-36809816D01*
X69827962Y-36722038D01*
X69693387Y-36611595D01*
X69539851Y-36529528D01*
X69373255Y-36478992D01*
X69200001Y-36461928D01*
X68549999Y-36461928D01*
X68376745Y-36478992D01*
X68210149Y-36529528D01*
X68056613Y-36611595D01*
X67922038Y-36722038D01*
X67811595Y-36856613D01*
X67729528Y-37010149D01*
X67720473Y-37040000D01*
X67632976Y-37040000D01*
X67588405Y-36956613D01*
X67477962Y-36822038D01*
X67343387Y-36711595D01*
X67189851Y-36629528D01*
X67023255Y-36578992D01*
X66850001Y-36561928D01*
X65949999Y-36561928D01*
X65776745Y-36578992D01*
X65610149Y-36629528D01*
X65456613Y-36711595D01*
X65322038Y-36822038D01*
X65212251Y-36955814D01*
X65189502Y-36880820D01*
X65130537Y-36770506D01*
X65051185Y-36673815D01*
X64954494Y-36594463D01*
X64844180Y-36535498D01*
X64724482Y-36499188D01*
X64600000Y-36486928D01*
X62800000Y-36486928D01*
X62768808Y-36490000D01*
X62570976Y-36490000D01*
X62317887Y-36540342D01*
X62079482Y-36639093D01*
X61864923Y-36782456D01*
X61682456Y-36964923D01*
X61539093Y-37179482D01*
X61440342Y-37417887D01*
X61390000Y-37670976D01*
X61390000Y-37929024D01*
X61440342Y-38182113D01*
X61539093Y-38420518D01*
X61682456Y-38635077D01*
X61864923Y-38817544D01*
X61977191Y-38892559D01*
X61976205Y-38896600D01*
X62165754Y-39086149D01*
X62161928Y-39125000D01*
X62164446Y-39444051D01*
X61796600Y-39076205D01*
X61565379Y-39132630D01*
X61456983Y-39366808D01*
X61396355Y-39617633D01*
X61385826Y-39875465D01*
X61425800Y-40130398D01*
X61514741Y-40372633D01*
X61565379Y-40467370D01*
X61796600Y-40523795D01*
X62164446Y-40155949D01*
X62161928Y-40475000D01*
X62165754Y-40513851D01*
X61976205Y-40703400D01*
X61977191Y-40707441D01*
X61864923Y-40782456D01*
X61682456Y-40964923D01*
X61539093Y-41179482D01*
X61440342Y-41417887D01*
X61390000Y-41670976D01*
X61390000Y-41929024D01*
X61407615Y-42017583D01*
X60403803Y-43021396D01*
X60374799Y-43045199D01*
X60343389Y-43083473D01*
X60279826Y-43160924D01*
X60217073Y-43278326D01*
X60209254Y-43292954D01*
X60165797Y-43436215D01*
X60154800Y-43547868D01*
X60154800Y-43547878D01*
X60151124Y-43585200D01*
X60154800Y-43622522D01*
X60154801Y-52135168D01*
X60151124Y-52172500D01*
X60154801Y-52209833D01*
X60165798Y-52321486D01*
X60172347Y-52343076D01*
X60209254Y-52464746D01*
X60279826Y-52596776D01*
X60337414Y-52666946D01*
X60374800Y-52712501D01*
X60403798Y-52736299D01*
X63323594Y-55656096D01*
X63193158Y-55602068D01*
X62906260Y-55545000D01*
X62613740Y-55545000D01*
X62326842Y-55602068D01*
X62056589Y-55714010D01*
X61813368Y-55876525D01*
X61606525Y-56083368D01*
X61490000Y-56257760D01*
X61373475Y-56083368D01*
X61166632Y-55876525D01*
X60923411Y-55714010D01*
X60653158Y-55602068D01*
X60366260Y-55545000D01*
X60073740Y-55545000D01*
X59786842Y-55602068D01*
X59516589Y-55714010D01*
X59273368Y-55876525D01*
X59066525Y-56083368D01*
X58950000Y-56257760D01*
X58833475Y-56083368D01*
X58626632Y-55876525D01*
X58383411Y-55714010D01*
X58113158Y-55602068D01*
X57826260Y-55545000D01*
X57533740Y-55545000D01*
X57246842Y-55602068D01*
X56976589Y-55714010D01*
X56733368Y-55876525D01*
X56526525Y-56083368D01*
X56404805Y-56265534D01*
X56335178Y-56148645D01*
X56140269Y-55932412D01*
X55906920Y-55758359D01*
X55644099Y-55633175D01*
X55496890Y-55588524D01*
X55267000Y-55709845D01*
X55267000Y-56903000D01*
X55287000Y-56903000D01*
X55287000Y-57157000D01*
X55267000Y-57157000D01*
X55267000Y-57177000D01*
X55013000Y-57177000D01*
X55013000Y-57157000D01*
X52727000Y-57157000D01*
X52727000Y-57177000D01*
X52473000Y-57177000D01*
X52473000Y-57157000D01*
X51279186Y-57157000D01*
X51158519Y-57386891D01*
X51255843Y-57661252D01*
X51404822Y-57911355D01*
X51599731Y-58127588D01*
X51833080Y-58301641D01*
X51913615Y-58340001D01*
X43122289Y-58340001D01*
X43007094Y-58328706D01*
X42927344Y-58304628D01*
X42853795Y-58265521D01*
X42789237Y-58212869D01*
X42736139Y-58148684D01*
X42696518Y-58075406D01*
X42671885Y-57995829D01*
X42660001Y-57882759D01*
X42660001Y-56673109D01*
X51158519Y-56673109D01*
X51279186Y-56903000D01*
X52473000Y-56903000D01*
X52473000Y-55709845D01*
X52727000Y-55709845D01*
X52727000Y-56903000D01*
X55013000Y-56903000D01*
X55013000Y-55709845D01*
X54783110Y-55588524D01*
X54635901Y-55633175D01*
X54373080Y-55758359D01*
X54139731Y-55932412D01*
X53944822Y-56148645D01*
X53870000Y-56274255D01*
X53795178Y-56148645D01*
X53600269Y-55932412D01*
X53366920Y-55758359D01*
X53104099Y-55633175D01*
X52956890Y-55588524D01*
X52727000Y-55709845D01*
X52473000Y-55709845D01*
X52243110Y-55588524D01*
X52095901Y-55633175D01*
X51833080Y-55758359D01*
X51599731Y-55932412D01*
X51404822Y-56148645D01*
X51255843Y-56398748D01*
X51158519Y-56673109D01*
X42660001Y-56673109D01*
X42659998Y-36122288D01*
X42671293Y-36007094D01*
X42695371Y-35927343D01*
X42734479Y-35853792D01*
X42787130Y-35789236D01*
X42851315Y-35736138D01*
X42924592Y-35696517D01*
X43004171Y-35671884D01*
X43117239Y-35660000D01*
X97877721Y-35660000D01*
X97992905Y-35671294D01*
%TA.AperFunction,Conductor*%
D24*
G36*
X97992905Y-35671294D02*
G01*
X98072656Y-35695372D01*
X98146207Y-35734480D01*
X98210763Y-35787131D01*
X98263861Y-35851316D01*
X98303482Y-35924593D01*
X98328115Y-36004172D01*
X98339999Y-36117240D01*
X98339999Y-40753498D01*
X97760104Y-40173603D01*
X97736301Y-40144599D01*
X97620576Y-40049626D01*
X97488547Y-39979054D01*
X97345286Y-39935597D01*
X97233633Y-39924600D01*
X97233622Y-39924600D01*
X97196300Y-39920924D01*
X97158978Y-39924600D01*
X89252640Y-39924600D01*
X89291383Y-39831067D01*
X89335000Y-39611788D01*
X89335000Y-39388212D01*
X89291383Y-39168933D01*
X89205824Y-38962376D01*
X89081612Y-38776480D01*
X88923520Y-38618388D01*
X88821170Y-38550000D01*
X88923520Y-38481612D01*
X89081612Y-38323520D01*
X89205824Y-38137624D01*
X89291383Y-37931067D01*
X89335000Y-37711788D01*
X89335000Y-37488212D01*
X89291383Y-37268933D01*
X89205824Y-37062376D01*
X89081612Y-36876480D01*
X88923520Y-36718388D01*
X88737624Y-36594176D01*
X88531067Y-36508617D01*
X88311788Y-36465000D01*
X88088212Y-36465000D01*
X87868933Y-36508617D01*
X87662376Y-36594176D01*
X87476480Y-36718388D01*
X87318388Y-36876480D01*
X87194176Y-37062376D01*
X87108617Y-37268933D01*
X87065000Y-37488212D01*
X87065000Y-37711788D01*
X87108617Y-37931067D01*
X87194176Y-38137624D01*
X87318388Y-38323520D01*
X87476480Y-38481612D01*
X87578830Y-38550000D01*
X87476480Y-38618388D01*
X87318388Y-38776480D01*
X87194176Y-38962376D01*
X87108617Y-39168933D01*
X87065000Y-39388212D01*
X87065000Y-39611788D01*
X87108617Y-39831067D01*
X87194176Y-40037624D01*
X87224624Y-40083192D01*
X87149799Y-40144599D01*
X87126001Y-40173597D01*
X87044724Y-40254874D01*
X87042400Y-40231276D01*
X87042400Y-40231267D01*
X87031403Y-40119614D01*
X86987946Y-39976353D01*
X86917374Y-39844324D01*
X86822401Y-39728599D01*
X86793403Y-39704801D01*
X85351204Y-38262603D01*
X85327401Y-38233599D01*
X85211676Y-38138626D01*
X85079647Y-38068054D01*
X84936386Y-38024597D01*
X84824733Y-38013600D01*
X84824722Y-38013600D01*
X84787400Y-38009924D01*
X84750078Y-38013600D01*
X81902696Y-38013600D01*
X81873056Y-37993795D01*
X81684698Y-37915774D01*
X81484739Y-37876000D01*
X81280861Y-37876000D01*
X81080902Y-37915774D01*
X80892544Y-37993795D01*
X80723026Y-38107063D01*
X80578863Y-38251226D01*
X80465595Y-38420744D01*
X80387574Y-38609102D01*
X80347800Y-38809061D01*
X80347800Y-39012939D01*
X80387574Y-39212898D01*
X80465595Y-39401256D01*
X80578863Y-39570774D01*
X80723026Y-39714937D01*
X80892544Y-39828205D01*
X81026666Y-39883760D01*
X81014018Y-39899172D01*
X81013762Y-39899651D01*
X81013285Y-39899906D01*
X80916594Y-39979258D01*
X80527685Y-40368167D01*
X80448333Y-40464858D01*
X80448078Y-40465335D01*
X80447599Y-40465591D01*
X80359605Y-40537806D01*
X80415847Y-40432584D01*
X80452157Y-40312886D01*
X80464417Y-40188404D01*
X80452157Y-40063923D01*
X80415847Y-39944225D01*
X80356883Y-39833911D01*
X80277530Y-39737219D01*
X79982439Y-39446473D01*
X79757933Y-39446473D01*
X79104389Y-40100016D01*
X79118532Y-40114159D01*
X78938927Y-40293764D01*
X78924784Y-40279621D01*
X78910642Y-40293764D01*
X78731037Y-40114159D01*
X78745179Y-40100016D01*
X78003247Y-39358084D01*
X77778741Y-39358084D01*
X77572038Y-39560443D01*
X77492685Y-39657134D01*
X77433721Y-39767448D01*
X77397411Y-39887146D01*
X77385151Y-40011628D01*
X77395267Y-40114335D01*
X77386828Y-40113504D01*
X77213574Y-40130568D01*
X77046978Y-40181104D01*
X76893442Y-40263171D01*
X76758867Y-40373614D01*
X76299246Y-40833235D01*
X76188803Y-40967810D01*
X76106736Y-41121346D01*
X76056200Y-41287942D01*
X76039136Y-41461196D01*
X76056200Y-41634450D01*
X76106736Y-41801046D01*
X76188803Y-41954582D01*
X76299246Y-42089157D01*
X76673289Y-42463200D01*
X75550137Y-42463200D01*
X75439237Y-42297226D01*
X75295074Y-42153063D01*
X75125556Y-42039795D01*
X74937198Y-41961774D01*
X74737239Y-41922000D01*
X74533361Y-41922000D01*
X74333402Y-41961774D01*
X74145044Y-42039795D01*
X73975526Y-42153063D01*
X73831363Y-42297226D01*
X73720463Y-42463200D01*
X72738072Y-42463200D01*
X72738072Y-42150000D01*
X72725812Y-42025518D01*
X72689502Y-41905820D01*
X72686261Y-41899756D01*
X72713126Y-41834898D01*
X72752900Y-41634939D01*
X72752900Y-41431061D01*
X72713126Y-41231102D01*
X72635105Y-41042744D01*
X72521837Y-40873226D01*
X72477900Y-40829289D01*
X72477900Y-38953973D01*
X78182852Y-38953973D01*
X78182852Y-39178479D01*
X78924784Y-39920411D01*
X79578327Y-39266867D01*
X79578327Y-39042361D01*
X79287581Y-38747270D01*
X79190889Y-38667917D01*
X79080575Y-38608953D01*
X78960877Y-38572643D01*
X78836396Y-38560383D01*
X78711914Y-38572643D01*
X78592216Y-38608953D01*
X78481902Y-38667917D01*
X78385211Y-38747270D01*
X78182852Y-38953973D01*
X72477900Y-38953973D01*
X72477900Y-38630223D01*
X72481576Y-38592900D01*
X72477900Y-38555577D01*
X72477900Y-38555567D01*
X72466903Y-38443914D01*
X72423446Y-38300653D01*
X72408801Y-38273255D01*
X72352874Y-38168623D01*
X72281699Y-38081897D01*
X72257901Y-38052899D01*
X72228904Y-38029102D01*
X72138072Y-37938270D01*
X72138072Y-37349999D01*
X72121008Y-37176745D01*
X72070472Y-37010149D01*
X71988405Y-36856613D01*
X71877962Y-36722038D01*
X71743387Y-36611595D01*
X71589851Y-36529528D01*
X71423255Y-36478992D01*
X71250001Y-36461928D01*
X70599999Y-36461928D01*
X70426745Y-36478992D01*
X70260149Y-36529528D01*
X70106613Y-36611595D01*
X69972038Y-36722038D01*
X69900000Y-36809816D01*
X69827962Y-36722038D01*
X69693387Y-36611595D01*
X69539851Y-36529528D01*
X69373255Y-36478992D01*
X69200001Y-36461928D01*
X68549999Y-36461928D01*
X68376745Y-36478992D01*
X68210149Y-36529528D01*
X68056613Y-36611595D01*
X67922038Y-36722038D01*
X67811595Y-36856613D01*
X67729528Y-37010149D01*
X67720473Y-37040000D01*
X67632976Y-37040000D01*
X67588405Y-36956613D01*
X67477962Y-36822038D01*
X67343387Y-36711595D01*
X67189851Y-36629528D01*
X67023255Y-36578992D01*
X66850001Y-36561928D01*
X65949999Y-36561928D01*
X65776745Y-36578992D01*
X65610149Y-36629528D01*
X65456613Y-36711595D01*
X65322038Y-36822038D01*
X65212251Y-36955814D01*
X65189502Y-36880820D01*
X65130537Y-36770506D01*
X65051185Y-36673815D01*
X64954494Y-36594463D01*
X64844180Y-36535498D01*
X64724482Y-36499188D01*
X64600000Y-36486928D01*
X62800000Y-36486928D01*
X62768808Y-36490000D01*
X62570976Y-36490000D01*
X62317887Y-36540342D01*
X62079482Y-36639093D01*
X61864923Y-36782456D01*
X61682456Y-36964923D01*
X61539093Y-37179482D01*
X61440342Y-37417887D01*
X61390000Y-37670976D01*
X61390000Y-37929024D01*
X61440342Y-38182113D01*
X61539093Y-38420518D01*
X61682456Y-38635077D01*
X61864923Y-38817544D01*
X61977191Y-38892559D01*
X61976205Y-38896600D01*
X62165754Y-39086149D01*
X62161928Y-39125000D01*
X62164446Y-39444051D01*
X61796600Y-39076205D01*
X61565379Y-39132630D01*
X61456983Y-39366808D01*
X61396355Y-39617633D01*
X61385826Y-39875465D01*
X61425800Y-40130398D01*
X61514741Y-40372633D01*
X61565379Y-40467370D01*
X61796600Y-40523795D01*
X62164446Y-40155949D01*
X62161928Y-40475000D01*
X62165754Y-40513851D01*
X61976205Y-40703400D01*
X61977191Y-40707441D01*
X61864923Y-40782456D01*
X61682456Y-40964923D01*
X61539093Y-41179482D01*
X61440342Y-41417887D01*
X61390000Y-41670976D01*
X61390000Y-41929024D01*
X61407615Y-42017583D01*
X60403803Y-43021396D01*
X60374799Y-43045199D01*
X60343389Y-43083473D01*
X60279826Y-43160924D01*
X60217073Y-43278326D01*
X60209254Y-43292954D01*
X60165797Y-43436215D01*
X60154800Y-43547868D01*
X60154800Y-43547878D01*
X60151124Y-43585200D01*
X60154800Y-43622522D01*
X60154801Y-52135168D01*
X60151124Y-52172500D01*
X60154801Y-52209833D01*
X60165798Y-52321486D01*
X60172347Y-52343076D01*
X60209254Y-52464746D01*
X60279826Y-52596776D01*
X60337414Y-52666946D01*
X60374800Y-52712501D01*
X60403798Y-52736299D01*
X63323594Y-55656096D01*
X63193158Y-55602068D01*
X62906260Y-55545000D01*
X62613740Y-55545000D01*
X62326842Y-55602068D01*
X62056589Y-55714010D01*
X61813368Y-55876525D01*
X61606525Y-56083368D01*
X61490000Y-56257760D01*
X61373475Y-56083368D01*
X61166632Y-55876525D01*
X60923411Y-55714010D01*
X60653158Y-55602068D01*
X60366260Y-55545000D01*
X60073740Y-55545000D01*
X59786842Y-55602068D01*
X59516589Y-55714010D01*
X59273368Y-55876525D01*
X59066525Y-56083368D01*
X58950000Y-56257760D01*
X58833475Y-56083368D01*
X58626632Y-55876525D01*
X58383411Y-55714010D01*
X58113158Y-55602068D01*
X57826260Y-55545000D01*
X57533740Y-55545000D01*
X57246842Y-55602068D01*
X56976589Y-55714010D01*
X56733368Y-55876525D01*
X56526525Y-56083368D01*
X56404805Y-56265534D01*
X56335178Y-56148645D01*
X56140269Y-55932412D01*
X55906920Y-55758359D01*
X55644099Y-55633175D01*
X55496890Y-55588524D01*
X55267000Y-55709845D01*
X55267000Y-56903000D01*
X55287000Y-56903000D01*
X55287000Y-57157000D01*
X55267000Y-57157000D01*
X55267000Y-57177000D01*
X55013000Y-57177000D01*
X55013000Y-57157000D01*
X52727000Y-57157000D01*
X52727000Y-57177000D01*
X52473000Y-57177000D01*
X52473000Y-57157000D01*
X51279186Y-57157000D01*
X51158519Y-57386891D01*
X51255843Y-57661252D01*
X51404822Y-57911355D01*
X51599731Y-58127588D01*
X51833080Y-58301641D01*
X51913615Y-58340001D01*
X43122289Y-58340001D01*
X43007094Y-58328706D01*
X42927344Y-58304628D01*
X42853795Y-58265521D01*
X42789237Y-58212869D01*
X42736139Y-58148684D01*
X42696518Y-58075406D01*
X42671885Y-57995829D01*
X42660001Y-57882759D01*
X42660001Y-56673109D01*
X51158519Y-56673109D01*
X51279186Y-56903000D01*
X52473000Y-56903000D01*
X52473000Y-55709845D01*
X52727000Y-55709845D01*
X52727000Y-56903000D01*
X55013000Y-56903000D01*
X55013000Y-55709845D01*
X54783110Y-55588524D01*
X54635901Y-55633175D01*
X54373080Y-55758359D01*
X54139731Y-55932412D01*
X53944822Y-56148645D01*
X53870000Y-56274255D01*
X53795178Y-56148645D01*
X53600269Y-55932412D01*
X53366920Y-55758359D01*
X53104099Y-55633175D01*
X52956890Y-55588524D01*
X52727000Y-55709845D01*
X52473000Y-55709845D01*
X52243110Y-55588524D01*
X52095901Y-55633175D01*
X51833080Y-55758359D01*
X51599731Y-55932412D01*
X51404822Y-56148645D01*
X51255843Y-56398748D01*
X51158519Y-56673109D01*
X42660001Y-56673109D01*
X42659998Y-36122288D01*
X42671293Y-36007094D01*
X42695371Y-35927343D01*
X42734479Y-35853792D01*
X42787130Y-35789236D01*
X42851315Y-35736138D01*
X42924592Y-35696517D01*
X43004171Y-35671884D01*
X43117239Y-35660000D01*
X97877721Y-35660000D01*
X97992905Y-35671294D01*
G37*
%TD.AperFunction*%
D23*
X96197000Y-56673000D02*
X96217000Y-56673000D01*
X96217000Y-56927000D01*
X96197000Y-56927000D01*
X96197000Y-56947000D01*
X95943000Y-56947000D01*
X95943000Y-56927000D01*
X95923000Y-56927000D01*
X95923000Y-56673000D01*
X95943000Y-56673000D01*
X95943000Y-56653000D01*
X96197000Y-56653000D01*
X96197000Y-56673000D01*
%TA.AperFunction,Conductor*%
D24*
G36*
X96197000Y-56673000D02*
G01*
X96217000Y-56673000D01*
X96217000Y-56927000D01*
X96197000Y-56927000D01*
X96197000Y-56947000D01*
X95943000Y-56947000D01*
X95943000Y-56927000D01*
X95923000Y-56927000D01*
X95923000Y-56673000D01*
X95943000Y-56673000D01*
X95943000Y-56653000D01*
X96197000Y-56653000D01*
X96197000Y-56673000D01*
G37*
%TD.AperFunction*%
D23*
X91097000Y-56573000D02*
X91117000Y-56573000D01*
X91117000Y-56827000D01*
X91097000Y-56827000D01*
X91097000Y-56847000D01*
X90843000Y-56847000D01*
X90843000Y-56827000D01*
X89649186Y-56827000D01*
X89628190Y-56867000D01*
X88577000Y-56867000D01*
X88577000Y-56887000D01*
X88323000Y-56887000D01*
X88323000Y-56867000D01*
X88303000Y-56867000D01*
X88303000Y-56613000D01*
X88323000Y-56613000D01*
X88323000Y-56593000D01*
X88577000Y-56593000D01*
X88577000Y-56613000D01*
X89770814Y-56613000D01*
X89791810Y-56573000D01*
X90843000Y-56573000D01*
X90843000Y-56553000D01*
X91097000Y-56553000D01*
X91097000Y-56573000D01*
%TA.AperFunction,Conductor*%
D24*
G36*
X91097000Y-56573000D02*
G01*
X91117000Y-56573000D01*
X91117000Y-56827000D01*
X91097000Y-56827000D01*
X91097000Y-56847000D01*
X90843000Y-56847000D01*
X90843000Y-56827000D01*
X89649186Y-56827000D01*
X89628190Y-56867000D01*
X88577000Y-56867000D01*
X88577000Y-56887000D01*
X88323000Y-56887000D01*
X88323000Y-56867000D01*
X88303000Y-56867000D01*
X88303000Y-56613000D01*
X88323000Y-56613000D01*
X88323000Y-56593000D01*
X88577000Y-56593000D01*
X88577000Y-56613000D01*
X89770814Y-56613000D01*
X89791810Y-56573000D01*
X90843000Y-56573000D01*
X90843000Y-56553000D01*
X91097000Y-56553000D01*
X91097000Y-56573000D01*
G37*
%TD.AperFunction*%
D23*
X93597000Y-56613000D02*
X93617000Y-56613000D01*
X93617000Y-56867000D01*
X93597000Y-56867000D01*
X93597000Y-56887000D01*
X93343000Y-56887000D01*
X93343000Y-56867000D01*
X93323000Y-56867000D01*
X93323000Y-56613000D01*
X93343000Y-56613000D01*
X93343000Y-56593000D01*
X93597000Y-56593000D01*
X93597000Y-56613000D01*
%TA.AperFunction,Conductor*%
D24*
G36*
X93597000Y-56613000D02*
G01*
X93617000Y-56613000D01*
X93617000Y-56867000D01*
X93597000Y-56867000D01*
X93597000Y-56887000D01*
X93343000Y-56887000D01*
X93343000Y-56867000D01*
X93323000Y-56867000D01*
X93323000Y-56613000D01*
X93343000Y-56613000D01*
X93343000Y-56593000D01*
X93597000Y-56593000D01*
X93597000Y-56613000D01*
G37*
%TD.AperFunction*%
D23*
X89816525Y-55146632D02*
X90023368Y-55353475D01*
X90171119Y-55452199D01*
X89969731Y-55602412D01*
X89774822Y-55818645D01*
X89698087Y-55947467D01*
X89645178Y-55858645D01*
X89450269Y-55642412D01*
X89230045Y-55478149D01*
X89416632Y-55353475D01*
X89623475Y-55146632D01*
X89720000Y-55002172D01*
X89816525Y-55146632D01*
%TA.AperFunction,Conductor*%
D24*
G36*
X89816525Y-55146632D02*
G01*
X90023368Y-55353475D01*
X90171119Y-55452199D01*
X89969731Y-55602412D01*
X89774822Y-55818645D01*
X89698087Y-55947467D01*
X89645178Y-55858645D01*
X89450269Y-55642412D01*
X89230045Y-55478149D01*
X89416632Y-55353475D01*
X89623475Y-55146632D01*
X89720000Y-55002172D01*
X89816525Y-55146632D01*
G37*
%TD.AperFunction*%
D23*
X91378968Y-50309008D02*
X91430001Y-50257975D01*
X91430001Y-52783186D01*
X91403158Y-52772068D01*
X91116260Y-52715000D01*
X90823740Y-52715000D01*
X90536842Y-52772068D01*
X90266589Y-52884010D01*
X90023368Y-53046525D01*
X89816525Y-53253368D01*
X89720000Y-53397828D01*
X89623475Y-53253368D01*
X89416632Y-53046525D01*
X89372958Y-53017343D01*
X90731404Y-51658898D01*
X90760401Y-51635101D01*
X90786732Y-51603017D01*
X90855374Y-51519377D01*
X90925946Y-51387347D01*
X90934310Y-51359773D01*
X90969403Y-51244086D01*
X90980400Y-51132433D01*
X90980400Y-51132424D01*
X90984076Y-51095101D01*
X90980400Y-51057778D01*
X90980400Y-50696864D01*
X91064357Y-50627962D01*
X91266716Y-50421259D01*
X91266716Y-50196756D01*
X91378968Y-50309008D01*
%TA.AperFunction,Conductor*%
D24*
G36*
X91378968Y-50309008D02*
G01*
X91430001Y-50257975D01*
X91430001Y-52783186D01*
X91403158Y-52772068D01*
X91116260Y-52715000D01*
X90823740Y-52715000D01*
X90536842Y-52772068D01*
X90266589Y-52884010D01*
X90023368Y-53046525D01*
X89816525Y-53253368D01*
X89720000Y-53397828D01*
X89623475Y-53253368D01*
X89416632Y-53046525D01*
X89372958Y-53017343D01*
X90731404Y-51658898D01*
X90760401Y-51635101D01*
X90786732Y-51603017D01*
X90855374Y-51519377D01*
X90925946Y-51387347D01*
X90934310Y-51359773D01*
X90969403Y-51244086D01*
X90980400Y-51132433D01*
X90980400Y-51132424D01*
X90984076Y-51095101D01*
X90980400Y-51057778D01*
X90980400Y-50696864D01*
X91064357Y-50627962D01*
X91266716Y-50421259D01*
X91266716Y-50196756D01*
X91378968Y-50309008D01*
G37*
%TD.AperFunction*%
D23*
X95336051Y-43661053D02*
X95210842Y-43921775D01*
X95135635Y-44214642D01*
X95119009Y-44516553D01*
X95161603Y-44815907D01*
X95261778Y-45101199D01*
X95341739Y-45250792D01*
X95595918Y-45334474D01*
X95479970Y-45450422D01*
X95526735Y-45497187D01*
X95515820Y-45500498D01*
X95405506Y-45559463D01*
X95308815Y-45638815D01*
X95229463Y-45735506D01*
X95170498Y-45845820D01*
X95134188Y-45965518D01*
X95121928Y-46090000D01*
X95121928Y-47890000D01*
X95134188Y-48014482D01*
X95170498Y-48134180D01*
X95229463Y-48244494D01*
X95308815Y-48341185D01*
X95405506Y-48420537D01*
X95515820Y-48479502D01*
X95635518Y-48515812D01*
X95760000Y-48528072D01*
X96733426Y-48528072D01*
X94245903Y-51015596D01*
X94216899Y-51039399D01*
X94183844Y-51079677D01*
X94121926Y-51155124D01*
X94068487Y-51255101D01*
X94051354Y-51287154D01*
X94007897Y-51430415D01*
X93996900Y-51542068D01*
X93996900Y-51542078D01*
X93993224Y-51579400D01*
X93996900Y-51616723D01*
X93996900Y-52810897D01*
X93903158Y-52772068D01*
X93616260Y-52715000D01*
X93323740Y-52715000D01*
X93036842Y-52772068D01*
X92950000Y-52808039D01*
X92950000Y-49145111D01*
X92993937Y-49101174D01*
X93107205Y-48931656D01*
X93185226Y-48743298D01*
X93225000Y-48543339D01*
X93225000Y-48339461D01*
X93185226Y-48139502D01*
X93107205Y-47951144D01*
X92993937Y-47781626D01*
X92849774Y-47637463D01*
X92680256Y-47524195D01*
X92491898Y-47446174D01*
X92291939Y-47406400D01*
X92088061Y-47406400D01*
X91888102Y-47446174D01*
X91699744Y-47524195D01*
X91530226Y-47637463D01*
X91386063Y-47781626D01*
X91272795Y-47951144D01*
X91194774Y-48139502D01*
X91178327Y-48222187D01*
X91178327Y-48217561D01*
X90887581Y-47922470D01*
X90790889Y-47843117D01*
X90680575Y-47784153D01*
X90560877Y-47747843D01*
X90436396Y-47735583D01*
X90311914Y-47747843D01*
X90192216Y-47784153D01*
X90160700Y-47800999D01*
X90160700Y-45707622D01*
X90164376Y-45670299D01*
X90160700Y-45632976D01*
X90160700Y-45632967D01*
X90149703Y-45521314D01*
X90106246Y-45378053D01*
X90035674Y-45246024D01*
X89940701Y-45130299D01*
X89911703Y-45106501D01*
X89498139Y-44692938D01*
X89526428Y-44664649D01*
X89605780Y-44567958D01*
X89664745Y-44457644D01*
X89701055Y-44337946D01*
X89713315Y-44213464D01*
X89701055Y-44088982D01*
X89664745Y-43969284D01*
X89605780Y-43858970D01*
X89526428Y-43762279D01*
X89137519Y-43373370D01*
X89040828Y-43294018D01*
X89040349Y-43293762D01*
X89040094Y-43293285D01*
X88960742Y-43196594D01*
X88616048Y-42851900D01*
X94526899Y-42851900D01*
X95336051Y-43661053D01*
%TA.AperFunction,Conductor*%
D24*
G36*
X95336051Y-43661053D02*
G01*
X95210842Y-43921775D01*
X95135635Y-44214642D01*
X95119009Y-44516553D01*
X95161603Y-44815907D01*
X95261778Y-45101199D01*
X95341739Y-45250792D01*
X95595918Y-45334474D01*
X95479970Y-45450422D01*
X95526735Y-45497187D01*
X95515820Y-45500498D01*
X95405506Y-45559463D01*
X95308815Y-45638815D01*
X95229463Y-45735506D01*
X95170498Y-45845820D01*
X95134188Y-45965518D01*
X95121928Y-46090000D01*
X95121928Y-47890000D01*
X95134188Y-48014482D01*
X95170498Y-48134180D01*
X95229463Y-48244494D01*
X95308815Y-48341185D01*
X95405506Y-48420537D01*
X95515820Y-48479502D01*
X95635518Y-48515812D01*
X95760000Y-48528072D01*
X96733426Y-48528072D01*
X94245903Y-51015596D01*
X94216899Y-51039399D01*
X94183844Y-51079677D01*
X94121926Y-51155124D01*
X94068487Y-51255101D01*
X94051354Y-51287154D01*
X94007897Y-51430415D01*
X93996900Y-51542068D01*
X93996900Y-51542078D01*
X93993224Y-51579400D01*
X93996900Y-51616723D01*
X93996900Y-52810897D01*
X93903158Y-52772068D01*
X93616260Y-52715000D01*
X93323740Y-52715000D01*
X93036842Y-52772068D01*
X92950000Y-52808039D01*
X92950000Y-49145111D01*
X92993937Y-49101174D01*
X93107205Y-48931656D01*
X93185226Y-48743298D01*
X93225000Y-48543339D01*
X93225000Y-48339461D01*
X93185226Y-48139502D01*
X93107205Y-47951144D01*
X92993937Y-47781626D01*
X92849774Y-47637463D01*
X92680256Y-47524195D01*
X92491898Y-47446174D01*
X92291939Y-47406400D01*
X92088061Y-47406400D01*
X91888102Y-47446174D01*
X91699744Y-47524195D01*
X91530226Y-47637463D01*
X91386063Y-47781626D01*
X91272795Y-47951144D01*
X91194774Y-48139502D01*
X91178327Y-48222187D01*
X91178327Y-48217561D01*
X90887581Y-47922470D01*
X90790889Y-47843117D01*
X90680575Y-47784153D01*
X90560877Y-47747843D01*
X90436396Y-47735583D01*
X90311914Y-47747843D01*
X90192216Y-47784153D01*
X90160700Y-47800999D01*
X90160700Y-45707622D01*
X90164376Y-45670299D01*
X90160700Y-45632976D01*
X90160700Y-45632967D01*
X90149703Y-45521314D01*
X90106246Y-45378053D01*
X90035674Y-45246024D01*
X89940701Y-45130299D01*
X89911703Y-45106501D01*
X89498139Y-44692938D01*
X89526428Y-44664649D01*
X89605780Y-44567958D01*
X89664745Y-44457644D01*
X89701055Y-44337946D01*
X89713315Y-44213464D01*
X89701055Y-44088982D01*
X89664745Y-43969284D01*
X89605780Y-43858970D01*
X89526428Y-43762279D01*
X89137519Y-43373370D01*
X89040828Y-43294018D01*
X89040349Y-43293762D01*
X89040094Y-43293285D01*
X88960742Y-43196594D01*
X88616048Y-42851900D01*
X94526899Y-42851900D01*
X95336051Y-43661053D01*
G37*
%TD.AperFunction*%
D23*
X90718532Y-49261074D02*
X90704389Y-49275216D01*
X90718532Y-49289359D01*
X90538927Y-49468964D01*
X90524784Y-49454821D01*
X90510642Y-49468964D01*
X90331037Y-49289359D01*
X90345179Y-49275216D01*
X90331037Y-49261074D01*
X90510642Y-49081469D01*
X90524784Y-49095611D01*
X90538926Y-49081468D01*
X90718532Y-49261074D01*
%TA.AperFunction,Conductor*%
D24*
G36*
X90718532Y-49261074D02*
G01*
X90704389Y-49275216D01*
X90718532Y-49289359D01*
X90538927Y-49468964D01*
X90524784Y-49454821D01*
X90510642Y-49468964D01*
X90331037Y-49289359D01*
X90345179Y-49275216D01*
X90331037Y-49261074D01*
X90510642Y-49081469D01*
X90524784Y-49095611D01*
X90538926Y-49081468D01*
X90718532Y-49261074D01*
G37*
%TD.AperFunction*%
D23*
X81731126Y-43198276D02*
X81762251Y-43236201D01*
X81826099Y-43314001D01*
X81855103Y-43337804D01*
X82264510Y-43747211D01*
X82097244Y-43816495D01*
X81927726Y-43929763D01*
X81783563Y-44073926D01*
X81670295Y-44243444D01*
X81592274Y-44431802D01*
X81552500Y-44631761D01*
X81552500Y-44835639D01*
X81592274Y-45035598D01*
X81670295Y-45223956D01*
X81783563Y-45393474D01*
X81927726Y-45537637D01*
X82097244Y-45650905D01*
X82285602Y-45728926D01*
X82485561Y-45768700D01*
X82547698Y-45768700D01*
X82841405Y-46062408D01*
X82865199Y-46091401D01*
X82894192Y-46115195D01*
X82894196Y-46115199D01*
X82964885Y-46173211D01*
X82980924Y-46186374D01*
X83112953Y-46256946D01*
X83256214Y-46300403D01*
X83367867Y-46311400D01*
X83367876Y-46311400D01*
X83405199Y-46315076D01*
X83442522Y-46311400D01*
X86179678Y-46311400D01*
X86217000Y-46315076D01*
X86254322Y-46311400D01*
X86254333Y-46311400D01*
X86365986Y-46300403D01*
X86509247Y-46256946D01*
X86641276Y-46186374D01*
X86757001Y-46091401D01*
X86780804Y-46062397D01*
X87269934Y-45573267D01*
X87306667Y-45610000D01*
X87103778Y-45812889D01*
X87024426Y-45909580D01*
X87024171Y-45910057D01*
X87023692Y-45910313D01*
X86927001Y-45989665D01*
X86538092Y-46378574D01*
X86458740Y-46475265D01*
X86458179Y-46476315D01*
X86371090Y-46549922D01*
X86371090Y-46680141D01*
X86363465Y-46705277D01*
X86351205Y-46829759D01*
X86362609Y-46945553D01*
X86246816Y-46934149D01*
X86122334Y-46946409D01*
X86097198Y-46954034D01*
X85966978Y-46954034D01*
X85893370Y-47041124D01*
X85892322Y-47041684D01*
X85795631Y-47121036D01*
X85406722Y-47509945D01*
X85327370Y-47606636D01*
X85326809Y-47607685D01*
X85239719Y-47681293D01*
X85239719Y-47811515D01*
X85232095Y-47836648D01*
X85219835Y-47961130D01*
X85231239Y-48076924D01*
X85160247Y-48069932D01*
X85115276Y-48033026D01*
X84983247Y-47962454D01*
X84839986Y-47918997D01*
X84728333Y-47908000D01*
X84728322Y-47908000D01*
X84691000Y-47904324D01*
X84653678Y-47908000D01*
X83874402Y-47908000D01*
X80464867Y-44498466D01*
X80687593Y-44275740D01*
X80766945Y-44179049D01*
X80767200Y-44178571D01*
X80767678Y-44178316D01*
X80864369Y-44098964D01*
X81253278Y-43710055D01*
X81332630Y-43613364D01*
X81333191Y-43612315D01*
X81420281Y-43538707D01*
X81420281Y-43408485D01*
X81427905Y-43383352D01*
X81440165Y-43258870D01*
X81428761Y-43143076D01*
X81544555Y-43154480D01*
X81669037Y-43142220D01*
X81694173Y-43134595D01*
X81697088Y-43134595D01*
X81731126Y-43198276D01*
%TA.AperFunction,Conductor*%
D24*
G36*
X81731126Y-43198276D02*
G01*
X81762251Y-43236201D01*
X81826099Y-43314001D01*
X81855103Y-43337804D01*
X82264510Y-43747211D01*
X82097244Y-43816495D01*
X81927726Y-43929763D01*
X81783563Y-44073926D01*
X81670295Y-44243444D01*
X81592274Y-44431802D01*
X81552500Y-44631761D01*
X81552500Y-44835639D01*
X81592274Y-45035598D01*
X81670295Y-45223956D01*
X81783563Y-45393474D01*
X81927726Y-45537637D01*
X82097244Y-45650905D01*
X82285602Y-45728926D01*
X82485561Y-45768700D01*
X82547698Y-45768700D01*
X82841405Y-46062408D01*
X82865199Y-46091401D01*
X82894192Y-46115195D01*
X82894196Y-46115199D01*
X82964885Y-46173211D01*
X82980924Y-46186374D01*
X83112953Y-46256946D01*
X83256214Y-46300403D01*
X83367867Y-46311400D01*
X83367876Y-46311400D01*
X83405199Y-46315076D01*
X83442522Y-46311400D01*
X86179678Y-46311400D01*
X86217000Y-46315076D01*
X86254322Y-46311400D01*
X86254333Y-46311400D01*
X86365986Y-46300403D01*
X86509247Y-46256946D01*
X86641276Y-46186374D01*
X86757001Y-46091401D01*
X86780804Y-46062397D01*
X87269934Y-45573267D01*
X87306667Y-45610000D01*
X87103778Y-45812889D01*
X87024426Y-45909580D01*
X87024171Y-45910057D01*
X87023692Y-45910313D01*
X86927001Y-45989665D01*
X86538092Y-46378574D01*
X86458740Y-46475265D01*
X86458179Y-46476315D01*
X86371090Y-46549922D01*
X86371090Y-46680141D01*
X86363465Y-46705277D01*
X86351205Y-46829759D01*
X86362609Y-46945553D01*
X86246816Y-46934149D01*
X86122334Y-46946409D01*
X86097198Y-46954034D01*
X85966978Y-46954034D01*
X85893370Y-47041124D01*
X85892322Y-47041684D01*
X85795631Y-47121036D01*
X85406722Y-47509945D01*
X85327370Y-47606636D01*
X85326809Y-47607685D01*
X85239719Y-47681293D01*
X85239719Y-47811515D01*
X85232095Y-47836648D01*
X85219835Y-47961130D01*
X85231239Y-48076924D01*
X85160247Y-48069932D01*
X85115276Y-48033026D01*
X84983247Y-47962454D01*
X84839986Y-47918997D01*
X84728333Y-47908000D01*
X84728322Y-47908000D01*
X84691000Y-47904324D01*
X84653678Y-47908000D01*
X83874402Y-47908000D01*
X80464867Y-44498466D01*
X80687593Y-44275740D01*
X80766945Y-44179049D01*
X80767200Y-44178571D01*
X80767678Y-44178316D01*
X80864369Y-44098964D01*
X81253278Y-43710055D01*
X81332630Y-43613364D01*
X81333191Y-43612315D01*
X81420281Y-43538707D01*
X81420281Y-43408485D01*
X81427905Y-43383352D01*
X81440165Y-43258870D01*
X81428761Y-43143076D01*
X81544555Y-43154480D01*
X81669037Y-43142220D01*
X81694173Y-43134595D01*
X81697088Y-43134595D01*
X81731126Y-43198276D01*
G37*
%TD.AperFunction*%
D23*
X67729528Y-38589851D02*
X67811595Y-38743387D01*
X67922038Y-38877962D01*
X68056613Y-38988405D01*
X68210149Y-39070472D01*
X68376745Y-39121008D01*
X68549999Y-39138072D01*
X69138271Y-39138072D01*
X70214701Y-40214503D01*
X70214700Y-42562667D01*
X70211023Y-42600000D01*
X70225697Y-42748986D01*
X70269154Y-42892247D01*
X70339726Y-43024276D01*
X70406721Y-43105910D01*
X70434699Y-43140001D01*
X70550424Y-43234974D01*
X70682453Y-43305546D01*
X70723176Y-43317899D01*
X70769463Y-43404494D01*
X70848815Y-43501185D01*
X70861905Y-43511928D01*
X70350000Y-43511928D01*
X70225518Y-43524188D01*
X70105820Y-43560498D01*
X69995506Y-43619463D01*
X69898815Y-43698815D01*
X69819463Y-43795506D01*
X69760498Y-43905820D01*
X69724188Y-44025518D01*
X69711928Y-44150000D01*
X69711928Y-45050000D01*
X69724188Y-45174482D01*
X69760498Y-45294180D01*
X69819463Y-45404494D01*
X69898815Y-45501185D01*
X69995506Y-45580537D01*
X70105820Y-45639502D01*
X70225518Y-45675812D01*
X70350000Y-45688072D01*
X71150000Y-45688072D01*
X71274482Y-45675812D01*
X71394180Y-45639502D01*
X71504494Y-45580537D01*
X71601185Y-45501185D01*
X71680537Y-45404494D01*
X71700000Y-45368082D01*
X71719463Y-45404494D01*
X71798815Y-45501185D01*
X71890000Y-45576019D01*
X71890001Y-46442837D01*
X71776745Y-46453992D01*
X71610149Y-46504528D01*
X71456613Y-46586595D01*
X71322038Y-46697038D01*
X71211595Y-46831613D01*
X71129528Y-46985149D01*
X71078992Y-47151745D01*
X71061928Y-47324999D01*
X71061928Y-47815800D01*
X70716102Y-47815800D01*
X66189304Y-43289003D01*
X66165501Y-43259999D01*
X66049776Y-43165026D01*
X65917747Y-43094454D01*
X65774486Y-43050997D01*
X65662833Y-43040000D01*
X65662822Y-43040000D01*
X65625500Y-43036324D01*
X65588178Y-43040000D01*
X65229701Y-43040000D01*
X65225812Y-43000518D01*
X65189502Y-42880820D01*
X65146302Y-42800000D01*
X65189502Y-42719180D01*
X65225812Y-42599482D01*
X65238072Y-42475000D01*
X65238072Y-41125000D01*
X65225812Y-41000518D01*
X65189502Y-40880820D01*
X65146302Y-40800000D01*
X65170167Y-40755352D01*
X65248815Y-40851185D01*
X65345506Y-40930537D01*
X65455820Y-40989502D01*
X65575518Y-41025812D01*
X65700000Y-41038072D01*
X66114250Y-41035000D01*
X66273000Y-40876250D01*
X66273000Y-39952000D01*
X66527000Y-39952000D01*
X66527000Y-40876250D01*
X66685750Y-41035000D01*
X67100000Y-41038072D01*
X67224482Y-41025812D01*
X67344180Y-40989502D01*
X67454494Y-40930537D01*
X67551185Y-40851185D01*
X67630537Y-40754494D01*
X67689502Y-40644180D01*
X67725812Y-40524482D01*
X67738072Y-40400000D01*
X67735000Y-40110750D01*
X67576250Y-39952000D01*
X66527000Y-39952000D01*
X66273000Y-39952000D01*
X65223750Y-39952000D01*
X65162500Y-40013250D01*
X65076250Y-39927000D01*
X64005906Y-39927000D01*
X64014174Y-39724535D01*
X64006093Y-39673000D01*
X65076250Y-39673000D01*
X65137500Y-39611750D01*
X65223750Y-39698000D01*
X66273000Y-39698000D01*
X66273000Y-39678000D01*
X66527000Y-39678000D01*
X66527000Y-39698000D01*
X67576250Y-39698000D01*
X67735000Y-39539250D01*
X67738072Y-39250000D01*
X67725812Y-39125518D01*
X67689502Y-39005820D01*
X67630537Y-38895506D01*
X67551185Y-38798815D01*
X67471406Y-38733342D01*
X67477962Y-38727962D01*
X67588405Y-38593387D01*
X67606251Y-38560000D01*
X67720473Y-38560000D01*
X67729528Y-38589851D01*
%TA.AperFunction,Conductor*%
D24*
G36*
X67729528Y-38589851D02*
G01*
X67811595Y-38743387D01*
X67922038Y-38877962D01*
X68056613Y-38988405D01*
X68210149Y-39070472D01*
X68376745Y-39121008D01*
X68549999Y-39138072D01*
X69138271Y-39138072D01*
X70214701Y-40214503D01*
X70214700Y-42562667D01*
X70211023Y-42600000D01*
X70225697Y-42748986D01*
X70269154Y-42892247D01*
X70339726Y-43024276D01*
X70406721Y-43105910D01*
X70434699Y-43140001D01*
X70550424Y-43234974D01*
X70682453Y-43305546D01*
X70723176Y-43317899D01*
X70769463Y-43404494D01*
X70848815Y-43501185D01*
X70861905Y-43511928D01*
X70350000Y-43511928D01*
X70225518Y-43524188D01*
X70105820Y-43560498D01*
X69995506Y-43619463D01*
X69898815Y-43698815D01*
X69819463Y-43795506D01*
X69760498Y-43905820D01*
X69724188Y-44025518D01*
X69711928Y-44150000D01*
X69711928Y-45050000D01*
X69724188Y-45174482D01*
X69760498Y-45294180D01*
X69819463Y-45404494D01*
X69898815Y-45501185D01*
X69995506Y-45580537D01*
X70105820Y-45639502D01*
X70225518Y-45675812D01*
X70350000Y-45688072D01*
X71150000Y-45688072D01*
X71274482Y-45675812D01*
X71394180Y-45639502D01*
X71504494Y-45580537D01*
X71601185Y-45501185D01*
X71680537Y-45404494D01*
X71700000Y-45368082D01*
X71719463Y-45404494D01*
X71798815Y-45501185D01*
X71890000Y-45576019D01*
X71890001Y-46442837D01*
X71776745Y-46453992D01*
X71610149Y-46504528D01*
X71456613Y-46586595D01*
X71322038Y-46697038D01*
X71211595Y-46831613D01*
X71129528Y-46985149D01*
X71078992Y-47151745D01*
X71061928Y-47324999D01*
X71061928Y-47815800D01*
X70716102Y-47815800D01*
X66189304Y-43289003D01*
X66165501Y-43259999D01*
X66049776Y-43165026D01*
X65917747Y-43094454D01*
X65774486Y-43050997D01*
X65662833Y-43040000D01*
X65662822Y-43040000D01*
X65625500Y-43036324D01*
X65588178Y-43040000D01*
X65229701Y-43040000D01*
X65225812Y-43000518D01*
X65189502Y-42880820D01*
X65146302Y-42800000D01*
X65189502Y-42719180D01*
X65225812Y-42599482D01*
X65238072Y-42475000D01*
X65238072Y-41125000D01*
X65225812Y-41000518D01*
X65189502Y-40880820D01*
X65146302Y-40800000D01*
X65170167Y-40755352D01*
X65248815Y-40851185D01*
X65345506Y-40930537D01*
X65455820Y-40989502D01*
X65575518Y-41025812D01*
X65700000Y-41038072D01*
X66114250Y-41035000D01*
X66273000Y-40876250D01*
X66273000Y-39952000D01*
X66527000Y-39952000D01*
X66527000Y-40876250D01*
X66685750Y-41035000D01*
X67100000Y-41038072D01*
X67224482Y-41025812D01*
X67344180Y-40989502D01*
X67454494Y-40930537D01*
X67551185Y-40851185D01*
X67630537Y-40754494D01*
X67689502Y-40644180D01*
X67725812Y-40524482D01*
X67738072Y-40400000D01*
X67735000Y-40110750D01*
X67576250Y-39952000D01*
X66527000Y-39952000D01*
X66273000Y-39952000D01*
X65223750Y-39952000D01*
X65162500Y-40013250D01*
X65076250Y-39927000D01*
X64005906Y-39927000D01*
X64014174Y-39724535D01*
X64006093Y-39673000D01*
X65076250Y-39673000D01*
X65137500Y-39611750D01*
X65223750Y-39698000D01*
X66273000Y-39698000D01*
X66273000Y-39678000D01*
X66527000Y-39678000D01*
X66527000Y-39698000D01*
X67576250Y-39698000D01*
X67735000Y-39539250D01*
X67738072Y-39250000D01*
X67725812Y-39125518D01*
X67689502Y-39005820D01*
X67630537Y-38895506D01*
X67551185Y-38798815D01*
X67471406Y-38733342D01*
X67477962Y-38727962D01*
X67588405Y-38593387D01*
X67606251Y-38560000D01*
X67720473Y-38560000D01*
X67729528Y-38589851D01*
G37*
%TD.AperFunction*%
D23*
X96853748Y-44435858D02*
X96839605Y-44450000D01*
X96853748Y-44464143D01*
X96674143Y-44643748D01*
X96660000Y-44629605D01*
X96645858Y-44643748D01*
X96466253Y-44464143D01*
X96480395Y-44450000D01*
X96466253Y-44435858D01*
X96645858Y-44256253D01*
X96660000Y-44270395D01*
X96674143Y-44256253D01*
X96853748Y-44435858D01*
%TA.AperFunction,Conductor*%
D24*
G36*
X96853748Y-44435858D02*
G01*
X96839605Y-44450000D01*
X96853748Y-44464143D01*
X96674143Y-44643748D01*
X96660000Y-44629605D01*
X96645858Y-44643748D01*
X96466253Y-44464143D01*
X96480395Y-44450000D01*
X96466253Y-44435858D01*
X96645858Y-44256253D01*
X96660000Y-44270395D01*
X96674143Y-44256253D01*
X96853748Y-44435858D01*
G37*
%TD.AperFunction*%
%TD*%
M02*
