M48
; DRILL file {KiCad (5.1.9-0-10_14)} date Friday, August 27, 2021 at 08:50:15 PM
; FORMAT={-:-/ absolute / inch / decimal}
; #@! TF.CreationDate,2021-08-27T20:50:15+02:00
; #@! TF.GenerationSoftware,Kicad,Pcbnew,(5.1.9-0-10_14)
FMAT,2
INCH
T1C0.0079
T2C0.0157
T3C0.0197
T4C0.0354
T5C0.0394
%
G90
G05
T1
X2.9819Y-2.2441
X3.2969Y-2.2441
T2
X1.95Y-1.7
X1.95Y-1.77
X1.95Y-1.84
X1.95Y-1.91
X2.751Y-2.0087
X2.8127Y-1.5484
X2.82Y-1.81
X2.87Y-1.62
X2.8844Y-2.1937
X2.9019Y-1.4841
X2.9248Y-2.1796
X2.9384Y-1.6912
X2.9639Y-1.9632
X3.0204Y-2.1424
X3.0644Y-2.1274
X3.1511Y-2.0063
X3.1743Y-2.2065
X3.2067Y-1.5538
X3.2238Y-1.8723
X3.2648Y-1.5252
X3.2704Y-1.9429
X3.2732Y-1.5827
X3.2786Y-1.6393
X3.3403Y-1.7746
X3.3585Y-1.441
X3.41Y-2.2147
X3.4312Y-1.8014
X3.6187Y-1.9005
X3.77Y-1.48
T3
X3.4724Y-1.4803
X3.4724Y-1.5551
T4
X3.8055Y-1.65
X3.8055Y-1.75
X3.8055Y-1.85
T5
X2.0709Y-2.2453
X2.1709Y-2.2453
X2.2709Y-2.2453
X2.3709Y-2.2453
X2.4709Y-2.2453
X2.5709Y-2.2453
X3.4823Y-2.2339
X3.4831Y-2.1339
X3.5815Y-2.1339
X3.5815Y-2.2339
X3.6799Y-2.1339
X3.6799Y-2.2339
X3.7823Y-2.1339
X3.7823Y-2.2339
T0
M30
