M48
; DRILL file {KiCad (5.1.9-0-10_14)} date Thursday, August 19, 2021 at 07:46:08 AM
; FORMAT={-:-/ absolute / inch / decimal}
; #@! TF.CreationDate,2021-08-19T07:46:08+02:00
; #@! TF.GenerationSoftware,Kicad,Pcbnew,(5.1.9-0-10_14)
FMAT,2
INCH
T1C0.0079
T2C0.0157
T3C0.0197
T4C0.0354
T5C0.0394
%
G90
G05
T1
X2.9819Y-2.2441
X3.2969Y-2.2441
T2
X1.9291Y-1.6535
X1.9291Y-1.7126
X1.9291Y-1.7717
X1.9291Y-1.8307
X1.9291Y-1.8898
X1.9291Y-1.9488
X2.4276Y-1.9908
X2.6417Y-1.8896
X2.7329Y-2.1939
X2.7809Y-2.2004
X2.8235Y-1.6352
X2.9384Y-1.6912
X2.9573Y-2.2968
X2.9602Y-1.9647
X3.0074Y-1.9983
X3.0463Y-1.9809
X3.0786Y-1.9485
X3.1685Y-2.0274
X3.204Y-1.5319
X3.2492Y-1.5558
X3.2515Y-1.7612
X3.2761Y-1.5846
X3.2779Y-1.6421
X3.2798Y-1.8253
X3.2861Y-1.9484
X3.3112Y-2.0686
X3.3224Y-1.7636
X3.3639Y-1.7461
X3.3661Y-1.437
X3.6295Y-1.9071
X3.7306Y-2.2709
X3.7594Y-1.5106
T3
X3.4724Y-1.4803
X3.4724Y-1.5551
T4
X3.8055Y-1.65
X3.8055Y-1.75
X3.8055Y-1.85
T5
X2.0709Y-2.2453
X2.1709Y-2.2453
X2.2709Y-2.2453
X2.3709Y-2.2453
X2.4709Y-2.2453
X2.5709Y-2.2453
X3.4823Y-2.2339
X3.4831Y-2.1339
X3.5815Y-2.1339
X3.5815Y-2.2339
X3.6799Y-2.1339
X3.6799Y-2.2339
X3.7823Y-2.1339
X3.7823Y-2.2339
T0
M30
