%TF.GenerationSoftware,KiCad,Pcbnew,(5.1.9-0-10_14)*%
%TF.CreationDate,2021-08-19T07:46:10+02:00*%
%TF.ProjectId,HB-SCI-x-MSP,48422d53-4349-42d7-982d-4d53502e6b69,rev?*%
%TF.SameCoordinates,Original*%
%TF.FileFunction,Paste,Bot*%
%TF.FilePolarity,Positive*%
%FSLAX46Y46*%
G04 Gerber Fmt 4.6, Leading zero omitted, Abs format (unit mm)*
G04 Created by KiCad (PCBNEW (5.1.9-0-10_14)) date 2021-08-19 07:46:10*
%MOMM*%
%LPD*%
G01*
G04 APERTURE LIST*
%ADD10C,1.350000*%
%ADD11C,0.100000*%
%ADD12R,0.800000X0.900000*%
%ADD13R,2.200000X1.500000*%
G04 APERTURE END LIST*
%TO.C,C7*%
G36*
G01*
X91420000Y-39980001D02*
X91420000Y-39079999D01*
G75*
G02*
X91669999Y-38830000I249999J0D01*
G01*
X92320001Y-38830000D01*
G75*
G02*
X92570000Y-39079999I0J-249999D01*
G01*
X92570000Y-39980001D01*
G75*
G02*
X92320001Y-40230000I-249999J0D01*
G01*
X91669999Y-40230000D01*
G75*
G02*
X91420000Y-39980001I0J249999D01*
G01*
G37*
G36*
G01*
X89370000Y-39980001D02*
X89370000Y-39079999D01*
G75*
G02*
X89619999Y-38830000I249999J0D01*
G01*
X90270001Y-38830000D01*
G75*
G02*
X90520000Y-39079999I0J-249999D01*
G01*
X90520000Y-39980001D01*
G75*
G02*
X90270001Y-40230000I-249999J0D01*
G01*
X89619999Y-40230000D01*
G75*
G02*
X89370000Y-39980001I0J249999D01*
G01*
G37*
%TD*%
%TO.C,C6*%
G36*
G01*
X91420000Y-38050001D02*
X91420000Y-37149999D01*
G75*
G02*
X91669999Y-36900000I249999J0D01*
G01*
X92320001Y-36900000D01*
G75*
G02*
X92570000Y-37149999I0J-249999D01*
G01*
X92570000Y-38050001D01*
G75*
G02*
X92320001Y-38300000I-249999J0D01*
G01*
X91669999Y-38300000D01*
G75*
G02*
X91420000Y-38050001I0J249999D01*
G01*
G37*
G36*
G01*
X89370000Y-38050001D02*
X89370000Y-37149999D01*
G75*
G02*
X89619999Y-36900000I249999J0D01*
G01*
X90270001Y-36900000D01*
G75*
G02*
X90520000Y-37149999I0J-249999D01*
G01*
X90520000Y-38050001D01*
G75*
G02*
X90270001Y-38300000I-249999J0D01*
G01*
X89619999Y-38300000D01*
G75*
G02*
X89370000Y-38050001I0J249999D01*
G01*
G37*
%TD*%
D10*
%TO.C,U3*%
X62700000Y-51800000D03*
X62700000Y-37800000D03*
X62700000Y-39800000D03*
X62700000Y-41800000D03*
X62700000Y-43800000D03*
X62700000Y-45800000D03*
X62700000Y-47800000D03*
X62700000Y-49800000D03*
%TD*%
D11*
%TO.C,U1*%
G36*
X87943872Y-45344835D02*
G01*
X87554963Y-44955926D01*
X88686334Y-43824555D01*
X89075243Y-44213464D01*
X87943872Y-45344835D01*
G37*
G36*
X87378186Y-44779150D02*
G01*
X86989277Y-44390241D01*
X88120648Y-43258870D01*
X88509557Y-43647779D01*
X87378186Y-44779150D01*
G37*
G36*
X86812501Y-44213464D02*
G01*
X86423592Y-43824555D01*
X87554963Y-42693184D01*
X87943872Y-43082093D01*
X86812501Y-44213464D01*
G37*
G36*
X86246816Y-43647779D02*
G01*
X85857907Y-43258870D01*
X86989278Y-42127499D01*
X87378187Y-42516408D01*
X86246816Y-43647779D01*
G37*
G36*
X85681130Y-43082093D02*
G01*
X85292221Y-42693184D01*
X86423592Y-41561813D01*
X86812501Y-41950722D01*
X85681130Y-43082093D01*
G37*
G36*
X85115445Y-42516408D02*
G01*
X84726536Y-42127499D01*
X85857907Y-40996128D01*
X86246816Y-41385037D01*
X85115445Y-42516408D01*
G37*
G36*
X84549759Y-41950723D02*
G01*
X84160850Y-41561814D01*
X85292221Y-40430443D01*
X85681130Y-40819352D01*
X84549759Y-41950723D01*
G37*
G36*
X83984074Y-41385037D02*
G01*
X83595165Y-40996128D01*
X84726536Y-39864757D01*
X85115445Y-40253666D01*
X83984074Y-41385037D01*
G37*
G36*
X83064835Y-40996128D02*
G01*
X82675926Y-41385037D01*
X81544555Y-40253666D01*
X81933464Y-39864757D01*
X83064835Y-40996128D01*
G37*
G36*
X82499150Y-41561814D02*
G01*
X82110241Y-41950723D01*
X80978870Y-40819352D01*
X81367779Y-40430443D01*
X82499150Y-41561814D01*
G37*
G36*
X81933464Y-42127499D02*
G01*
X81544555Y-42516408D01*
X80413184Y-41385037D01*
X80802093Y-40996128D01*
X81933464Y-42127499D01*
G37*
G36*
X81367779Y-42693184D02*
G01*
X80978870Y-43082093D01*
X79847499Y-41950722D01*
X80236408Y-41561813D01*
X81367779Y-42693184D01*
G37*
G36*
X80802093Y-43258870D02*
G01*
X80413184Y-43647779D01*
X79281813Y-42516408D01*
X79670722Y-42127499D01*
X80802093Y-43258870D01*
G37*
G36*
X80236408Y-43824555D02*
G01*
X79847499Y-44213464D01*
X78716128Y-43082093D01*
X79105037Y-42693184D01*
X80236408Y-43824555D01*
G37*
G36*
X79670723Y-44390241D02*
G01*
X79281814Y-44779150D01*
X78150443Y-43647779D01*
X78539352Y-43258870D01*
X79670723Y-44390241D01*
G37*
G36*
X79105037Y-44955926D02*
G01*
X78716128Y-45344835D01*
X77584757Y-44213464D01*
X77973666Y-43824555D01*
X79105037Y-44955926D01*
G37*
G36*
X77973666Y-47395445D02*
G01*
X77584757Y-47006536D01*
X78716128Y-45875165D01*
X79105037Y-46264074D01*
X77973666Y-47395445D01*
G37*
G36*
X78539352Y-47961130D02*
G01*
X78150443Y-47572221D01*
X79281814Y-46440850D01*
X79670723Y-46829759D01*
X78539352Y-47961130D01*
G37*
G36*
X79105037Y-48526816D02*
G01*
X78716128Y-48137907D01*
X79847499Y-47006536D01*
X80236408Y-47395445D01*
X79105037Y-48526816D01*
G37*
G36*
X79670722Y-49092501D02*
G01*
X79281813Y-48703592D01*
X80413184Y-47572221D01*
X80802093Y-47961130D01*
X79670722Y-49092501D01*
G37*
G36*
X80236408Y-49658187D02*
G01*
X79847499Y-49269278D01*
X80978870Y-48137907D01*
X81367779Y-48526816D01*
X80236408Y-49658187D01*
G37*
G36*
X80802093Y-50223872D02*
G01*
X80413184Y-49834963D01*
X81544555Y-48703592D01*
X81933464Y-49092501D01*
X80802093Y-50223872D01*
G37*
G36*
X81367779Y-50789557D02*
G01*
X80978870Y-50400648D01*
X82110241Y-49269277D01*
X82499150Y-49658186D01*
X81367779Y-50789557D01*
G37*
G36*
X81933464Y-51355243D02*
G01*
X81544555Y-50966334D01*
X82675926Y-49834963D01*
X83064835Y-50223872D01*
X81933464Y-51355243D01*
G37*
G36*
X85115445Y-50966334D02*
G01*
X84726536Y-51355243D01*
X83595165Y-50223872D01*
X83984074Y-49834963D01*
X85115445Y-50966334D01*
G37*
G36*
X85681130Y-50400648D02*
G01*
X85292221Y-50789557D01*
X84160850Y-49658186D01*
X84549759Y-49269277D01*
X85681130Y-50400648D01*
G37*
G36*
X86246816Y-49834963D02*
G01*
X85857907Y-50223872D01*
X84726536Y-49092501D01*
X85115445Y-48703592D01*
X86246816Y-49834963D01*
G37*
G36*
X86812501Y-49269278D02*
G01*
X86423592Y-49658187D01*
X85292221Y-48526816D01*
X85681130Y-48137907D01*
X86812501Y-49269278D01*
G37*
G36*
X87378187Y-48703592D02*
G01*
X86989278Y-49092501D01*
X85857907Y-47961130D01*
X86246816Y-47572221D01*
X87378187Y-48703592D01*
G37*
G36*
X87943872Y-48137907D02*
G01*
X87554963Y-48526816D01*
X86423592Y-47395445D01*
X86812501Y-47006536D01*
X87943872Y-48137907D01*
G37*
G36*
X88509557Y-47572221D02*
G01*
X88120648Y-47961130D01*
X86989277Y-46829759D01*
X87378186Y-46440850D01*
X88509557Y-47572221D01*
G37*
G36*
X89075243Y-47006536D02*
G01*
X88686334Y-47395445D01*
X87554963Y-46264074D01*
X87943872Y-45875165D01*
X89075243Y-47006536D01*
G37*
%TD*%
%TO.C,R8*%
G36*
G01*
X69450000Y-37349999D02*
X69450000Y-38250001D01*
G75*
G02*
X69200001Y-38500000I-249999J0D01*
G01*
X68549999Y-38500000D01*
G75*
G02*
X68300000Y-38250001I0J249999D01*
G01*
X68300000Y-37349999D01*
G75*
G02*
X68549999Y-37100000I249999J0D01*
G01*
X69200001Y-37100000D01*
G75*
G02*
X69450000Y-37349999I0J-249999D01*
G01*
G37*
G36*
G01*
X71500000Y-37349999D02*
X71500000Y-38250001D01*
G75*
G02*
X71250001Y-38500000I-249999J0D01*
G01*
X70599999Y-38500000D01*
G75*
G02*
X70350000Y-38250001I0J249999D01*
G01*
X70350000Y-37349999D01*
G75*
G02*
X70599999Y-37100000I249999J0D01*
G01*
X71250001Y-37100000D01*
G75*
G02*
X71500000Y-37349999I0J-249999D01*
G01*
G37*
%TD*%
%TO.C,R7*%
G36*
G01*
X71949999Y-49125000D02*
X72850001Y-49125000D01*
G75*
G02*
X73100000Y-49374999I0J-249999D01*
G01*
X73100000Y-50025001D01*
G75*
G02*
X72850001Y-50275000I-249999J0D01*
G01*
X71949999Y-50275000D01*
G75*
G02*
X71700000Y-50025001I0J249999D01*
G01*
X71700000Y-49374999D01*
G75*
G02*
X71949999Y-49125000I249999J0D01*
G01*
G37*
G36*
G01*
X71949999Y-47075000D02*
X72850001Y-47075000D01*
G75*
G02*
X73100000Y-47324999I0J-249999D01*
G01*
X73100000Y-47975001D01*
G75*
G02*
X72850001Y-48225000I-249999J0D01*
G01*
X71949999Y-48225000D01*
G75*
G02*
X71700000Y-47975001I0J249999D01*
G01*
X71700000Y-47324999D01*
G75*
G02*
X71949999Y-47075000I249999J0D01*
G01*
G37*
%TD*%
D12*
%TO.C,Q1*%
X71700000Y-42600000D03*
X70750000Y-44600000D03*
X72650000Y-44600000D03*
%TD*%
D13*
%TO.C,D2*%
X71030000Y-53450000D03*
X73930000Y-53450000D03*
%TD*%
%TO.C,C3*%
G36*
G01*
X65949999Y-39250000D02*
X66850001Y-39250000D01*
G75*
G02*
X67100000Y-39499999I0J-249999D01*
G01*
X67100000Y-40150001D01*
G75*
G02*
X66850001Y-40400000I-249999J0D01*
G01*
X65949999Y-40400000D01*
G75*
G02*
X65700000Y-40150001I0J249999D01*
G01*
X65700000Y-39499999D01*
G75*
G02*
X65949999Y-39250000I249999J0D01*
G01*
G37*
G36*
G01*
X65949999Y-37200000D02*
X66850001Y-37200000D01*
G75*
G02*
X67100000Y-37449999I0J-249999D01*
G01*
X67100000Y-38100001D01*
G75*
G02*
X66850001Y-38350000I-249999J0D01*
G01*
X65949999Y-38350000D01*
G75*
G02*
X65700000Y-38100001I0J249999D01*
G01*
X65700000Y-37449999D01*
G75*
G02*
X65949999Y-37200000I249999J0D01*
G01*
G37*
%TD*%
%TO.C,C2*%
G36*
G01*
X78836396Y-40824801D02*
X78199999Y-40188404D01*
G75*
G02*
X78199999Y-39834852I176776J176776D01*
G01*
X78659620Y-39375231D01*
G75*
G02*
X79013172Y-39375231I176776J-176776D01*
G01*
X79649569Y-40011628D01*
G75*
G02*
X79649569Y-40365180I-176776J-176776D01*
G01*
X79189948Y-40824801D01*
G75*
G02*
X78836396Y-40824801I-176776J176776D01*
G01*
G37*
G36*
G01*
X77386828Y-42274369D02*
X76750431Y-41637972D01*
G75*
G02*
X76750431Y-41284420I176776J176776D01*
G01*
X77210052Y-40824799D01*
G75*
G02*
X77563604Y-40824799I176776J-176776D01*
G01*
X78200001Y-41461196D01*
G75*
G02*
X78200001Y-41814748I-176776J-176776D01*
G01*
X77740380Y-42274369D01*
G75*
G02*
X77386828Y-42274369I-176776J176776D01*
G01*
G37*
%TD*%
%TO.C,C1*%
G36*
G01*
X88986828Y-51449569D02*
X88350431Y-50813172D01*
G75*
G02*
X88350431Y-50459620I176776J176776D01*
G01*
X88810052Y-49999999D01*
G75*
G02*
X89163604Y-49999999I176776J-176776D01*
G01*
X89800001Y-50636396D01*
G75*
G02*
X89800001Y-50989948I-176776J-176776D01*
G01*
X89340380Y-51449569D01*
G75*
G02*
X88986828Y-51449569I-176776J176776D01*
G01*
G37*
G36*
G01*
X90436396Y-50000001D02*
X89799999Y-49363604D01*
G75*
G02*
X89799999Y-49010052I176776J176776D01*
G01*
X90259620Y-48550431D01*
G75*
G02*
X90613172Y-48550431I176776J-176776D01*
G01*
X91249569Y-49186828D01*
G75*
G02*
X91249569Y-49540380I-176776J-176776D01*
G01*
X90789948Y-50000001D01*
G75*
G02*
X90436396Y-50000001I-176776J176776D01*
G01*
G37*
%TD*%
M02*
